<svg width="357" height="456" viewBox="0 0 357 456" fill="none" xmlns="http://www.w3.org/2000/svg">
<g filter="url(#filter0_d_222_1436)">
<path d="M31 35C31 29.4771 35.4772 25 41 25H313C318.523 25 323 29.4772 323 35V383C323 399.569 309.569 413 293 413H41C35.4771 413 31 408.523 31 403V35Z" fill="white"/>
</g>
<circle cx="82" cy="74.8194" r="37" fill="url(#paint0_linear_222_1436)"/>
<path d="M239 34C239 29.0294 243.029 25 248 25H313C318.523 25 323 29.4772 323 35V43H248C243.029 43 239 38.9706 239 34V34Z" fill="url(#paint1_linear_222_1436)"/>
<path d="M251.929 30.6016H254.047C254.528 30.6016 254.934 30.6748 255.265 30.8213C255.599 30.9678 255.852 31.1846 256.025 31.4717C256.201 31.7559 256.289 32.106 256.289 32.522C256.289 32.8149 256.229 33.083 256.108 33.3262C255.991 33.5664 255.821 33.7715 255.599 33.9414C255.379 34.1084 255.115 34.2329 254.808 34.3149L254.57 34.4072H252.58L252.571 33.7173H254.074C254.378 33.7173 254.632 33.6646 254.834 33.5591C255.036 33.4507 255.188 33.3057 255.291 33.124C255.394 32.9424 255.445 32.7417 255.445 32.522C255.445 32.2759 255.396 32.0605 255.3 31.876C255.203 31.6914 255.051 31.5493 254.843 31.4497C254.638 31.3472 254.373 31.2959 254.047 31.2959H252.777V37H251.929V30.6016ZM255.669 37L254.113 34.0996L254.997 34.0952L256.574 36.9473V37H255.669ZM259.325 37.0879C258.994 37.0879 258.694 37.0322 258.424 36.9209C258.158 36.8066 257.928 36.647 257.734 36.4419C257.544 36.2368 257.397 35.9937 257.295 35.7124C257.192 35.4312 257.141 35.1235 257.141 34.7896V34.605C257.141 34.2183 257.198 33.874 257.312 33.5723C257.427 33.2676 257.582 33.0098 257.778 32.7988C257.975 32.5879 258.197 32.4282 258.446 32.3198C258.695 32.2114 258.953 32.1572 259.22 32.1572C259.56 32.1572 259.853 32.2158 260.099 32.333C260.348 32.4502 260.551 32.6143 260.709 32.8252C260.868 33.0332 260.985 33.2793 261.061 33.5635C261.137 33.8447 261.175 34.1523 261.175 34.4863V34.8511H257.625V34.1875H260.362V34.126C260.351 33.915 260.307 33.71 260.23 33.5107C260.157 33.3115 260.04 33.1475 259.879 33.0186C259.718 32.8896 259.498 32.8252 259.22 32.8252C259.035 32.8252 258.865 32.8647 258.71 32.9438C258.555 33.02 258.421 33.1343 258.31 33.2866C258.199 33.439 258.112 33.625 258.051 33.8447C257.989 34.0645 257.958 34.3179 257.958 34.605V34.7896C257.958 35.0151 257.989 35.2275 258.051 35.4268C258.115 35.623 258.208 35.7959 258.328 35.9453C258.451 36.0947 258.599 36.2119 258.771 36.2969C258.947 36.3818 259.146 36.4243 259.369 36.4243C259.656 36.4243 259.899 36.3657 260.099 36.2485C260.298 36.1313 260.472 35.9746 260.622 35.7783L261.114 36.1694C261.011 36.3247 260.881 36.4727 260.723 36.6133C260.564 36.7539 260.37 36.8682 260.138 36.9561C259.91 37.0439 259.639 37.0879 259.325 37.0879ZM264.027 36.4199C264.221 36.4199 264.399 36.3804 264.563 36.3013C264.728 36.2222 264.862 36.1138 264.968 35.9761C265.073 35.8354 265.133 35.6758 265.148 35.4971H265.921C265.907 35.7783 265.812 36.0405 265.636 36.2837C265.463 36.5239 265.236 36.7188 264.955 36.8682C264.673 37.0146 264.364 37.0879 264.027 37.0879C263.67 37.0879 263.358 37.0249 263.091 36.8989C262.828 36.7729 262.608 36.6001 262.432 36.3804C262.259 36.1606 262.129 35.9087 262.041 35.6245C261.956 35.3374 261.914 35.0342 261.914 34.7148V34.5303C261.914 34.2109 261.956 33.9092 262.041 33.625C262.129 33.3379 262.259 33.0845 262.432 32.8647C262.608 32.645 262.828 32.4722 263.091 32.3462C263.358 32.2202 263.67 32.1572 264.027 32.1572C264.399 32.1572 264.725 32.2334 265.003 32.3857C265.281 32.5352 265.5 32.7402 265.658 33.001C265.819 33.2588 265.907 33.5518 265.921 33.8799H265.148C265.133 33.6836 265.078 33.5063 264.981 33.3481C264.887 33.1899 264.758 33.064 264.594 32.9702C264.433 32.8735 264.244 32.8252 264.027 32.8252C263.778 32.8252 263.569 32.875 263.399 32.9746C263.232 33.0713 263.099 33.2031 262.999 33.3701C262.902 33.5342 262.832 33.7173 262.788 33.9194C262.747 34.1187 262.727 34.3223 262.727 34.5303V34.7148C262.727 34.9229 262.747 35.1279 262.788 35.3301C262.829 35.5322 262.898 35.7153 262.995 35.8794C263.094 36.0435 263.228 36.1753 263.395 36.2749C263.564 36.3716 263.775 36.4199 264.027 36.4199ZM266.62 34.6753V34.5742C266.62 34.2314 266.67 33.9136 266.77 33.6206C266.869 33.3247 267.013 33.0684 267.2 32.8516C267.388 32.6318 267.615 32.4619 267.881 32.3418C268.148 32.2188 268.447 32.1572 268.778 32.1572C269.112 32.1572 269.412 32.2188 269.679 32.3418C269.948 32.4619 270.177 32.6318 270.364 32.8516C270.555 33.0684 270.7 33.3247 270.799 33.6206C270.899 33.9136 270.949 34.2314 270.949 34.5742V34.6753C270.949 35.0181 270.899 35.3359 270.799 35.6289C270.7 35.9219 270.555 36.1782 270.364 36.3979C270.177 36.6147 269.95 36.7847 269.683 36.9077C269.419 37.0278 269.121 37.0879 268.787 37.0879C268.453 37.0879 268.152 37.0278 267.886 36.9077C267.619 36.7847 267.391 36.6147 267.2 36.3979C267.013 36.1782 266.869 35.9219 266.77 35.6289C266.67 35.3359 266.62 35.0181 266.62 34.6753ZM267.433 34.5742V34.6753C267.433 34.9126 267.461 35.1367 267.517 35.3477C267.572 35.5557 267.656 35.7402 267.767 35.9014C267.881 36.0625 268.023 36.1899 268.193 36.2837C268.363 36.3745 268.561 36.4199 268.787 36.4199C269.009 36.4199 269.204 36.3745 269.371 36.2837C269.541 36.1899 269.682 36.0625 269.793 35.9014C269.904 35.7402 269.988 35.5557 270.043 35.3477C270.102 35.1367 270.131 34.9126 270.131 34.6753V34.5742C270.131 34.3398 270.102 34.1187 270.043 33.9106C269.988 33.6997 269.903 33.5137 269.789 33.3525C269.677 33.1885 269.537 33.0596 269.367 32.9658C269.2 32.8721 269.003 32.8252 268.778 32.8252C268.555 32.8252 268.359 32.8721 268.189 32.9658C268.022 33.0596 267.881 33.1885 267.767 33.3525C267.656 33.5137 267.572 33.6997 267.517 33.9106C267.461 34.1187 267.433 34.3398 267.433 34.5742ZM272.777 33.1899V37H271.959V32.2451H272.733L272.777 33.1899ZM272.61 34.4424L272.232 34.4292C272.235 34.104 272.277 33.8037 272.359 33.5283C272.441 33.25 272.563 33.0083 272.724 32.8032C272.885 32.5981 273.086 32.4399 273.326 32.3286C273.566 32.2144 273.845 32.1572 274.161 32.1572C274.384 32.1572 274.589 32.1895 274.776 32.2539C274.964 32.3154 275.126 32.4136 275.264 32.5483C275.402 32.6831 275.509 32.856 275.585 33.0669C275.661 33.2778 275.699 33.5327 275.699 33.8315V37H274.886V33.8711C274.886 33.6221 274.844 33.4229 274.759 33.2734C274.677 33.124 274.56 33.0156 274.407 32.9482C274.255 32.8779 274.076 32.8428 273.871 32.8428C273.631 32.8428 273.43 32.8853 273.269 32.9702C273.108 33.0552 272.979 33.1724 272.882 33.3218C272.786 33.4712 272.715 33.6426 272.671 33.8359C272.63 34.0264 272.61 34.2285 272.61 34.4424ZM275.69 33.9941L275.146 34.1611C275.148 33.9004 275.191 33.6499 275.273 33.4097C275.358 33.1694 275.479 32.9556 275.638 32.7681C275.799 32.5806 275.997 32.4326 276.231 32.3242C276.465 32.2129 276.733 32.1572 277.035 32.1572C277.29 32.1572 277.516 32.1909 277.712 32.2583C277.911 32.3257 278.078 32.4297 278.213 32.5703C278.351 32.708 278.455 32.8853 278.525 33.1021C278.595 33.3188 278.63 33.5767 278.63 33.8755V37H277.813V33.8667C277.813 33.6001 277.771 33.3936 277.686 33.2471C277.604 33.0977 277.486 32.9937 277.334 32.9351C277.185 32.8735 277.006 32.8428 276.798 32.8428C276.619 32.8428 276.461 32.8735 276.323 32.9351C276.186 32.9966 276.07 33.0815 275.976 33.1899C275.882 33.2954 275.811 33.417 275.761 33.5547C275.714 33.6924 275.69 33.8389 275.69 33.9941ZM280.669 33.1899V37H279.852V32.2451H280.625L280.669 33.1899ZM280.502 34.4424L280.125 34.4292C280.127 34.104 280.17 33.8037 280.252 33.5283C280.334 33.25 280.456 33.0083 280.617 32.8032C280.778 32.5981 280.979 32.4399 281.219 32.3286C281.459 32.2144 281.737 32.1572 282.054 32.1572C282.276 32.1572 282.481 32.1895 282.669 32.2539C282.856 32.3154 283.019 32.4136 283.157 32.5483C283.294 32.6831 283.401 32.856 283.478 33.0669C283.554 33.2778 283.592 33.5327 283.592 33.8315V37H282.779V33.8711C282.779 33.6221 282.736 33.4229 282.651 33.2734C282.569 33.124 282.452 33.0156 282.3 32.9482C282.147 32.8779 281.969 32.8428 281.764 32.8428C281.523 32.8428 281.323 32.8853 281.162 32.9702C281 33.0552 280.872 33.1724 280.775 33.3218C280.678 33.4712 280.608 33.6426 280.564 33.8359C280.523 34.0264 280.502 34.2285 280.502 34.4424ZM283.583 33.9941L283.038 34.1611C283.041 33.9004 283.083 33.6499 283.166 33.4097C283.25 33.1694 283.372 32.9556 283.53 32.7681C283.691 32.5806 283.889 32.4326 284.124 32.3242C284.358 32.2129 284.626 32.1572 284.928 32.1572C285.183 32.1572 285.408 32.1909 285.604 32.2583C285.804 32.3257 285.971 32.4297 286.105 32.5703C286.243 32.708 286.347 32.8853 286.417 33.1021C286.488 33.3188 286.523 33.5767 286.523 33.8755V37H285.706V33.8667C285.706 33.6001 285.663 33.3936 285.578 33.2471C285.496 33.0977 285.379 32.9937 285.227 32.9351C285.077 32.8735 284.898 32.8428 284.69 32.8428C284.512 32.8428 284.354 32.8735 284.216 32.9351C284.078 32.9966 283.962 33.0815 283.869 33.1899C283.775 33.2954 283.703 33.417 283.653 33.5547C283.606 33.6924 283.583 33.8389 283.583 33.9941ZM289.727 37.0879C289.396 37.0879 289.095 37.0322 288.826 36.9209C288.559 36.8066 288.329 36.647 288.136 36.4419C287.945 36.2368 287.799 35.9937 287.696 35.7124C287.594 35.4312 287.542 35.1235 287.542 34.7896V34.605C287.542 34.2183 287.6 33.874 287.714 33.5723C287.828 33.2676 287.983 33.0098 288.18 32.7988C288.376 32.5879 288.599 32.4282 288.848 32.3198C289.097 32.2114 289.354 32.1572 289.621 32.1572C289.961 32.1572 290.254 32.2158 290.5 32.333C290.749 32.4502 290.953 32.6143 291.111 32.8252C291.269 33.0332 291.386 33.2793 291.462 33.5635C291.539 33.8447 291.577 34.1523 291.577 34.4863V34.8511H288.026V34.1875H290.764V34.126C290.752 33.915 290.708 33.71 290.632 33.5107C290.559 33.3115 290.441 33.1475 290.28 33.0186C290.119 32.8896 289.899 32.8252 289.621 32.8252C289.437 32.8252 289.267 32.8647 289.111 32.9438C288.956 33.02 288.823 33.1343 288.711 33.2866C288.6 33.439 288.514 33.625 288.452 33.8447C288.391 34.0645 288.36 34.3179 288.36 34.605V34.7896C288.36 35.0151 288.391 35.2275 288.452 35.4268C288.517 35.623 288.609 35.7959 288.729 35.9453C288.852 36.0947 289 36.2119 289.173 36.2969C289.349 36.3818 289.548 36.4243 289.771 36.4243C290.058 36.4243 290.301 36.3657 290.5 36.2485C290.699 36.1313 290.874 35.9746 291.023 35.7783L291.515 36.1694C291.413 36.3247 291.282 36.4727 291.124 36.6133C290.966 36.7539 290.771 36.8682 290.54 36.9561C290.311 37.0439 290.04 37.0879 289.727 37.0879ZM293.339 33.2603V37H292.526V32.2451H293.295L293.339 33.2603ZM293.146 34.4424L292.807 34.4292C292.81 34.104 292.858 33.8037 292.952 33.5283C293.046 33.25 293.178 33.0083 293.348 32.8032C293.518 32.5981 293.72 32.4399 293.954 32.3286C294.191 32.2144 294.454 32.1572 294.741 32.1572C294.975 32.1572 295.186 32.1895 295.374 32.2539C295.561 32.3154 295.721 32.415 295.853 32.5527C295.987 32.6904 296.09 32.8691 296.16 33.0889C296.23 33.3057 296.266 33.5708 296.266 33.8843V37H295.448V33.8755C295.448 33.6265 295.412 33.4272 295.338 33.2778C295.265 33.1255 295.158 33.0156 295.018 32.9482C294.877 32.8779 294.704 32.8428 294.499 32.8428C294.297 32.8428 294.112 32.8853 293.945 32.9702C293.781 33.0552 293.639 33.1724 293.519 33.3218C293.402 33.4712 293.31 33.6426 293.242 33.8359C293.178 34.0264 293.146 34.2285 293.146 34.4424ZM300.498 36.0771V30.25H301.315V37H300.568L300.498 36.0771ZM297.298 34.6753V34.583C297.298 34.2197 297.342 33.8901 297.43 33.5942C297.521 33.2954 297.648 33.0391 297.812 32.8252C297.979 32.6113 298.177 32.4473 298.406 32.333C298.637 32.2158 298.895 32.1572 299.179 32.1572C299.478 32.1572 299.739 32.21 299.961 32.3154C300.187 32.418 300.377 32.5688 300.533 32.7681C300.691 32.9644 300.815 33.2017 300.906 33.48C300.997 33.7583 301.06 34.0732 301.095 34.4248V34.8291C301.063 35.1777 301 35.4912 300.906 35.7695C300.815 36.0479 300.691 36.2852 300.533 36.4814C300.377 36.6777 300.187 36.8286 299.961 36.9341C299.736 37.0366 299.472 37.0879 299.17 37.0879C298.892 37.0879 298.637 37.0278 298.406 36.9077C298.177 36.7876 297.979 36.6191 297.812 36.4023C297.648 36.1855 297.521 35.9307 297.43 35.6377C297.342 35.3418 297.298 35.021 297.298 34.6753ZM298.116 34.583V34.6753C298.116 34.9126 298.139 35.1353 298.186 35.3433C298.236 35.5513 298.312 35.7344 298.415 35.8926C298.517 36.0508 298.647 36.1753 298.806 36.2661C298.964 36.354 299.153 36.3979 299.373 36.3979C299.642 36.3979 299.863 36.3408 300.036 36.2266C300.212 36.1123 300.353 35.9614 300.458 35.7739C300.563 35.5864 300.646 35.3828 300.704 35.1631V34.104C300.669 33.9429 300.618 33.7876 300.55 33.6382C300.486 33.4858 300.401 33.3511 300.295 33.2339C300.193 33.1138 300.065 33.0186 299.913 32.9482C299.764 32.8779 299.586 32.8428 299.381 32.8428C299.159 32.8428 298.967 32.8896 298.806 32.9834C298.647 33.0742 298.517 33.2002 298.415 33.3613C298.312 33.5195 298.236 33.7041 298.186 33.915C298.139 34.123 298.116 34.3457 298.116 34.583ZM304.554 37.0879C304.223 37.0879 303.922 37.0322 303.653 36.9209C303.386 36.8066 303.156 36.647 302.963 36.4419C302.772 36.2368 302.626 35.9937 302.523 35.7124C302.421 35.4312 302.37 35.1235 302.37 34.7896V34.605C302.37 34.2183 302.427 33.874 302.541 33.5723C302.655 33.2676 302.811 33.0098 303.007 32.7988C303.203 32.5879 303.426 32.4282 303.675 32.3198C303.924 32.2114 304.182 32.1572 304.448 32.1572C304.788 32.1572 305.081 32.2158 305.327 32.333C305.576 32.4502 305.78 32.6143 305.938 32.8252C306.096 33.0332 306.213 33.2793 306.29 33.5635C306.366 33.8447 306.404 34.1523 306.404 34.4863V34.8511H302.853V34.1875H305.591V34.126C305.579 33.915 305.535 33.71 305.459 33.5107C305.386 33.3115 305.269 33.1475 305.107 33.0186C304.946 32.8896 304.727 32.8252 304.448 32.8252C304.264 32.8252 304.094 32.8647 303.938 32.9438C303.783 33.02 303.65 33.1343 303.539 33.2866C303.427 33.439 303.341 33.625 303.279 33.8447C303.218 34.0645 303.187 34.3179 303.187 34.605V34.7896C303.187 35.0151 303.218 35.2275 303.279 35.4268C303.344 35.623 303.436 35.7959 303.556 35.9453C303.679 36.0947 303.827 36.2119 304 36.2969C304.176 36.3818 304.375 36.4243 304.598 36.4243C304.885 36.4243 305.128 36.3657 305.327 36.2485C305.526 36.1313 305.701 35.9746 305.85 35.7783L306.342 36.1694C306.24 36.3247 306.109 36.4727 305.951 36.6133C305.793 36.7539 305.598 36.8682 305.367 36.9561C305.138 37.0439 304.867 37.0879 304.554 37.0879ZM310.35 36.0771V30.25H311.167V37H310.42L310.35 36.0771ZM307.151 34.6753V34.583C307.151 34.2197 307.195 33.8901 307.283 33.5942C307.374 33.2954 307.501 33.0391 307.665 32.8252C307.832 32.6113 308.03 32.4473 308.258 32.333C308.49 32.2158 308.748 32.1572 309.032 32.1572C309.331 32.1572 309.591 32.21 309.814 32.3154C310.04 32.418 310.23 32.5688 310.385 32.7681C310.543 32.9644 310.668 33.2017 310.759 33.48C310.85 33.7583 310.913 34.0732 310.948 34.4248V34.8291C310.916 35.1777 310.853 35.4912 310.759 35.7695C310.668 36.0479 310.543 36.2852 310.385 36.4814C310.23 36.6777 310.04 36.8286 309.814 36.9341C309.588 37.0366 309.325 37.0879 309.023 37.0879C308.745 37.0879 308.49 37.0278 308.258 36.9077C308.03 36.7876 307.832 36.6191 307.665 36.4023C307.501 36.1855 307.374 35.9307 307.283 35.6377C307.195 35.3418 307.151 35.021 307.151 34.6753ZM307.968 34.583V34.6753C307.968 34.9126 307.992 35.1353 308.039 35.3433C308.088 35.5513 308.165 35.7344 308.267 35.8926C308.37 36.0508 308.5 36.1753 308.658 36.2661C308.816 36.354 309.005 36.3979 309.225 36.3979C309.495 36.3979 309.716 36.3408 309.889 36.2266C310.064 36.1123 310.205 35.9614 310.311 35.7739C310.416 35.5864 310.498 35.3828 310.557 35.1631V34.104C310.521 33.9429 310.47 33.7876 310.403 33.6382C310.338 33.4858 310.253 33.3511 310.148 33.2339C310.045 33.1138 309.918 33.0186 309.766 32.9482C309.616 32.8779 309.439 32.8428 309.234 32.8428C309.011 32.8428 308.819 32.8896 308.658 32.9834C308.5 33.0742 308.37 33.2002 308.267 33.3613C308.165 33.5195 308.088 33.7041 308.039 33.915C307.992 34.123 307.968 34.3457 307.968 34.583Z" fill="white"/>
<defs>
<filter id="filter0_d_222_1436" x="-3" y="0" width="360" height="456" filterUnits="userSpaceOnUse" color-interpolation-filters="sRGB">
<feFlood flood-opacity="0" result="BackgroundImageFix"/>
<feColorMatrix in="SourceAlpha" type="matrix" values="0 0 0 0 0 0 0 0 0 0 0 0 0 0 0 0 0 0 127 0" result="hardAlpha"/>
<feOffset dy="9"/>
<feGaussianBlur stdDeviation="17"/>
<feColorMatrix type="matrix" values="0 0 0 0 0.904167 0 0 0 0 0.936682 0 0 0 0 1 0 0 0 1 0"/>
<feBlend mode="normal" in2="BackgroundImageFix" result="effect1_dropShadow_222_1436"/>
<feBlend mode="normal" in="SourceGraphic" in2="effect1_dropShadow_222_1436" result="shape"/>
</filter>
<linearGradient id="paint0_linear_222_1436" x1="82" y1="37.8194" x2="82" y2="111.819" gradientUnits="userSpaceOnUse">
<stop stop-color="#FECC6C"/>
<stop offset="1" stop-color="#FEAB39"/>
</linearGradient>
<linearGradient id="paint1_linear_222_1436" x1="281" y1="25" x2="281" y2="43" gradientUnits="userSpaceOnUse">
<stop stop-color="#FF896C"/>
<stop offset="1" stop-color="#F96352"/>
</linearGradient>
</defs>
</svg>
