<svg width="349" height="158" viewBox="0 0 349 158" fill="none" xmlns="http://www.w3.org/2000/svg">
<rect x="0.75" y="0.75" width="347.5" height="156.5" rx="12.25" fill="#FBE4E4" stroke="#FF2E2E" stroke-width="0.5" stroke-linecap="round" stroke-linejoin="round" stroke-dasharray="2 5"/>
<g opacity="0.2">
<path d="M327 148C332.523 148 337 143.523 337 138C337 132.477 332.523 128 327 128C321.477 128 317 132.477 317 138C317 143.523 321.477 148 327 148Z" stroke="#A47D75" stroke-width="2" stroke-linecap="round" stroke-linejoin="round"/>
<path d="M329.31 134L335.05 143.94" stroke="#A47D75" stroke-width="2" stroke-linecap="round" stroke-linejoin="round"/>
<path d="M324.69 134H336.17" stroke="#A47D75" stroke-width="2" stroke-linecap="round" stroke-linejoin="round"/>
<path d="M322.38 138L328.12 128.06" stroke="#A47D75" stroke-width="2" stroke-linecap="round" stroke-linejoin="round"/>
<path d="M324.69 142L318.95 132.06" stroke="#A47D75" stroke-width="2" stroke-linecap="round" stroke-linejoin="round"/>
<path d="M329.31 142H317.83" stroke="#A47D75" stroke-width="2" stroke-linecap="round" stroke-linejoin="round"/>
<path d="M331.62 138L325.88 147.94" stroke="#A47D75" stroke-width="2" stroke-linecap="round" stroke-linejoin="round"/>
</g>
<path d="M136.924 85.5205L134.57 92H133.608L136.318 84.8906H136.938L136.924 85.5205ZM138.896 92L136.538 85.5205L136.523 84.8906H137.144L139.863 92H138.896ZM138.774 89.3682V90.1396H134.78V89.3682H138.774ZM142.739 92H141.255L141.265 91.2334H142.739C143.247 91.2334 143.67 91.1276 144.009 90.916C144.347 90.7012 144.601 90.4017 144.771 90.0176C144.943 89.6302 145.029 89.1777 145.029 88.6602V88.2256C145.029 87.8187 144.98 87.4574 144.883 87.1416C144.785 86.8226 144.642 86.554 144.453 86.3359C144.264 86.1146 144.033 85.9469 143.76 85.833C143.49 85.7191 143.179 85.6621 142.827 85.6621H141.226V84.8906H142.827C143.293 84.8906 143.717 84.9688 144.102 85.125C144.486 85.278 144.816 85.501 145.093 85.7939C145.373 86.0837 145.588 86.4352 145.737 86.8486C145.887 87.2588 145.962 87.721 145.962 88.2354V88.6602C145.962 89.1745 145.887 89.6383 145.737 90.0518C145.588 90.4619 145.371 90.8118 145.088 91.1016C144.808 91.3913 144.469 91.6143 144.072 91.7705C143.678 91.9235 143.234 92 142.739 92ZM141.758 84.8906V92H140.815V84.8906H141.758ZM149.302 92H147.817L147.827 91.2334H149.302C149.81 91.2334 150.233 91.1276 150.571 90.916C150.91 90.7012 151.164 90.4017 151.333 90.0176C151.506 89.6302 151.592 89.1777 151.592 88.6602V88.2256C151.592 87.8187 151.543 87.4574 151.445 87.1416C151.348 86.8226 151.204 86.554 151.016 86.3359C150.827 86.1146 150.596 85.9469 150.322 85.833C150.052 85.7191 149.741 85.6621 149.39 85.6621H147.788V84.8906H149.39C149.855 84.8906 150.28 84.9688 150.664 85.125C151.048 85.278 151.379 85.501 151.655 85.7939C151.935 86.0837 152.15 86.4352 152.3 86.8486C152.45 87.2588 152.524 87.721 152.524 88.2354V88.6602C152.524 89.1745 152.45 89.6383 152.3 90.0518C152.15 90.4619 151.934 90.8118 151.65 91.1016C151.37 91.3913 151.032 91.6143 150.635 91.7705C150.241 91.9235 149.797 92 149.302 92ZM148.32 84.8906V92H147.378V84.8906H148.32ZM159.043 89.2119H157.144V88.4453H159.043C159.411 88.4453 159.709 88.3867 159.937 88.2695C160.164 88.1523 160.33 87.9896 160.435 87.7812C160.542 87.5729 160.596 87.3353 160.596 87.0684C160.596 86.8242 160.542 86.5947 160.435 86.3799C160.33 86.165 160.164 85.9925 159.937 85.8623C159.709 85.7288 159.411 85.6621 159.043 85.6621H157.363V92H156.421V84.8906H159.043C159.58 84.8906 160.034 84.9834 160.405 85.1689C160.776 85.3545 161.058 85.6117 161.25 85.9404C161.442 86.266 161.538 86.6387 161.538 87.0586C161.538 87.5143 161.442 87.9033 161.25 88.2256C161.058 88.5479 160.776 88.7936 160.405 88.9629C160.034 89.1289 159.58 89.2119 159.043 89.2119ZM163.496 84.5V92H162.593V84.5H163.496ZM163.281 89.1582L162.905 89.1436C162.909 88.7822 162.962 88.4486 163.066 88.1426C163.171 87.8333 163.317 87.5648 163.506 87.3369C163.695 87.109 163.919 86.9333 164.18 86.8096C164.443 86.6826 164.735 86.6191 165.054 86.6191C165.314 86.6191 165.549 86.6549 165.757 86.7266C165.965 86.7949 166.143 86.9056 166.289 87.0586C166.439 87.2116 166.553 87.4102 166.631 87.6543C166.709 87.8952 166.748 88.1898 166.748 88.5381V92H165.84V88.5283C165.84 88.2516 165.799 88.0303 165.718 87.8643C165.636 87.695 165.518 87.5729 165.361 87.498C165.205 87.4199 165.013 87.3809 164.785 87.3809C164.561 87.3809 164.355 87.4281 164.17 87.5225C163.988 87.6169 163.83 87.7471 163.696 87.9131C163.566 88.0791 163.464 88.2695 163.389 88.4844C163.317 88.696 163.281 88.9206 163.281 89.1582ZM167.861 89.417V89.3047C167.861 88.9238 167.917 88.5706 168.027 88.2451C168.138 87.9163 168.298 87.6315 168.506 87.3906C168.714 87.1465 168.966 86.9577 169.263 86.8242C169.559 86.6875 169.891 86.6191 170.259 86.6191C170.63 86.6191 170.964 86.6875 171.26 86.8242C171.559 86.9577 171.813 87.1465 172.021 87.3906C172.233 87.6315 172.394 87.9163 172.505 88.2451C172.616 88.5706 172.671 88.9238 172.671 89.3047V89.417C172.671 89.7979 172.616 90.151 172.505 90.4766C172.394 90.8021 172.233 91.0869 172.021 91.3311C171.813 91.5719 171.561 91.7607 171.265 91.8975C170.972 92.0309 170.64 92.0977 170.269 92.0977C169.897 92.0977 169.564 92.0309 169.268 91.8975C168.971 91.7607 168.717 91.5719 168.506 91.3311C168.298 91.0869 168.138 90.8021 168.027 90.4766C167.917 90.151 167.861 89.7979 167.861 89.417ZM168.765 89.3047V89.417C168.765 89.6807 168.796 89.9297 168.857 90.1641C168.919 90.3952 169.012 90.6003 169.136 90.7793C169.263 90.9583 169.421 91.0999 169.609 91.2041C169.798 91.305 170.018 91.3555 170.269 91.3555C170.516 91.3555 170.732 91.305 170.918 91.2041C171.107 91.0999 171.263 90.9583 171.387 90.7793C171.51 90.6003 171.603 90.3952 171.665 90.1641C171.73 89.9297 171.763 89.6807 171.763 89.417V89.3047C171.763 89.0443 171.73 88.7985 171.665 88.5674C171.603 88.333 171.509 88.1263 171.382 87.9473C171.258 87.765 171.102 87.6217 170.913 87.5176C170.728 87.4134 170.509 87.3613 170.259 87.3613C170.011 87.3613 169.793 87.4134 169.604 87.5176C169.419 87.6217 169.263 87.765 169.136 87.9473C169.012 88.1263 168.919 88.333 168.857 88.5674C168.796 88.7985 168.765 89.0443 168.765 89.3047ZM176.016 86.7168V87.4102H173.159V86.7168H176.016ZM174.126 85.4326H175.029V90.6914C175.029 90.8704 175.057 91.0055 175.112 91.0967C175.168 91.1878 175.239 91.248 175.327 91.2773C175.415 91.3066 175.509 91.3213 175.61 91.3213C175.685 91.3213 175.763 91.3148 175.845 91.3018C175.929 91.2855 175.993 91.2725 176.035 91.2627L176.04 92C175.968 92.0228 175.874 92.0439 175.757 92.0635C175.643 92.0863 175.505 92.0977 175.342 92.0977C175.12 92.0977 174.917 92.0537 174.731 91.9658C174.546 91.8779 174.398 91.7314 174.287 91.5264C174.18 91.318 174.126 91.0381 174.126 90.6865V85.4326ZM176.738 89.417V89.3047C176.738 88.9238 176.794 88.5706 176.904 88.2451C177.015 87.9163 177.174 87.6315 177.383 87.3906C177.591 87.1465 177.843 86.9577 178.14 86.8242C178.436 86.6875 178.768 86.6191 179.136 86.6191C179.507 86.6191 179.84 86.6875 180.137 86.8242C180.436 86.9577 180.69 87.1465 180.898 87.3906C181.11 87.6315 181.271 87.9163 181.382 88.2451C181.493 88.5706 181.548 88.9238 181.548 89.3047V89.417C181.548 89.7979 181.493 90.151 181.382 90.4766C181.271 90.8021 181.11 91.0869 180.898 91.3311C180.69 91.5719 180.438 91.7607 180.142 91.8975C179.849 92.0309 179.517 92.0977 179.146 92.0977C178.774 92.0977 178.441 92.0309 178.145 91.8975C177.848 91.7607 177.594 91.5719 177.383 91.3311C177.174 91.0869 177.015 90.8021 176.904 90.4766C176.794 90.151 176.738 89.7979 176.738 89.417ZM177.642 89.3047V89.417C177.642 89.6807 177.673 89.9297 177.734 90.1641C177.796 90.3952 177.889 90.6003 178.013 90.7793C178.14 90.9583 178.298 91.0999 178.486 91.2041C178.675 91.305 178.895 91.3555 179.146 91.3555C179.393 91.3555 179.609 91.305 179.795 91.2041C179.984 91.0999 180.14 90.9583 180.264 90.7793C180.387 90.6003 180.48 90.3952 180.542 90.1641C180.607 89.9297 180.64 89.6807 180.64 89.417V89.3047C180.64 89.0443 180.607 88.7985 180.542 88.5674C180.48 88.333 180.386 88.1263 180.259 87.9473C180.135 87.765 179.979 87.6217 179.79 87.5176C179.604 87.4134 179.386 87.3613 179.136 87.3613C178.888 87.3613 178.67 87.4134 178.481 87.5176C178.296 87.6217 178.14 87.765 178.013 87.9473C177.889 88.1263 177.796 88.333 177.734 88.5674C177.673 88.7985 177.642 89.0443 177.642 89.3047ZM188.306 84.8906L185.342 92.6104H184.565L187.534 84.8906H188.306ZM194.204 90.9209L196.299 84.8906H197.319L194.688 92H193.96L194.204 90.9209ZM192.246 84.8906L194.321 90.9209L194.58 92H193.853L191.226 84.8906H192.246ZM199.121 86.7168V92H198.213V86.7168H199.121ZM198.145 85.3154C198.145 85.1689 198.188 85.0452 198.276 84.9443C198.368 84.8434 198.501 84.793 198.677 84.793C198.849 84.793 198.981 84.8434 199.072 84.9443C199.167 85.0452 199.214 85.1689 199.214 85.3154C199.214 85.4554 199.167 85.5758 199.072 85.6768C198.981 85.7744 198.849 85.8232 198.677 85.8232C198.501 85.8232 198.368 85.7744 198.276 85.6768C198.188 85.5758 198.145 85.4554 198.145 85.3154ZM203.901 90.9746V84.5H204.81V92H203.979L203.901 90.9746ZM200.347 89.417V89.3145C200.347 88.9108 200.396 88.5446 200.493 88.2158C200.594 87.8838 200.736 87.599 200.918 87.3613C201.104 87.1237 201.323 86.9414 201.577 86.8145C201.834 86.6842 202.121 86.6191 202.437 86.6191C202.769 86.6191 203.058 86.6777 203.306 86.7949C203.556 86.9089 203.768 87.0765 203.94 87.2979C204.116 87.516 204.255 87.7796 204.355 88.0889C204.456 88.3981 204.526 88.748 204.565 89.1387V89.5879C204.53 89.9753 204.46 90.3236 204.355 90.6328C204.255 90.9421 204.116 91.2057 203.94 91.4238C203.768 91.6419 203.556 91.8096 203.306 91.9268C203.055 92.0407 202.762 92.0977 202.427 92.0977C202.118 92.0977 201.834 92.0309 201.577 91.8975C201.323 91.764 201.104 91.5768 200.918 91.3359C200.736 91.0951 200.594 90.8118 200.493 90.4863C200.396 90.1576 200.347 89.8011 200.347 89.417ZM201.255 89.3145V89.417C201.255 89.6807 201.281 89.9281 201.333 90.1592C201.388 90.3903 201.473 90.5938 201.587 90.7695C201.701 90.9453 201.846 91.0837 202.021 91.1846C202.197 91.2822 202.407 91.3311 202.651 91.3311C202.951 91.3311 203.197 91.2676 203.389 91.1406C203.584 91.0137 203.74 90.846 203.857 90.6377C203.975 90.4294 204.066 90.2031 204.131 89.959V88.7822C204.092 88.6032 204.035 88.4307 203.96 88.2646C203.888 88.0954 203.794 87.9456 203.677 87.8154C203.563 87.682 203.421 87.5762 203.252 87.498C203.086 87.4199 202.889 87.3809 202.661 87.3809C202.414 87.3809 202.201 87.4329 202.021 87.5371C201.846 87.638 201.701 87.778 201.587 87.957C201.473 88.1328 201.388 88.3379 201.333 88.5723C201.281 88.8034 201.255 89.0508 201.255 89.3145ZM208.408 92.0977C208.04 92.0977 207.707 92.0358 207.407 91.9121C207.111 91.7852 206.855 91.6077 206.641 91.3799C206.429 91.152 206.266 90.8818 206.152 90.5693C206.038 90.2568 205.981 89.915 205.981 89.5439V89.3389C205.981 88.9092 206.045 88.5267 206.172 88.1914C206.299 87.8529 206.471 87.5664 206.689 87.332C206.908 87.0977 207.155 86.9202 207.432 86.7998C207.708 86.6794 207.995 86.6191 208.291 86.6191C208.669 86.6191 208.994 86.6842 209.268 86.8145C209.544 86.9447 209.771 87.127 209.946 87.3613C210.122 87.5924 210.252 87.8659 210.337 88.1816C210.422 88.4941 210.464 88.8359 210.464 89.207V89.6123H206.519V88.875H209.561V88.8066C209.548 88.5723 209.499 88.3444 209.414 88.123C209.333 87.9017 209.202 87.7194 209.023 87.5762C208.844 87.4329 208.6 87.3613 208.291 87.3613C208.086 87.3613 207.897 87.4053 207.725 87.4932C207.552 87.5778 207.404 87.7048 207.28 87.874C207.157 88.0433 207.061 88.25 206.992 88.4941C206.924 88.7383 206.89 89.0199 206.89 89.3389V89.5439C206.89 89.7946 206.924 90.0306 206.992 90.252C207.064 90.4701 207.166 90.6621 207.3 90.8281C207.437 90.9941 207.601 91.1243 207.793 91.2188C207.988 91.3132 208.21 91.3604 208.457 91.3604C208.776 91.3604 209.046 91.2952 209.268 91.165C209.489 91.0348 209.683 90.8607 209.849 90.6426L210.396 91.0771C210.282 91.2497 210.137 91.4141 209.961 91.5703C209.785 91.7266 209.569 91.8535 209.312 91.9512C209.058 92.0488 208.757 92.0977 208.408 92.0977ZM211.279 89.417V89.3047C211.279 88.9238 211.335 88.5706 211.445 88.2451C211.556 87.9163 211.715 87.6315 211.924 87.3906C212.132 87.1465 212.384 86.9577 212.681 86.8242C212.977 86.6875 213.309 86.6191 213.677 86.6191C214.048 86.6191 214.382 86.6875 214.678 86.8242C214.977 86.9577 215.231 87.1465 215.439 87.3906C215.651 87.6315 215.812 87.9163 215.923 88.2451C216.034 88.5706 216.089 88.9238 216.089 89.3047V89.417C216.089 89.7979 216.034 90.151 215.923 90.4766C215.812 90.8021 215.651 91.0869 215.439 91.3311C215.231 91.5719 214.979 91.7607 214.683 91.8975C214.39 92.0309 214.058 92.0977 213.687 92.0977C213.315 92.0977 212.982 92.0309 212.686 91.8975C212.389 91.7607 212.135 91.5719 211.924 91.3311C211.715 91.0869 211.556 90.8021 211.445 90.4766C211.335 90.151 211.279 89.7979 211.279 89.417ZM212.183 89.3047V89.417C212.183 89.6807 212.214 89.9297 212.275 90.1641C212.337 90.3952 212.43 90.6003 212.554 90.7793C212.681 90.9583 212.839 91.0999 213.027 91.2041C213.216 91.305 213.436 91.3555 213.687 91.3555C213.934 91.3555 214.15 91.305 214.336 91.2041C214.525 91.0999 214.681 90.9583 214.805 90.7793C214.928 90.6003 215.021 90.3952 215.083 90.1641C215.148 89.9297 215.181 89.6807 215.181 89.417V89.3047C215.181 89.0443 215.148 88.7985 215.083 88.5674C215.021 88.333 214.927 88.1263 214.8 87.9473C214.676 87.765 214.52 87.6217 214.331 87.5176C214.146 87.4134 213.927 87.3613 213.677 87.3613C213.429 87.3613 213.211 87.4134 213.022 87.5176C212.837 87.6217 212.681 87.765 212.554 87.9473C212.43 88.1263 212.337 88.333 212.275 88.5674C212.214 88.7985 212.183 89.0443 212.183 89.3047Z" fill="#A47D75"/>
<path d="M175 63V77" stroke="#FF2E2E" stroke-width="2" stroke-linecap="round" stroke-linejoin="round"/>
<path d="M168 70H182" stroke="#FF2E2E" stroke-width="2" stroke-linecap="round" stroke-linejoin="round"/>
</svg>
