<svg width="20" height="20" viewBox="0 0 20 20" fill="none" xmlns="http://www.w3.org/2000/svg">
<path fill-rule="evenodd" clip-rule="evenodd" d="M17.4333 7.87777H12.6555V3.09999C12.6555 1.78611 11.5805 0.711105 10.2666 0.711105C8.95273 0.711105 7.87773 1.78611 7.87773 3.09999V7.87777H3.09995C1.78606 7.87777 0.71106 8.95277 0.71106 10.2667C0.71106 11.5805 1.78606 12.6556 3.09995 12.6556H7.87773V17.4333C7.87773 18.7472 8.95273 19.8222 10.2666 19.8222C11.5805 19.8222 12.6555 18.7472 12.6555 17.4333V12.6556H17.4333C18.7472 12.6556 19.8222 11.5805 19.8222 10.2667C19.8222 8.95277 18.7472 7.87777 17.4333 7.87777Z" fill="#B3DDE8"/>
</svg>
