<svg width="29" height="33" viewBox="0 0 29 33" fill="none" xmlns="http://www.w3.org/2000/svg">
<rect width="29" height="32.0851" rx="5" fill="#F4F5F9"/>
<path d="M2 8.63809H28V10.8506H2V8.63809Z" fill="#F5F5F5"/>
<path d="M3.35761 4.2128H26.6422C27.1352 4.85262 27.5146 5.60284 27.7454 6.42559H2.25449C2.48524 5.60284 2.86463 4.85262 3.35761 4.2128Z" fill="#F5F5F5"/>
<path d="M2 13.0637H28V15.2762H2V13.0637Z" fill="#F5F5F5"/>
<path d="M2 17.4893H28V19.7018H2V17.4893Z" fill="#F5F5F5"/>
<path d="M2 21.9148H28V24.1273H2V21.9148Z" fill="#F5F5F5"/>
<path d="M2.25449 26.3405H27.7454C27.5147 27.1632 27.1352 27.9134 26.6422 28.5532H3.35767C2.86463 27.9134 2.48524 27.1632 2.25449 26.3405Z" fill="#F5F5F5"/>
<path d="M7.68752 2H22.3125C24.0466 2 25.5991 2.85888 26.6423 4.21279H3.35776C4.40091 2.85888 5.95344 2 7.68752 2Z" fill="#FF4B55"/>
<path d="M2 10.8511H28V13.0636H2V10.8511Z" fill="#FF4B55"/>
<path d="M2 8.29255C2 7.64245 2.08912 7.01544 2.25457 6.42557H27.7454C27.9109 7.01544 28 7.64245 28 8.29255V8.6383H2V8.29255Z" fill="#FF4B55"/>
<path d="M2 15.2767H28V17.4892H2V15.2767Z" fill="#FF4B55"/>
<path d="M2 24.4734V24.1277H28V24.4734C28 25.1235 27.9109 25.7505 27.7454 26.3404H2.25457C2.08912 25.7505 2 25.1235 2 24.4734Z" fill="#FF4B55"/>
<path d="M3.35771 28.5532H26.6423C25.5991 29.9071 24.0466 30.7659 22.3125 30.7659H7.68752C5.95344 30.7659 4.40091 29.9071 3.35771 28.5532Z" fill="#FF4B55"/>
<path d="M2 19.7023H28V21.9148H2V19.7023Z" fill="#FF4B55"/>
<path d="M14 2H22.3125C25.4536 2 28 4.81727 28 8.29255V17.4893H14V2Z" fill="#41479B"/>
<path d="M26.4892 4.41946C26.5025 4.46604 26.4546 4.50458 26.4186 4.47615L26.1412 4.25681L25.8638 4.47615C25.8279 4.50458 25.78 4.46604 25.7933 4.41946L25.8961 4.05977L25.6218 3.83566C25.5863 3.80661 25.6046 3.7443 25.6488 3.74391L25.9897 3.74099L26.0479 3.54794C26.194 3.68891 26.3334 3.83813 26.4658 3.99471L26.3862 4.05977L26.4892 4.41946Z" fill="#F5F5F5"/>
<path d="M26.0978 6.36856L25.99 6.72645L25.649 6.72938C25.6049 6.72977 25.5866 6.79208 25.6221 6.82112L25.8964 7.04524L25.7936 7.40493C25.7803 7.4515 25.8281 7.48999 25.8641 7.46162L26.1415 7.24222L26.4189 7.46162C26.4548 7.49004 26.5028 7.4515 26.4895 7.40493L26.3866 7.04524L26.661 6.82112C26.6965 6.79213 26.6782 6.72977 26.634 6.72938L26.2931 6.72645L26.1852 6.36856C26.1711 6.32221 26.1118 6.32221 26.0978 6.36856Z" fill="#F5F5F5"/>
<path d="M26.0978 9.67963L25.99 10.0375L25.649 10.0404C25.6049 10.0408 25.5866 10.1031 25.6221 10.1322L25.8964 10.3563L25.7936 10.716C25.7803 10.7626 25.8281 10.8011 25.8641 10.7727L26.1415 10.5533L26.4189 10.7727C26.4548 10.8011 26.5028 10.7626 26.4895 10.716L26.3866 10.3563L26.661 10.1322C26.6965 10.1032 26.6782 10.0408 26.634 10.0404L26.2931 10.0375L26.1852 9.67963C26.1711 9.63328 26.1118 9.63328 26.0978 9.67963Z" fill="#F5F5F5"/>
<path d="M26.0978 12.7217L25.99 13.0796L25.649 13.0826C25.6049 13.0829 25.5866 13.1453 25.6221 13.1743L25.8964 13.3984L25.7936 13.7581C25.7803 13.8047 25.8281 13.8432 25.8641 13.8148L26.1415 13.5954L26.4189 13.8148C26.4548 13.8432 26.5028 13.8047 26.4895 13.7581L26.3866 13.3984L26.661 13.1743C26.6965 13.1453 26.6782 13.0829 26.634 13.0826L26.2931 13.0796L26.1852 12.7217C26.1711 12.6754 26.1118 12.6754 26.0978 12.7217Z" fill="#F5F5F5"/>
<path d="M26.0978 15.49L25.99 15.8479L25.649 15.8508C25.6049 15.8512 25.5866 15.9135 25.6221 15.9426L25.8964 16.1667L25.7936 16.5264C25.7803 16.573 25.8281 16.6114 25.8641 16.5831L26.1415 16.3637L26.4189 16.5831C26.4548 16.6114 26.5028 16.573 26.4895 16.5264L26.3866 16.1667L26.661 15.9426C26.6965 15.9136 26.6782 15.8512 26.634 15.8508L26.2931 15.8479L26.1852 15.49C26.1711 15.4437 26.1118 15.4437 26.0978 15.49Z" fill="#F5F5F5"/>
<path d="M24.7845 4.79688L24.6767 5.15477L24.3357 5.15769C24.2916 5.15808 24.2733 5.22039 24.3087 5.24938L24.5831 5.4735L24.4802 5.83318C24.4669 5.87976 24.5148 5.9183 24.5508 5.88987L24.8281 5.67048L25.1055 5.88987C25.1414 5.9183 25.1893 5.87976 25.176 5.83318L25.0732 5.4735L25.3475 5.24938C25.383 5.22039 25.3647 5.15803 25.3206 5.15769L24.9796 5.15477L24.8718 4.79688C24.8577 4.75053 24.7985 4.75053 24.7845 4.79688Z" fill="#F5F5F5"/>
<path d="M24.7844 8.10794L24.6766 8.46583L24.3356 8.46876C24.2915 8.46915 24.2732 8.53146 24.3086 8.5605L24.583 8.78462L24.4801 9.14431C24.4668 9.19088 24.5147 9.22942 24.5507 9.20099L24.8281 8.9816L25.1055 9.20099C25.1414 9.22942 25.1893 9.19088 25.176 9.14431L25.0732 8.78462L25.3475 8.5605C25.383 8.53151 25.3647 8.46915 25.3206 8.46876L24.9796 8.46583L24.8718 8.10794C24.8576 8.06159 24.7984 8.06159 24.7844 8.10794Z" fill="#F5F5F5"/>
<path d="M24.7844 11.2537L24.6766 11.6116L24.3356 11.6145C24.2915 11.6149 24.2732 11.6772 24.3086 11.7063L24.583 11.9304L24.4801 12.2901C24.4668 12.3367 24.5147 12.3751 24.5507 12.3468L24.8281 12.1274L25.1055 12.3468C25.1414 12.3752 25.1893 12.3367 25.176 12.2901L25.0732 11.9304L25.3475 11.7063C25.383 11.6773 25.3647 11.6149 25.3206 11.6145L24.9796 11.6116L24.8718 11.2537C24.8576 11.2074 24.7984 11.2074 24.7844 11.2537Z" fill="#F5F5F5"/>
<path d="M24.7844 14.0787L24.6766 14.4366L24.3356 14.4395C24.2915 14.4399 24.2732 14.5023 24.3086 14.5313L24.583 14.7554L24.4801 15.1151C24.4668 15.1617 24.5147 15.2002 24.5507 15.1718L24.8281 14.9524L25.1055 15.1718C25.1414 15.2002 25.1893 15.1617 25.176 15.1151L25.0732 14.7554L25.3475 14.5313C25.383 14.5023 25.3647 14.4399 25.3206 14.4395L24.9796 14.4366L24.8718 14.0787C24.8576 14.0324 24.7984 14.0324 24.7844 14.0787Z" fill="#F5F5F5"/>
<path d="M23.4712 3.38314L23.3633 3.74103L23.0224 3.74395C22.9783 3.74434 22.9599 3.80665 22.9954 3.83564L23.2697 4.05976L23.1669 4.41945C23.1536 4.46602 23.2015 4.50451 23.2374 4.47613L23.5149 4.25674L23.7923 4.47613C23.8282 4.50456 23.8761 4.46602 23.8628 4.41945L23.76 4.05976L24.0342 3.83564C24.0697 3.80665 24.0515 3.74429 24.0073 3.74395L23.6664 3.74103L23.5585 3.38314C23.5444 3.33685 23.4851 3.33685 23.4712 3.38314Z" fill="#F5F5F5"/>
<path d="M23.4712 6.36856L23.3633 6.72645L23.0224 6.72938C22.9783 6.72977 22.9599 6.79208 22.9954 6.82112L23.2697 7.04524L23.1669 7.40493C23.1536 7.4515 23.2015 7.48999 23.2374 7.46162L23.5149 7.24222L23.7923 7.46162C23.8282 7.49004 23.8761 7.4515 23.8628 7.40493L23.76 7.04524L24.0342 6.82112C24.0697 6.79213 24.0515 6.72977 24.0073 6.72938L23.6664 6.72645L23.5585 6.36856C23.5444 6.32221 23.4851 6.32221 23.4712 6.36856Z" fill="#F5F5F5"/>
<path d="M23.4712 9.67963L23.3633 10.0375L23.0224 10.0404C22.9783 10.0408 22.9599 10.1031 22.9954 10.1322L23.2697 10.3563L23.1669 10.716C23.1536 10.7626 23.2015 10.8011 23.2374 10.7727L23.5149 10.5533L23.7923 10.7727C23.8282 10.8011 23.8761 10.7626 23.8628 10.716L23.76 10.3563L24.0342 10.1322C24.0697 10.1032 24.0515 10.0408 24.0073 10.0404L23.6664 10.0375L23.5585 9.67963C23.5444 9.63328 23.4851 9.63328 23.4712 9.67963Z" fill="#F5F5F5"/>
<path d="M23.4712 12.7217L23.3633 13.0796L23.0224 13.0826C22.9783 13.0829 22.9599 13.1453 22.9954 13.1743L23.2697 13.3984L23.1669 13.7581C23.1536 13.8047 23.2015 13.8432 23.2374 13.8148L23.5149 13.5954L23.7923 13.8148C23.8282 13.8432 23.8761 13.8047 23.8628 13.7581L23.76 13.3984L24.0342 13.1743C24.0697 13.1453 24.0515 13.0829 24.0073 13.0826L23.6664 13.0796L23.5585 12.7217C23.5444 12.6754 23.4851 12.6754 23.4712 12.7217Z" fill="#F5F5F5"/>
<path d="M23.4712 15.49L23.3633 15.8479L23.0224 15.8508C22.9783 15.8512 22.9599 15.9135 22.9954 15.9426L23.2697 16.1667L23.1669 16.5264C23.1536 16.573 23.2015 16.6114 23.2374 16.5831L23.5149 16.3637L23.7923 16.5831C23.8282 16.6114 23.8761 16.573 23.8628 16.5264L23.76 16.1667L24.0342 15.9426C24.0697 15.9136 24.0515 15.8512 24.0073 15.8508L23.6664 15.8479L23.5585 15.49C23.5444 15.4437 23.4851 15.4437 23.4712 15.49Z" fill="#F5F5F5"/>
<path d="M22.1577 4.79688L22.0498 5.15477L21.7089 5.15769C21.6647 5.15808 21.6464 5.22039 21.6819 5.24938L21.9562 5.4735L21.8534 5.83318C21.8401 5.87976 21.888 5.9183 21.9239 5.88987L22.2013 5.67048L22.4787 5.88987C22.5147 5.9183 22.5626 5.87976 22.5493 5.83318L22.4465 5.4735L22.7208 5.24938C22.7563 5.22039 22.738 5.15803 22.6938 5.15769L22.3529 5.15477L22.245 4.79688C22.2308 4.75053 22.1716 4.75053 22.1577 4.79688Z" fill="#F5F5F5"/>
<path d="M22.1577 8.10794L22.0498 8.46583L21.7089 8.46876C21.6647 8.46915 21.6464 8.53146 21.6819 8.5605L21.9562 8.78462L21.8534 9.14431C21.8401 9.19088 21.888 9.22942 21.9239 9.20099L22.2013 8.9816L22.4787 9.20099C22.5147 9.22942 22.5626 9.19088 22.5493 9.14431L22.4465 8.78462L22.7208 8.5605C22.7563 8.53151 22.738 8.46915 22.6938 8.46876L22.3529 8.46583L22.245 8.10794C22.2308 8.06159 22.1716 8.06159 22.1577 8.10794Z" fill="#F5F5F5"/>
<path d="M22.1577 11.2537L22.0498 11.6116L21.7089 11.6145C21.6647 11.6149 21.6464 11.6772 21.6819 11.7063L21.9562 11.9304L21.8534 12.2901C21.8401 12.3367 21.888 12.3751 21.9239 12.3468L22.2013 12.1274L22.4787 12.3468C22.5147 12.3752 22.5626 12.3367 22.5493 12.2901L22.4465 11.9304L22.7208 11.7063C22.7563 11.6773 22.738 11.6149 22.6938 11.6145L22.3529 11.6116L22.245 11.2537C22.2308 11.2074 22.1716 11.2074 22.1577 11.2537Z" fill="#F5F5F5"/>
<path d="M22.1577 14.0787L22.0498 14.4366L21.7089 14.4395C21.6647 14.4399 21.6464 14.5023 21.6819 14.5313L21.9562 14.7554L21.8534 15.1151C21.8401 15.1617 21.888 15.2002 21.9239 15.1718L22.2013 14.9524L22.4787 15.1718C22.5147 15.2002 22.5626 15.1617 22.5493 15.1151L22.4465 14.7554L22.7208 14.5313C22.7563 14.5023 22.738 14.4399 22.6938 14.4395L22.3529 14.4366L22.245 14.0787C22.2308 14.0324 22.1716 14.0324 22.1577 14.0787Z" fill="#F5F5F5"/>
<path d="M20.8445 3.38314L20.7366 3.74103L20.3957 3.74395C20.3515 3.74434 20.3332 3.80665 20.3688 3.83564L20.643 4.05976L20.5402 4.41945C20.5269 4.46602 20.5748 4.50451 20.6107 4.47613L20.8881 4.25674L21.1656 4.47613C21.2015 4.50456 21.2494 4.46602 21.2361 4.41945L21.1333 4.05976L21.4075 3.83564C21.443 3.80665 21.4248 3.74429 21.3806 3.74395L21.0396 3.74103L20.9318 3.38314C20.9177 3.33685 20.8584 3.33685 20.8445 3.38314Z" fill="#F5F5F5"/>
<path d="M20.8443 6.36857L20.7364 6.72646L20.3955 6.72938C20.3514 6.72978 20.333 6.79208 20.3686 6.82113L20.6428 7.04525L20.54 7.40488C20.5266 7.45145 20.5745 7.48994 20.6105 7.46157L20.8879 7.24217L21.1653 7.46157C21.2012 7.49 21.2492 7.45145 21.2359 7.40488L21.133 7.04519L21.4073 6.82107C21.4428 6.79208 21.4245 6.72972 21.3803 6.72933L21.0394 6.7264L20.9315 6.36852C20.9175 6.32222 20.8582 6.32222 20.8443 6.36857Z" fill="#F5F5F5"/>
<path d="M20.8445 9.67963L20.7366 10.0375L20.3957 10.0404C20.3515 10.0408 20.3332 10.1031 20.3688 10.1322L20.643 10.3563L20.5402 10.716C20.5269 10.7626 20.5748 10.8011 20.6107 10.7727L20.8881 10.5533L21.1656 10.7727C21.2015 10.8011 21.2494 10.7626 21.2361 10.716L21.1333 10.3563L21.4075 10.1322C21.443 10.1032 21.4248 10.0408 21.3806 10.0404L21.0396 10.0375L20.9318 9.67963C20.9177 9.63328 20.8584 9.63328 20.8445 9.67963Z" fill="#F5F5F5"/>
<path d="M20.8445 12.7217L20.7366 13.0796L20.3957 13.0826C20.3515 13.0829 20.3332 13.1453 20.3688 13.1743L20.643 13.3984L20.5402 13.7581C20.5269 13.8047 20.5748 13.8432 20.6107 13.8148L20.8881 13.5954L21.1656 13.8148C21.2015 13.8432 21.2494 13.8047 21.2361 13.7581L21.1333 13.3984L21.4075 13.1743C21.443 13.1453 21.4248 13.0829 21.3806 13.0826L21.0396 13.0796L20.9318 12.7217C20.9177 12.6754 20.8584 12.6754 20.8445 12.7217Z" fill="#F5F5F5"/>
<path d="M20.8445 15.49L20.7366 15.8479L20.3957 15.8508C20.3515 15.8512 20.3332 15.9135 20.3688 15.9426L20.643 16.1667L20.5402 16.5264C20.5269 16.573 20.5748 16.6114 20.6107 16.5831L20.8881 16.3637L21.1656 16.5831C21.2015 16.6114 21.2494 16.573 21.2361 16.5264L21.1333 16.1667L21.4075 15.9426C21.443 15.9136 21.4248 15.8512 21.3806 15.8508L21.0396 15.8479L20.9318 15.49C20.9177 15.4437 20.8584 15.4437 20.8445 15.49Z" fill="#F5F5F5"/>
<path d="M19.5312 4.79688L19.4233 5.15477L19.0824 5.15769C19.0383 5.15808 19.0199 5.22039 19.0555 5.24938L19.3298 5.4735L19.227 5.83318C19.2137 5.87976 19.2616 5.9183 19.2975 5.88987L19.5749 5.67048L19.8523 5.88987C19.8882 5.9183 19.9362 5.87976 19.9229 5.83318L19.82 5.4735L20.0943 5.24938C20.1298 5.22039 20.1115 5.15803 20.0674 5.15769L19.7264 5.15477L19.6186 4.79688C19.6044 4.75053 19.5452 4.75053 19.5312 4.79688Z" fill="#F5F5F5"/>
<path d="M19.5312 8.10794L19.4233 8.46583L19.0824 8.46876C19.0383 8.46915 19.0199 8.53146 19.0555 8.5605L19.3298 8.78462L19.227 9.14431C19.2137 9.19088 19.2616 9.22942 19.2975 9.20099L19.5749 8.9816L19.8523 9.20099C19.8882 9.22942 19.9362 9.19088 19.9229 9.14431L19.82 8.78462L20.0943 8.5605C20.1298 8.53151 20.1115 8.46915 20.0674 8.46876L19.7264 8.46583L19.6186 8.10794C19.6044 8.06159 19.5452 8.06159 19.5312 8.10794Z" fill="#F5F5F5"/>
<path d="M19.5312 11.2537L19.4233 11.6116L19.0824 11.6145C19.0383 11.6149 19.0199 11.6772 19.0555 11.7063L19.3298 11.9304L19.227 12.2901C19.2137 12.3367 19.2616 12.3751 19.2975 12.3468L19.5749 12.1274L19.8523 12.3468C19.8882 12.3752 19.9362 12.3367 19.9229 12.2901L19.82 11.9304L20.0943 11.7063C20.1298 11.6773 20.1115 11.6149 20.0674 11.6145L19.7264 11.6116L19.6186 11.2537C19.6044 11.2074 19.5452 11.2074 19.5312 11.2537Z" fill="#F5F5F5"/>
<path d="M19.5312 14.0787L19.4233 14.4366L19.0824 14.4395C19.0383 14.4399 19.0199 14.5023 19.0555 14.5313L19.3298 14.7554L19.227 15.1151C19.2137 15.1617 19.2616 15.2002 19.2975 15.1718L19.5749 14.9524L19.8523 15.1718C19.8882 15.2002 19.9362 15.1617 19.9229 15.1151L19.82 14.7554L20.0943 14.5313C20.1298 14.5023 20.1115 14.4399 20.0674 14.4395L19.7264 14.4366L19.6186 14.0787C19.6044 14.0324 19.5452 14.0324 19.5312 14.0787Z" fill="#F5F5F5"/>
<path d="M18.2177 3.38314L18.1098 3.74103L17.7689 3.74395C17.7247 3.74434 17.7064 3.80665 17.7419 3.83564L18.0163 4.05976L17.9134 4.41945C17.9001 4.46602 17.9481 4.50451 17.984 4.47613L18.2614 4.25674L18.5388 4.47613C18.5747 4.50456 18.6226 4.46602 18.6093 4.41945L18.5065 4.05976L18.7808 3.83564C18.8163 3.80665 18.798 3.74429 18.7539 3.74395L18.4129 3.74103L18.3051 3.38314C18.2908 3.33685 18.2316 3.33685 18.2177 3.38314Z" fill="#F5F5F5"/>
<path d="M18.2177 6.36856L18.1098 6.72645L17.7689 6.72938C17.7247 6.72977 17.7064 6.79208 17.7419 6.82112L18.0163 7.04524L17.9134 7.40493C17.9001 7.4515 17.9481 7.48999 17.984 7.46162L18.2614 7.24222L18.5388 7.46162C18.5747 7.49004 18.6226 7.4515 18.6093 7.40493L18.5065 7.04524L18.7808 6.82112C18.8163 6.79213 18.798 6.72977 18.7539 6.72938L18.4129 6.72645L18.3051 6.36856C18.2908 6.32221 18.2316 6.32221 18.2177 6.36856Z" fill="#F5F5F5"/>
<path d="M18.2177 9.67963L18.1098 10.0375L17.7689 10.0404C17.7247 10.0408 17.7064 10.1031 17.7419 10.1322L18.0163 10.3563L17.9134 10.716C17.9001 10.7626 17.9481 10.8011 17.984 10.7727L18.2614 10.5533L18.5388 10.7727C18.5747 10.8011 18.6226 10.7626 18.6093 10.716L18.5065 10.3563L18.7808 10.1322C18.8163 10.1032 18.798 10.0408 18.7539 10.0404L18.4129 10.0375L18.3051 9.67963C18.2908 9.63328 18.2316 9.63328 18.2177 9.67963Z" fill="#F5F5F5"/>
<path d="M18.2177 12.7217L18.1098 13.0796L17.7689 13.0826C17.7247 13.0829 17.7064 13.1453 17.7419 13.1743L18.0163 13.3984L17.9134 13.7581C17.9001 13.8047 17.9481 13.8432 17.984 13.8148L18.2614 13.5954L18.5388 13.8148C18.5747 13.8432 18.6226 13.8047 18.6093 13.7581L18.5065 13.3984L18.7808 13.1743C18.8163 13.1453 18.798 13.0829 18.7539 13.0826L18.4129 13.0796L18.3051 12.7217C18.2908 12.6754 18.2316 12.6754 18.2177 12.7217Z" fill="#F5F5F5"/>
<path d="M18.2177 15.49L18.1098 15.8479L17.7689 15.8508C17.7247 15.8512 17.7064 15.9135 17.7419 15.9426L18.0163 16.1667L17.9134 16.5264C17.9001 16.573 17.9481 16.6114 17.984 16.5831L18.2614 16.3637L18.5388 16.5831C18.5747 16.6114 18.6226 16.573 18.6093 16.5264L18.5065 16.1667L18.7808 15.9426C18.8163 15.9136 18.798 15.8512 18.7539 15.8508L18.4129 15.8479L18.3051 15.49C18.2908 15.4437 18.2316 15.4437 18.2177 15.49Z" fill="#F5F5F5"/>
<path d="M16.9045 4.79688L16.7966 5.15477L16.4556 5.15769C16.4115 5.15808 16.3932 5.22039 16.4287 5.24938L16.703 5.4735L16.6002 5.83318C16.5869 5.87976 16.6348 5.9183 16.6707 5.88987L16.9482 5.67048L17.2256 5.88987C17.2615 5.9183 17.3094 5.87976 17.2961 5.83318L17.1933 5.4735L17.4676 5.24938C17.5031 5.22039 17.4848 5.15803 17.4407 5.15769L17.0997 5.15477L16.9918 4.79688C16.9777 4.75053 16.9184 4.75053 16.9045 4.79688Z" fill="#F5F5F5"/>
<path d="M16.9045 8.10794L16.7966 8.46583L16.4556 8.46876C16.4115 8.46915 16.3932 8.53146 16.4287 8.5605L16.703 8.78462L16.6002 9.14431C16.5869 9.19088 16.6348 9.22942 16.6707 9.20099L16.9482 8.9816L17.2256 9.20099C17.2615 9.22942 17.3094 9.19088 17.2961 9.14431L17.1933 8.78462L17.4676 8.5605C17.5031 8.53151 17.4848 8.46915 17.4407 8.46876L17.0997 8.46583L16.9918 8.10794C16.9777 8.06159 16.9184 8.06159 16.9045 8.10794Z" fill="#F5F5F5"/>
<path d="M16.9045 11.2537L16.7966 11.6116L16.4556 11.6145C16.4115 11.6149 16.3932 11.6772 16.4287 11.7063L16.703 11.9304L16.6002 12.2901C16.5869 12.3367 16.6348 12.3751 16.6707 12.3468L16.9482 12.1274L17.2256 12.3468C17.2615 12.3752 17.3094 12.3367 17.2961 12.2901L17.1933 11.9304L17.4676 11.7063C17.5031 11.6773 17.4848 11.6149 17.4407 11.6145L17.0997 11.6116L16.9918 11.2537C16.9777 11.2074 16.9184 11.2074 16.9045 11.2537Z" fill="#F5F5F5"/>
<path d="M16.9045 14.0787L16.7966 14.4366L16.4556 14.4395C16.4115 14.4399 16.3932 14.5023 16.4287 14.5313L16.703 14.7554L16.6002 15.1151C16.5869 15.1617 16.6348 15.2002 16.6707 15.1718L16.9482 14.9524L17.2256 15.1718C17.2615 15.2002 17.3094 15.1617 17.2961 15.1151L17.1933 14.7554L17.4676 14.5313C17.5031 14.5023 17.4848 14.4399 17.4407 14.4395L17.0997 14.4366L16.9918 14.0787C16.9777 14.0324 16.9184 14.0324 16.9045 14.0787Z" fill="#F5F5F5"/>
<path d="M15.591 3.38314L15.4831 3.74103L15.1422 3.74395C15.0981 3.74434 15.0797 3.80665 15.1152 3.83564L15.3896 4.05976L15.2867 4.41945C15.2734 4.46602 15.3214 4.50451 15.3573 4.47613L15.6347 4.25674L15.9121 4.47613C15.948 4.50456 15.9959 4.46602 15.9826 4.41945L15.8798 4.05976L16.1541 3.83564C16.1896 3.80665 16.1713 3.74429 16.1272 3.74395L15.7863 3.74103L15.6784 3.38314C15.6642 3.33685 15.605 3.33685 15.591 3.38314Z" fill="#F5F5F5"/>
<path d="M15.591 6.36856L15.4831 6.72645L15.1422 6.72938C15.0981 6.72977 15.0797 6.79208 15.1152 6.82112L15.3896 7.04524L15.2867 7.40493C15.2734 7.4515 15.3214 7.48999 15.3573 7.46162L15.6347 7.24222L15.9121 7.46162C15.948 7.49004 15.9959 7.4515 15.9826 7.40493L15.8798 7.04524L16.1541 6.82112C16.1896 6.79213 16.1713 6.72977 16.1272 6.72938L15.7863 6.72645L15.6784 6.36856C15.6642 6.32221 15.605 6.32221 15.591 6.36856Z" fill="#F5F5F5"/>
<path d="M15.591 9.67963L15.4831 10.0375L15.1422 10.0404C15.0981 10.0408 15.0797 10.1031 15.1152 10.1322L15.3896 10.3563L15.2867 10.716C15.2734 10.7626 15.3214 10.8011 15.3573 10.7727L15.6347 10.5533L15.9121 10.7727C15.948 10.8011 15.9959 10.7626 15.9826 10.716L15.8798 10.3563L16.1541 10.1322C16.1896 10.1032 16.1713 10.0408 16.1272 10.0404L15.7863 10.0375L15.6784 9.67963C15.6642 9.63328 15.605 9.63328 15.591 9.67963Z" fill="#F5F5F5"/>
<path d="M15.591 12.7217L15.4831 13.0796L15.1422 13.0826C15.0981 13.0829 15.0797 13.1453 15.1152 13.1743L15.3896 13.3984L15.2867 13.7581C15.2734 13.8047 15.3214 13.8432 15.3573 13.8148L15.6347 13.5954L15.9121 13.8148C15.948 13.8432 15.9959 13.8047 15.9826 13.7581L15.8798 13.3984L16.1541 13.1743C16.1896 13.1453 16.1713 13.0829 16.1272 13.0826L15.7863 13.0796L15.6784 12.7217C15.6642 12.6754 15.605 12.6754 15.591 12.7217Z" fill="#F5F5F5"/>
<path d="M15.591 15.49L15.4831 15.8479L15.1422 15.8508C15.0981 15.8512 15.0797 15.9135 15.1152 15.9426L15.3896 16.1667L15.2867 16.5264C15.2734 16.573 15.3214 16.6114 15.3573 16.5831L15.6347 16.3637L15.9121 16.5831C15.948 16.6114 15.9959 16.573 15.9826 16.5264L15.8798 16.1667L16.1541 15.9426C16.1896 15.9136 16.1713 15.8512 16.1272 15.8508L15.7863 15.8479L15.6784 15.49C15.6642 15.4437 15.605 15.4437 15.591 15.49Z" fill="#F5F5F5"/>
</svg>
