<svg width="25" height="25" viewBox="0 0 25 25" fill="none" xmlns="http://www.w3.org/2000/svg">
<path d="M24.5647 22.2784H23.2276V20.8622C23.2276 20.7467 23.1817 20.636 23.1001 20.5544C23.0185 20.4727 22.9077 20.4269 22.7923 20.4269H21.9527V8.5199C21.9528 8.43653 21.9288 8.35491 21.8838 8.28475C21.8388 8.21458 21.7746 8.15883 21.6988 8.12413L14.4448 4.80274V0.435325C14.4448 0.31987 14.3989 0.209143 14.3173 0.127504C14.2356 0.0458653 14.1249 1.13727e-06 14.0095 1.13727e-06H3.48358C3.42633 -0.000129723 3.36962 0.0110337 3.31669 0.0328521C3.26375 0.0546706 3.21565 0.0867155 3.17512 0.127152C3.13459 0.167589 3.10243 0.215623 3.0805 0.268503C3.05856 0.321384 3.04726 0.378073 3.04726 0.435325V20.4269H2.20771C2.09226 20.4269 1.98153 20.4727 1.89989 20.5544C1.81825 20.636 1.77239 20.7467 1.77239 20.8622V22.2781H0.435323C0.319868 22.2781 0.209142 22.324 0.127503 22.4056C0.0458642 22.4873 0 22.598 0 22.7134V24.5647C0 24.6801 0.0458642 24.7909 0.127503 24.8725C0.209142 24.9541 0.319868 25 0.435323 25H24.5647C24.6801 25 24.7909 24.9541 24.8725 24.8725C24.9541 24.7909 25 24.6801 25 24.5647V22.7137C25 22.5982 24.9541 22.4875 24.8725 22.4059C24.7909 22.3242 24.6801 22.2784 24.5647 22.2784V22.2784ZM21.0821 16.0843H17.2107V15.0498H21.0821V16.0843ZM21.0821 12.1042H17.2107V11.0697H21.0821V12.1042ZM21.0821 8.79925V10.199H16.7754C16.6599 10.199 16.5492 10.2449 16.4676 10.3265C16.3859 10.4081 16.34 10.5189 16.34 10.6343V12.5396C16.34 12.655 16.3859 12.7657 16.4676 12.8474C16.5492 12.929 16.6599 12.9749 16.7754 12.9749H21.0821V14.1791H16.7754C16.6599 14.1791 16.5492 14.225 16.4676 14.3066C16.3859 14.3882 16.34 14.499 16.34 14.6144V16.5197C16.34 16.6351 16.3859 16.7458 16.4676 16.8275C16.5492 16.9091 16.6599 16.955 16.7754 16.955H21.0821V20.4269H14.4448V5.7602L21.0821 8.79925ZM3.91791 0.870648H13.5741V20.4269H3.91791V0.870648ZM2.64303 21.2975H22.357V22.2781H2.64303V21.2975ZM24.1294 24.1294H0.870647V23.149H24.1294V24.1294Z" fill="#0986E2"/>
<path d="M11.9609 2.23881H5.59701C5.48155 2.23881 5.37082 2.28467 5.28919 2.36631C5.20755 2.44795 5.16168 2.55868 5.16168 2.67413V4.57936C5.16168 4.69481 5.20755 4.80554 5.28919 4.88718C5.37082 4.96881 5.48155 5.01468 5.59701 5.01468H11.9609C12.0764 5.01468 12.1871 4.96881 12.2688 4.88718C12.3504 4.80554 12.3963 4.69481 12.3963 4.57936V2.67413C12.3963 2.55868 12.3504 2.44795 12.2688 2.36631C12.1871 2.28467 12.0764 2.23881 11.9609 2.23881V2.23881ZM11.5256 4.14403H6.03233V3.10945H11.5256V4.14403Z" fill="#0986E2"/>
<path d="M5.59701 8.99478H7.50223C7.61768 8.99478 7.72841 8.94891 7.81005 8.86727C7.89169 8.78564 7.93755 8.67491 7.93755 8.55945V6.65423C7.93755 6.53877 7.89169 6.42805 7.81005 6.34641C7.72841 6.26477 7.61768 6.21891 7.50223 6.21891H5.59701C5.48155 6.21891 5.37082 6.26477 5.28919 6.34641C5.20755 6.42805 5.16168 6.53877 5.16168 6.65423V8.55945C5.16168 8.67491 5.20755 8.78564 5.28919 8.86727C5.37082 8.94891 5.48155 8.99478 5.59701 8.99478V8.99478ZM6.03233 7.08955H7.06691V8.12413H6.03233V7.08955Z" fill="#0986E2"/>
<path d="M11.9609 6.21891H10.0557C9.94023 6.21891 9.8295 6.26477 9.74786 6.34641C9.66623 6.42805 9.62036 6.53877 9.62036 6.65423V8.55945C9.62036 8.67491 9.66623 8.78564 9.74786 8.86727C9.8295 8.94891 9.94023 8.99478 10.0557 8.99478H11.9609C12.0764 8.99478 12.1871 8.94891 12.2687 8.86727C12.3504 8.78564 12.3962 8.67491 12.3962 8.55945V6.65423C12.3962 6.53877 12.3504 6.42805 12.2687 6.34641C12.1871 6.26477 12.0764 6.21891 11.9609 6.21891V6.21891ZM11.5256 8.12413H10.491V7.08955H11.5256V8.12413Z" fill="#0986E2"/>
<path d="M11.9609 10.199H5.59701C5.48155 10.199 5.37082 10.2449 5.28919 10.3265C5.20755 10.4081 5.16168 10.5189 5.16168 10.6343V12.5395C5.16168 12.655 5.20755 12.7657 5.28919 12.8474C5.37082 12.929 5.48155 12.9749 5.59701 12.9749H11.9609C12.0764 12.9749 12.1871 12.929 12.2688 12.8474C12.3504 12.7657 12.3963 12.655 12.3963 12.5395V10.6343C12.3963 10.5189 12.3504 10.4081 12.2688 10.3265C12.1871 10.2449 12.0764 10.199 11.9609 10.199V10.199ZM11.5256 12.1042H6.03233V11.0696H11.5256V12.1042Z" fill="#0986E2"/>
<path d="M7.50223 14.1791H5.59701C5.48155 14.1791 5.37082 14.225 5.28919 14.3066C5.20755 14.3882 5.16168 14.499 5.16168 14.6144V16.5197C5.16168 16.6351 5.20755 16.7458 5.28919 16.8275C5.37082 16.9091 5.48155 16.955 5.59701 16.955H7.50223C7.61768 16.955 7.72841 16.9091 7.81005 16.8275C7.89169 16.7458 7.93755 16.6351 7.93755 16.5197V14.6144C7.93755 14.499 7.89169 14.3882 7.81005 14.3066C7.72841 14.225 7.61768 14.1791 7.50223 14.1791ZM7.06691 16.0843H6.03233V15.0498H7.06691V16.0843Z" fill="#0986E2"/>
<path d="M11.9609 14.1791H10.0557C9.94023 14.1791 9.8295 14.225 9.74786 14.3066C9.66623 14.3882 9.62036 14.499 9.62036 14.6144V16.5197C9.62036 16.6351 9.66623 16.7458 9.74786 16.8275C9.8295 16.9091 9.94023 16.955 10.0557 16.955H11.9609C12.0764 16.955 12.1871 16.9091 12.2687 16.8275C12.3504 16.7458 12.3962 16.6351 12.3962 16.5197V14.6144C12.3962 14.499 12.3504 14.3882 12.2687 14.3066C12.1871 14.225 12.0764 14.1791 11.9609 14.1791ZM11.5256 16.0843H10.491V15.0498H11.5256V16.0843Z" fill="#0986E2"/>
</svg>
