<svg width="20" height="20" viewBox="0 0 20 20" fill="none" xmlns="http://www.w3.org/2000/svg">
<path d="M19.6517 8.78099H18.9598C18.9656 8.71771 18.9694 8.65403 18.9694 8.59015C18.9697 8.21756 18.8703 7.85168 18.6815 7.53046C18.4927 7.20924 18.2214 6.94438 17.8958 6.76336C17.5701 6.58233 17.202 6.49173 16.8295 6.50095C16.457 6.51018 16.0938 6.61889 15.7775 6.81582C15.5662 6.5442 15.2859 6.33427 14.9658 6.20797C14.6457 6.08168 14.2976 6.04363 13.9578 6.09782C13.6179 6.15201 13.2989 6.29644 13.0339 6.51602C12.769 6.73561 12.5679 7.02231 12.4515 7.34617C12.0906 7.39806 11.7564 7.56617 11.4995 7.82504C11.2426 8.08391 11.0771 8.41943 11.0281 8.7808H3.44199V7.36388C3.44209 7.31815 3.43319 7.27284 3.41579 7.23055C3.39838 7.18825 3.37282 7.1498 3.34055 7.11739C3.30829 7.08498 3.26995 7.05924 3.22774 7.04164C3.18553 7.02404 3.14026 7.01493 3.09453 7.01483H2.5594V2.52209C2.5594 2.03792 2.75174 1.57358 3.0941 1.23121C3.43646 0.888854 3.9008 0.696517 4.38498 0.696517C4.86915 0.696517 5.33349 0.888854 5.67585 1.23121C6.01821 1.57358 6.21055 2.03792 6.21055 2.52209V2.92249C5.65094 3.0062 5.13991 3.28778 4.7702 3.71613C4.4005 4.14448 4.19663 4.69119 4.19562 5.25701C4.19562 5.34938 4.23231 5.43796 4.29762 5.50327C4.36294 5.56858 4.45152 5.60527 4.54388 5.60527H8.57373C8.6661 5.60527 8.75468 5.56858 8.81999 5.50327C8.8853 5.43796 8.92199 5.34938 8.92199 5.25701C8.92098 4.69119 8.71712 4.14448 8.34741 3.71613C7.97771 3.28778 7.46667 3.0062 6.90706 2.92249V2.52209C6.90706 2.19088 6.84183 1.86292 6.71508 1.55693C6.58833 1.25093 6.40256 0.972901 6.16836 0.738703C5.93416 0.504505 5.65613 0.31873 5.35014 0.191983C5.04414 0.0652359 4.71618 0 4.38498 0C4.05377 0 3.72581 0.0652359 3.41981 0.191983C3.11382 0.31873 2.83579 0.504505 2.60159 0.738703C2.36739 0.972901 2.18162 1.25093 2.05487 1.55693C1.92812 1.86292 1.86289 2.19088 1.86289 2.52209V7.01483H1.32856C1.23619 7.01483 1.14761 7.05152 1.0823 7.11683C1.01699 7.18214 0.980299 7.27072 0.980299 7.36308V8.78H0.348259C0.255895 8.78 0.167314 8.81669 0.102003 8.882C0.0366914 8.94731 0 9.03589 0 9.12826V10.6208C0 10.7132 0.0366914 10.8017 0.102003 10.8671C0.167314 10.9324 0.255895 10.9691 0.348259 10.9691H1.01413L1.5805 16.4731C1.63776 17.0422 1.89013 17.574 2.29478 17.9782C2.69943 18.3824 3.23145 18.6342 3.8006 18.6908L3.22607 19.4383C3.18646 19.4899 3.16208 19.5515 3.15569 19.6162C3.1493 19.6809 3.16114 19.7461 3.18989 19.8044C3.21863 19.8627 3.26313 19.9118 3.31834 19.9462C3.37355 19.9805 3.43727 19.9987 3.50229 19.9987H4.67323C4.72663 19.9987 4.77931 19.9864 4.82721 19.9628C4.8751 19.9392 4.91693 19.9049 4.94945 19.8626L5.84 18.704H14.1592L15.0498 19.8626C15.0823 19.9049 15.1241 19.9392 15.172 19.9628C15.2199 19.9864 15.2726 19.9987 15.326 19.9987H16.4975C16.5625 19.9987 16.6263 19.9805 16.6815 19.9462C16.7367 19.9118 16.7812 19.8627 16.8099 19.8044C16.8387 19.7461 16.8505 19.6809 16.8441 19.6162C16.8377 19.5515 16.8133 19.4899 16.7737 19.4383L16.1992 18.6908C16.7683 18.6342 17.3004 18.3824 17.705 17.9782C18.1097 17.574 18.362 17.0422 18.4193 16.4731L18.9857 10.9691H19.6517C19.7441 10.9691 19.8327 10.9324 19.898 10.8671C19.9633 10.8017 20 10.7132 20 10.6208V9.12826C19.9997 9.03607 19.9629 8.94774 19.8976 8.88265C19.8324 8.81755 19.7439 8.78099 19.6517 8.78099ZM8.18906 4.90876H4.92876C5.0086 4.53567 5.21401 4.20125 5.51069 3.96135C5.80737 3.72145 6.17737 3.59057 6.55891 3.59057C6.94044 3.59057 7.31044 3.72145 7.60712 3.96135C7.9038 4.20125 8.10921 4.53567 8.18906 4.90876ZM12.6794 8.02637L12.7061 8.02796C12.7884 8.03081 12.8691 8.00438 12.9339 7.95338C12.9986 7.90238 13.0432 7.8301 13.0597 7.74935C13.1116 7.4972 13.2416 7.26778 13.4311 7.09361C13.6207 6.91944 13.8603 6.80935 14.1159 6.77894C14.3716 6.74854 14.6303 6.79936 14.8555 6.9242C15.0806 7.04905 15.2607 7.24159 15.3703 7.47453C15.3939 7.5242 15.4289 7.56759 15.4724 7.60116C15.516 7.63473 15.5668 7.65752 15.6209 7.66767C15.6749 7.67782 15.7306 7.67504 15.7833 7.65956C15.8361 7.64408 15.8844 7.61634 15.9244 7.57861C16.1219 7.39141 16.37 7.26625 16.6379 7.21863C16.9058 7.171 17.1819 7.203 17.4318 7.31066C17.6817 7.41832 17.8946 7.59692 18.0441 7.82434C18.1935 8.05176 18.273 8.31802 18.2726 8.59015C18.272 8.65403 18.267 8.71779 18.2577 8.78099H11.7363C11.7859 8.56754 11.9059 8.37699 12.077 8.24009C12.2481 8.10318 12.4603 8.02789 12.6794 8.02637ZM1.67682 7.71134H2.74547V8.78H1.67682V7.71134ZM4.50269 19.3024H4.20896L4.66866 18.7042H4.961L4.50269 19.3024ZM15.4993 19.3024L15.0396 18.7042H15.3319L15.7916 19.3024H15.4993ZM17.7282 16.4021C17.6838 16.8428 17.4771 17.2514 17.1482 17.5481C16.8194 17.8449 16.3918 18.0087 15.9489 18.0077H4.05294C3.60995 18.0087 3.18243 17.8449 2.85355 17.5481C2.52467 17.2514 2.31795 16.8428 2.27363 16.4021L1.71463 10.9693H18.2856L17.7282 16.4021ZM19.3053 10.2727H0.696517V9.47672H19.3035L19.3053 10.2727Z" fill="#0986E2"/>
</svg>
