<svg width="24" height="20" viewBox="0 0 24 20" fill="none" xmlns="http://www.w3.org/2000/svg">
<path d="M23.5555 19.3035H20.3566V18.8722H20.3939C20.7256 18.872 21.0436 18.7578 21.2782 18.5547C21.5128 18.3516 21.6447 18.0763 21.6451 17.7891V14.0173C21.6447 13.7301 21.5128 13.4547 21.2782 13.2516C21.0437 13.0485 20.7256 12.9342 20.3939 12.9339H20.0314V9.42089C20.0314 9.32853 19.989 9.23995 19.9136 9.17463C19.8382 9.10932 19.7359 9.07263 19.6292 9.07263H5.18765C5.08097 9.07263 4.97867 9.10932 4.90324 9.17463C4.82781 9.23995 4.78543 9.32853 4.78543 9.42089V12.9337H4.42298C4.09124 12.934 3.7732 13.0483 3.53863 13.2514C3.30406 13.4545 3.17211 13.7299 3.17175 14.0171V17.7891C3.17211 18.0763 3.30406 18.3516 3.53864 18.5547C3.77322 18.7578 4.09127 18.872 4.42298 18.8722H4.46021V19.3035H1.26135C1.15467 19.3035 1.05237 19.3402 0.976937 19.4055C0.901507 19.4708 0.859131 19.5594 0.859131 19.6517C0.859131 19.7441 0.901507 19.8327 0.976937 19.898C1.05237 19.9633 1.15467 20 1.26135 20H23.5555C23.6622 20 23.7645 19.9633 23.8399 19.898C23.9153 19.8327 23.9577 19.7441 23.9577 19.6517C23.9577 19.5594 23.9153 19.4708 23.8399 19.4055C23.7645 19.3402 23.6622 19.3035 23.5555 19.3035ZM5.58986 9.76915H19.227V12.9333H17.6756C17.5898 12.5023 17.3308 12.1113 16.9445 11.8295C16.5581 11.5477 16.0692 11.3932 15.564 11.3932C15.0588 11.3932 14.5699 11.5477 14.1835 11.8295C13.7971 12.1113 13.5382 12.5023 13.4523 12.9333H11.3647C11.2789 12.5023 11.02 12.1113 10.6336 11.8295C10.2472 11.5477 9.75829 11.3932 9.25311 11.3932C8.74793 11.3932 8.25899 11.5477 7.87263 11.8295C7.48626 12.1113 7.2273 12.5023 7.14149 12.9333H5.59009L5.58986 9.76915ZM16.8519 12.9333H14.2752C14.3545 12.6903 14.5233 12.4763 14.7559 12.3239C14.9885 12.1715 15.2723 12.089 15.564 12.089C15.8557 12.089 16.1394 12.1715 16.372 12.3239C16.6047 12.4763 16.7735 12.6903 16.8528 12.9333H16.8519ZM10.541 12.9333H7.9643C8.04361 12.6903 8.21241 12.4763 8.44504 12.3239C8.67767 12.1715 8.9614 12.089 9.25311 12.089C9.54482 12.089 9.82856 12.1715 10.0612 12.3239C10.2938 12.4763 10.4626 12.6903 10.5419 12.9333H10.541ZM4.42229 13.6298H20.3939C20.5123 13.63 20.6259 13.6707 20.7097 13.7433C20.7934 13.8158 20.8406 13.9141 20.8407 14.0167V16.9819H3.97641V14.0167C3.97665 13.9142 4.02378 13.816 4.10749 13.7436C4.19119 13.6712 4.30464 13.6304 4.42298 13.6302L4.42229 13.6298ZM3.97549 17.7891V17.6782H20.8398V17.7891C20.8396 17.8916 20.7924 17.9899 20.7087 18.0624C20.6249 18.1348 20.5114 18.1756 20.393 18.1757H4.42298C4.3046 18.1756 4.19111 18.1348 4.10741 18.0623C4.0237 17.9898 3.97659 17.8916 3.97641 17.7891H3.97549ZM5.26395 18.8722H19.5522V19.3035H5.26464L5.26395 18.8722Z" fill="#0986E2"/>
<path d="M1.26135 0.696517H12.0062V2.48219H11.6182C11.5116 2.48219 11.4093 2.51888 11.3338 2.58419C11.2584 2.6495 11.216 2.73808 11.216 2.83045V4.11104L10.1588 5.81771C10.1259 5.87077 10.1094 5.93032 10.111 5.99053C10.1126 6.05074 10.1322 6.10957 10.168 6.16126C10.2037 6.21294 10.2542 6.25573 10.3147 6.28544C10.3753 6.31514 10.4436 6.33076 10.5132 6.33075H14.3055C14.3751 6.33076 14.4434 6.31514 14.5039 6.28544C14.5645 6.25573 14.615 6.21294 14.6507 6.16126C14.6864 6.10957 14.7061 6.05074 14.7077 5.99053C14.7093 5.93032 14.6928 5.87077 14.6599 5.81771L13.6027 4.11104V2.83045C13.6027 2.73808 13.5603 2.6495 13.4849 2.58419C13.4094 2.51888 13.3071 2.48219 13.2004 2.48219H12.8106V0.696517H23.5555C23.6622 0.696517 23.7645 0.659826 23.8399 0.594515C23.9153 0.529203 23.9577 0.440623 23.9577 0.348259C23.9577 0.255895 23.9153 0.167314 23.8399 0.102003C23.7645 0.0366914 23.6622 2.75266e-09 23.5555 0H1.26135C1.15467 2.75266e-09 1.05237 0.0366914 0.976937 0.102003C0.901507 0.167314 0.859131 0.255895 0.859131 0.348259C0.859131 0.440623 0.901507 0.529203 0.976937 0.594515C1.05237 0.659826 1.15467 0.696517 1.26135 0.696517ZM12.7964 3.85075H12.0205V3.17871H12.7964V3.85075ZM11.1848 5.63463L11.8589 4.54726H12.958L13.6321 5.63463H11.1848Z" fill="#0986E2"/>
</svg>
