<svg width="21" height="22" viewBox="0 0 21 22" fill="none" xmlns="http://www.w3.org/2000/svg">
<path d="M15.8498 13.5705C15.8372 13.5634 15.8243 13.5571 15.811 13.5514C15.3808 13.3437 14.9343 13.1715 14.4761 13.0365C14.6303 12.823 14.7674 12.5976 14.886 12.3625L15.5512 12.2986C15.6461 12.2895 15.7341 12.2454 15.7981 12.1749C15.8622 12.1044 15.8977 12.0126 15.8977 11.9173V11.2814C15.9332 11.3246 15.9779 11.3593 16.0284 11.3833C16.0789 11.4072 16.1341 11.4197 16.1901 11.4199C16.8332 11.4204 17.4527 11.1777 17.9244 10.7406C18.3961 10.3034 18.6852 9.70414 18.7337 9.06285C18.7821 8.42155 18.5863 7.78565 18.1856 7.28261C17.785 6.77957 17.2089 6.44658 16.573 6.3504V5.18112C16.5735 2.32434 13.823 0 10.4426 0C7.06208 0 4.31166 2.32434 4.31166 5.18112V6.35018C3.67577 6.44636 3.09973 6.77935 2.69903 7.28239C2.29833 7.78543 2.10259 8.42133 2.15103 9.06263C2.19948 9.70392 2.48854 10.3032 2.96026 10.7403C3.43199 11.1775 4.05151 11.4201 4.69463 11.4197C4.79621 11.4197 4.89362 11.3793 4.96544 11.3075C5.03726 11.2357 5.07761 11.1383 5.07761 11.0367V10.975H5.54046C5.66864 11.7192 5.96545 12.4243 6.40818 13.0361C5.95131 13.1707 5.50617 13.3423 5.07717 13.5493C5.06212 13.5556 5.0475 13.5629 5.0334 13.5711C3.52908 14.3098 2.26086 15.4537 1.37157 16.8742C0.482288 18.2946 0.00726389 19.9352 0 21.611C0.000112852 21.6611 0.0101308 21.7106 0.0294767 21.7567C0.0488226 21.8029 0.0771133 21.8447 0.112717 21.8799C0.14832 21.915 0.190532 21.9428 0.236918 21.9616C0.283303 21.9803 0.332944 21.9897 0.382976 21.9892C0.485042 21.9881 0.582545 21.9467 0.654269 21.8741C0.725992 21.8015 0.766132 21.7035 0.765953 21.6014C0.773112 20.1047 1.18858 18.6383 1.96757 17.3603C2.74657 16.0823 3.85955 15.0411 5.18659 14.3489L8.06548 16.5573C8.13267 16.6088 8.21506 16.6367 8.29976 16.6365C8.38446 16.6362 8.46669 16.6079 8.53359 16.556L8.88702 16.2815L10.0073 17.4353L8.69553 21.4933C8.67911 21.5414 8.67243 21.5923 8.67587 21.643C8.67932 21.6937 8.69282 21.7432 8.71559 21.7886C8.73837 21.8341 8.76996 21.8745 8.80852 21.9076C8.84708 21.9407 8.89185 21.9658 8.94021 21.9814C8.98858 21.9971 9.03956 22.0029 9.09021 21.9986C9.14085 21.9944 9.19014 21.98 9.23519 21.9565C9.28025 21.933 9.32017 21.9008 9.35263 21.8617C9.3851 21.8225 9.40945 21.7774 9.42428 21.7288L10.4426 18.5787L11.4606 21.7285C11.4755 21.7772 11.4998 21.8223 11.5323 21.8614C11.5647 21.9005 11.6047 21.9328 11.6497 21.9563C11.6948 21.9798 11.7441 21.9941 11.7947 21.9984C11.8453 22.0027 11.8963 21.9969 11.9447 21.9812C11.9931 21.9656 12.0378 21.9405 12.0764 21.9074C12.115 21.8743 12.1465 21.8338 12.1693 21.7884C12.1921 21.743 12.2056 21.6935 12.209 21.6428C12.2125 21.592 12.2058 21.5412 12.1894 21.4931L10.8778 17.435L11.9981 16.2813L12.3515 16.5555C12.4184 16.6075 12.5007 16.6358 12.5854 16.636C12.6701 16.6363 12.7525 16.6084 12.8196 16.5568L15.6968 14.3487C17.0238 15.0409 18.1368 16.0821 18.9158 17.3601C19.6948 18.6381 20.1103 20.1045 20.1174 21.6012V21.6108C20.1175 21.6608 20.1276 21.7104 20.1469 21.7565C20.1662 21.8026 20.1945 21.8445 20.2301 21.8797C20.2657 21.9148 20.308 21.9426 20.3543 21.9613C20.4007 21.9801 20.4504 21.9895 20.5004 21.989C20.6025 21.9879 20.7 21.9465 20.7717 21.8739C20.8434 21.8013 20.8836 21.7032 20.8834 21.6012C20.875 19.9267 20.3994 18.2878 19.5101 16.869C18.6208 15.4502 17.3531 14.3078 15.8498 13.5705ZM6.08385 7.10344C5.95627 6.05956 5.92213 4.21274 6.99709 3.00166C7.72277 2.1845 8.85726 1.77351 10.3763 1.77351C10.8438 1.77582 11.3106 1.80952 11.7736 1.8744C11.7823 1.8744 11.7909 1.87636 11.7994 1.87702C12.5858 1.98154 13.3035 2.37962 13.8086 2.99137C14.5233 3.85296 14.8229 5.11416 14.701 6.7441C13.7621 6.36048 12.9834 5.66611 12.4951 4.77714C12.4092 4.6072 12.3347 4.43174 12.2721 4.25191C12.247 4.18054 12.2013 4.11821 12.1407 4.07279C12.0802 4.02736 12.0076 4.00089 11.9321 3.9967C11.8565 3.99251 11.7814 4.01079 11.7162 4.04924C11.6511 4.08769 11.5988 4.14458 11.5659 4.21274C11.3572 4.63013 11.0181 4.96815 10.6001 5.17565C9.84862 5.57049 9.04908 5.8662 8.22152 6.0554C7.41989 6.26265 6.75089 6.43575 6.08385 7.10344ZM15.8075 10.2091H15.4153C15.4153 10.1826 15.4173 10.1563 15.4173 10.1298V7.52822H15.8075V10.2091ZM17.9754 8.86842C17.9748 9.27512 17.8356 9.66947 17.5807 9.98641C17.3259 10.3033 16.9706 10.5239 16.5735 10.6117V7.12555C16.9705 7.21344 17.3257 7.43404 17.5806 7.75096C17.8354 8.06788 17.9746 8.4622 17.9752 8.86885L17.9754 8.86842ZM5.07761 5.18112C5.07761 2.74649 7.48489 0.765952 10.4426 0.765952C13.4002 0.765952 15.8075 2.74649 15.8075 5.18112V6.76227H15.4661C15.5946 4.94586 15.2374 3.51375 14.3982 2.50226C13.7615 1.7336 12.8555 1.23695 11.865 1.1137C9.36629 0.77777 7.535 1.2415 6.4235 2.49241C5.29033 3.76827 5.18441 5.55316 5.27676 6.76161H5.07673V5.18112H5.07761ZM2.90996 8.86885C2.91052 8.46213 3.04971 8.06774 3.30457 7.75077C3.55944 7.4338 3.91475 7.21318 4.31188 7.12533V10.6124C3.91473 10.5246 3.5594 10.304 3.30453 9.98698C3.04965 9.67 2.91048 9.27559 2.90996 8.86885ZM5.07761 10.2091V7.52822H5.36867C5.40872 7.77529 5.44811 7.95256 5.46781 8.0355V10.1303C5.46781 10.157 5.46934 10.183 5.46978 10.2095L5.07761 10.2091ZM6.23376 8.11253C6.90167 7.18967 7.47854 7.03823 8.41323 6.79662C9.2988 6.59167 10.1544 6.27386 10.959 5.851C11.2902 5.67929 11.5878 5.44951 11.8377 5.17259C12.6222 6.66641 14.046 7.32579 14.6514 7.54835V10.1307C14.6506 10.6483 14.5537 11.1613 14.3656 11.6436L11.4696 11.9206C11.3558 11.6779 11.1599 11.4831 10.9165 11.3707C10.673 11.2583 10.3978 11.2354 10.1391 11.3061C9.88052 11.3768 9.65517 11.5366 9.50283 11.7572C9.35049 11.9779 9.28095 12.2452 9.30646 12.5121C9.33197 12.779 9.4509 13.0283 9.64227 13.2161C9.83365 13.4039 10.0852 13.518 10.3525 13.5385C10.6198 13.5589 10.8858 13.4843 11.1035 13.3278C11.3212 13.1713 11.4767 12.943 11.5425 12.6831L13.9497 12.4522C13.451 13.2068 12.7224 13.7805 11.8719 14.0883C11.0214 14.3961 10.0943 14.4216 9.2282 14.1609C8.36207 13.9003 7.60303 13.3674 7.06363 12.6414C6.52424 11.9153 6.23323 11.0348 6.23376 10.1303V8.11253ZM8.29789 15.7696L5.98056 13.9913C6.30056 13.8666 6.62826 13.7625 6.96164 13.6799C7.61351 14.3204 8.42934 14.7687 9.31946 14.9757L8.29789 15.7696ZM10.4426 16.7838L9.49584 15.8088L10.4034 15.1041H10.4428C10.4428 15.1041 10.4688 15.1041 10.4822 15.1041L11.3897 15.8088L10.4426 16.7838ZM12.5872 15.7696L11.5648 14.9757C12.4551 14.7688 13.2712 14.3205 13.9233 13.6799C14.2566 13.7625 14.5843 13.8666 14.9043 13.9913L12.5872 15.7696Z" fill="#0986E2"/>
<path d="M16.4579 18.0655C16.3563 18.0655 16.2589 18.1059 16.1871 18.1777C16.1153 18.2495 16.0749 18.3469 16.0749 18.4485V21.6108C16.0749 21.7124 16.1153 21.8098 16.1871 21.8816C16.2589 21.9534 16.3563 21.9938 16.4579 21.9938C16.5595 21.9938 16.6569 21.9534 16.7287 21.8816C16.8005 21.8098 16.8409 21.7124 16.8409 21.6108V18.4483C16.8408 18.3468 16.8004 18.2494 16.7286 18.1776C16.6568 18.1059 16.5594 18.0655 16.4579 18.0655Z" fill="#0986E2"/>
<path d="M4.42723 18.0655C4.32566 18.0655 4.22824 18.1059 4.15642 18.1777C4.0846 18.2495 4.04425 18.3469 4.04425 18.4485V21.6108C4.04425 21.7124 4.0846 21.8098 4.15642 21.8816C4.22824 21.9534 4.32566 21.9938 4.42723 21.9938C4.5288 21.9938 4.62621 21.9534 4.69803 21.8816C4.76985 21.8098 4.8102 21.7124 4.8102 21.6108V18.4483C4.81014 18.3468 4.76977 18.2494 4.69795 18.1776C4.62614 18.1059 4.52876 18.0655 4.42723 18.0655Z" fill="#0986E2"/>
<path d="M11.6462 8.26812C11.655 8.41679 11.7171 8.55731 11.8211 8.66395C11.9251 8.77059 12.0639 8.83623 12.2123 8.84885C12.3607 8.86147 12.5087 8.82023 12.6292 8.73268C12.7497 8.64513 12.8346 8.51711 12.8684 8.37207H13.5539C13.6554 8.37207 13.7528 8.33172 13.8247 8.2599C13.8965 8.18808 13.9368 8.09067 13.9368 7.98909C13.9368 7.88752 13.8965 7.79011 13.8247 7.71829C13.7528 7.64647 13.6554 7.60612 13.5539 7.60612H11.9073C11.8304 7.60581 11.7552 7.62872 11.6915 7.67186C11.6279 7.715 11.5787 7.77636 11.5505 7.84789C11.5223 7.91943 11.5163 7.99782 11.5334 8.0728C11.5505 8.14778 11.5898 8.21585 11.6462 8.26812Z" fill="#0986E2"/>
<path d="M8.62024 8.8509C8.77811 8.85054 8.92991 8.79009 9.04482 8.68185C9.15973 8.57361 9.22913 8.42568 9.23891 8.26812C9.29531 8.21587 9.33462 8.14781 9.3517 8.07285C9.36878 7.99789 9.36284 7.91952 9.33466 7.84799C9.30647 7.77647 9.25735 7.71511 9.19373 7.67196C9.1301 7.6288 9.05493 7.60585 8.97805 7.60612H7.33104C7.22946 7.60612 7.13205 7.64647 7.06023 7.71829C6.98841 7.79011 6.94806 7.88752 6.94806 7.98909C6.94806 8.09067 6.98841 8.18808 7.06023 8.2599C7.13205 8.33172 7.22946 8.37207 7.33104 8.37207H8.01645C8.0487 8.5081 8.1258 8.6293 8.23533 8.71617C8.34486 8.80303 8.48045 8.85049 8.62024 8.8509Z" fill="#0986E2"/>
</svg>
