<svg width="36" height="22" viewBox="0 0 36 22" fill="none" xmlns="http://www.w3.org/2000/svg">
<path d="M34.897 8.30563L31.6749 7.43197V2.35179C31.6741 1.72828 31.4261 1.13051 30.9852 0.689623C30.5444 0.248732 29.9466 0.000722821 29.3231 0H2.35179C1.72828 0.000722821 1.13051 0.248732 0.689623 0.689623C0.248733 1.13051 0.000722821 1.72828 0 2.35179V16.1591C0.000722821 16.7826 0.248733 17.3804 0.689623 17.8213C1.13051 18.2622 1.72828 18.5102 2.35179 18.5109H2.92472C3.05255 19.4763 3.52681 20.3624 4.25924 21.0043C4.99167 21.6461 5.93236 22 6.90623 22C7.8801 22 8.8208 21.6461 9.55322 21.0043C10.2857 20.3624 10.7599 19.4763 10.8877 18.5109H24.9706C25.0984 19.4763 25.5727 20.3624 26.3051 21.0043C27.0375 21.6461 27.9782 22 28.9521 22C29.926 22 30.8667 21.6461 31.5991 21.0043C32.3315 20.3624 32.8058 19.4763 32.9336 18.5109H33.6079C34.2314 18.5102 34.8292 18.2622 35.2701 17.8213C35.711 17.3804 35.959 16.7826 35.9597 16.1591V9.69849C35.9587 9.3822 35.8543 9.07491 35.6624 8.82345C35.4706 8.57199 35.2018 8.39014 34.897 8.30563ZM6.90608 20.9386C6.12223 20.9376 5.37072 20.626 4.8162 20.072C4.26168 19.518 3.94936 18.7667 3.94768 17.9829V17.9768C3.94828 17.3917 4.12232 16.82 4.4478 16.3338C4.77329 15.8477 5.2356 15.4689 5.77631 15.2455C6.31701 15.022 6.91183 14.9639 7.48557 15.0784C8.05931 15.1929 8.58622 15.475 8.99968 15.8889C9.41315 16.3028 9.69462 16.8301 9.8085 17.4039C9.92238 17.9778 9.86357 18.5726 9.6395 19.113C9.41542 19.6535 9.03615 20.1153 8.54962 20.4403C8.06309 20.7652 7.49114 20.9386 6.90608 20.9386ZM19.0362 17.4488V4.09667H23.4421V17.4488H19.0362ZM28.9519 20.9386C28.1686 20.9375 27.4175 20.6262 26.8631 20.0728C26.3087 19.5194 25.996 18.769 25.9935 17.9856V17.9798V17.9741C25.9947 17.3891 26.1692 16.8177 26.495 16.3319C26.8208 15.846 27.2833 15.4677 27.8241 15.2447C28.3648 15.0216 28.9595 14.9639 29.5331 15.0787C30.1067 15.1936 30.6333 15.4758 31.0465 15.8899C31.4597 16.3039 31.7409 16.8311 31.8546 17.4049C31.9682 17.9787 31.9092 18.5733 31.6851 19.1136C31.4609 19.6539 31.0817 20.1157 30.5952 20.4405C30.1087 20.7653 29.5369 20.9386 28.9519 20.9386ZM33.6079 17.4488H32.9336C32.8058 16.4834 32.3315 15.5972 31.5991 14.9554C30.8667 14.3135 29.926 13.9597 28.9521 13.9597C27.9782 13.9597 27.0375 14.3135 26.3051 14.9554C25.5727 15.5972 25.0984 16.4834 24.9706 17.4488H24.5042V3.56562C24.5042 3.42478 24.4482 3.2897 24.3486 3.19011C24.249 3.09052 24.114 3.03457 23.9731 3.03457H18.5051C18.3643 3.03457 18.2292 3.09052 18.1296 3.19011C18.03 3.2897 17.9741 3.42478 17.9741 3.56562V11.1126H6.41812C6.27728 11.1126 6.1422 11.1686 6.04261 11.2681C5.94302 11.3677 5.88707 11.5028 5.88707 11.6437C5.88707 11.7845 5.94302 11.9196 6.04261 12.0192C6.1422 12.1188 6.27728 12.1747 6.41812 12.1747H17.9741V17.4488H10.8877C10.7599 16.4834 10.2857 15.5972 9.55322 14.9554C8.8208 14.3135 7.8801 13.9597 6.90623 13.9597C5.93236 13.9597 4.99167 14.3135 4.25924 14.9554C3.52681 15.5972 3.05255 16.4834 2.92472 17.4488H2.35179C2.00987 17.4484 1.68206 17.3124 1.44029 17.0706C1.19851 16.8288 1.0625 16.501 1.0621 16.1591V12.1762H2.35179C2.49264 12.1762 2.62771 12.1203 2.7273 12.0207C2.82689 11.9211 2.88284 11.786 2.88284 11.6452C2.88284 11.5043 2.82689 11.3693 2.7273 11.2697C2.62771 11.1701 2.49264 11.1141 2.35179 11.1141H1.0621V2.35179C1.0625 2.00987 1.19851 1.68206 1.44029 1.44029C1.68206 1.19851 2.00987 1.0625 2.35179 1.0621H29.3231C29.665 1.0625 29.9928 1.19851 30.2346 1.44029C30.4764 1.68206 30.6124 2.00987 30.6128 2.35179V3.03457H27.5958C27.526 3.03453 27.457 3.04824 27.3925 3.07492C27.3281 3.10159 27.2695 3.1407 27.2202 3.19002C27.1709 3.23934 27.1318 3.2979 27.1051 3.36235C27.0784 3.4268 27.0647 3.49587 27.0647 3.56562V7.83314C27.0647 7.97399 27.1207 8.10906 27.2203 8.20865C27.3199 8.30824 27.455 8.36419 27.5958 8.36419H31.0528L34.616 9.33131C34.6967 9.35357 34.7679 9.40162 34.8188 9.46814C34.8696 9.53466 34.8973 9.61598 34.8976 9.69971V11.1153H33.6079C33.467 11.1153 33.332 11.1713 33.2324 11.2709C33.1328 11.3705 33.0768 11.5055 33.0768 11.6464C33.0768 11.7872 33.1328 11.9223 33.2324 12.0219C33.332 12.1215 33.467 12.1774 33.6079 12.1774H34.8976V16.1591C34.8972 16.501 34.7612 16.8288 34.5194 17.0706C34.2776 17.3124 33.9498 17.4484 33.6079 17.4488ZM30.6113 4.09667V7.30209H28.1268V4.09667H30.6113Z" fill="#0986E2"/>
</svg>
