<svg width="94" height="31" viewBox="0 0 94 31" fill="none" xmlns="http://www.w3.org/2000/svg">
<rect width="94" height="31" rx="6" fill="url(#paint0_linear_222_2083)"/>
<path d="M13.291 19V10.4688H16.2148C17.1797 10.4688 17.9141 10.6621 18.418 11.0488C18.9219 11.4355 19.1738 12.0117 19.1738 12.7773C19.1738 13.168 19.0684 13.5195 18.8574 13.832C18.6465 14.1445 18.3379 14.3867 17.9316 14.5586C18.3926 14.6836 18.748 14.9199 18.998 15.2676C19.252 15.6113 19.3789 16.0254 19.3789 16.5098C19.3789 17.3105 19.1211 17.9258 18.6055 18.3555C18.0938 18.7852 17.3594 19 16.4023 19H13.291ZM14.7734 15.1504V17.8164H16.4199C16.8848 17.8164 17.248 17.7012 17.5098 17.4707C17.7715 17.2402 17.9023 16.9199 17.9023 16.5098C17.9023 15.623 17.4492 15.1699 16.543 15.1504H14.7734ZM14.7734 14.0605H16.2266C16.6875 14.0605 17.0469 13.957 17.3047 13.75C17.5664 13.5391 17.6973 13.2422 17.6973 12.8594C17.6973 12.4375 17.5762 12.1328 17.334 11.9453C17.0957 11.7578 16.7227 11.6641 16.2148 11.6641H14.7734V14.0605ZM24.5645 18.3789C24.1465 18.8711 23.5527 19.1172 22.7832 19.1172C22.0957 19.1172 21.5742 18.916 21.2188 18.5137C20.8672 18.1113 20.6914 17.5293 20.6914 16.7676V12.6602H22.1152V16.75C22.1152 17.5547 22.4492 17.957 23.1172 17.957C23.8086 17.957 24.2754 17.709 24.5176 17.2129V12.6602H25.9414V19H24.5996L24.5645 18.3789ZM29.6094 16.9609L30.8984 12.6602H32.416L29.8965 19.9609C29.5098 21.0273 28.8535 21.5605 27.9277 21.5605C27.7207 21.5605 27.4922 21.5254 27.2422 21.4551V20.3535L27.5117 20.3711C27.8711 20.3711 28.1406 20.3047 28.3203 20.1719C28.5039 20.043 28.6484 19.8242 28.7539 19.5156L28.959 18.9707L26.7324 12.6602H28.2676L29.6094 16.9609ZM37.8477 15.8301V19H36.3652V10.4688H39.6289C40.582 10.4688 41.3379 10.7168 41.8965 11.2129C42.459 11.709 42.7402 12.3652 42.7402 13.1816C42.7402 14.0176 42.4648 14.668 41.9141 15.1328C41.3672 15.5977 40.5996 15.8301 39.6113 15.8301H37.8477ZM37.8477 14.6406H39.6289C40.1562 14.6406 40.5586 14.5176 40.8359 14.2715C41.1133 14.0215 41.252 13.6621 41.252 13.1934C41.252 12.7324 41.1113 12.3652 40.8301 12.0918C40.5488 11.8145 40.1621 11.6719 39.6699 11.6641H37.8477V14.6406ZM47.2227 13.9609C47.0352 13.9297 46.8418 13.9141 46.6426 13.9141C45.9902 13.9141 45.5508 14.1641 45.3242 14.6641V19H43.9004V12.6602H45.2598L45.2949 13.3691C45.6387 12.8184 46.1152 12.543 46.7246 12.543C46.9277 12.543 47.0957 12.5703 47.2285 12.625L47.2227 13.9609ZM47.6445 15.7715C47.6445 15.1504 47.7676 14.5918 48.0137 14.0957C48.2598 13.5957 48.6055 13.2129 49.0508 12.9473C49.4961 12.6777 50.0078 12.543 50.5859 12.543C51.4414 12.543 52.1348 12.8184 52.666 13.3691C53.2012 13.9199 53.4902 14.6504 53.5332 15.5605L53.5391 15.8945C53.5391 16.5195 53.418 17.0781 53.1758 17.5703C52.9375 18.0625 52.5938 18.4434 52.1445 18.7129C51.6992 18.9824 51.1836 19.1172 50.5977 19.1172C49.7031 19.1172 48.9863 18.8203 48.4473 18.2266C47.9121 17.6289 47.6445 16.834 47.6445 15.8418V15.7715ZM49.0684 15.8945C49.0684 16.5469 49.2031 17.0586 49.4727 17.4297C49.7422 17.7969 50.1172 17.9805 50.5977 17.9805C51.0781 17.9805 51.4512 17.793 51.7168 17.418C51.9863 17.043 52.1211 16.4941 52.1211 15.7715C52.1211 15.1309 51.9824 14.623 51.7051 14.248C51.4316 13.873 51.0586 13.6855 50.5859 13.6855C50.1211 13.6855 49.752 13.8711 49.4785 14.2422C49.2051 14.6094 49.0684 15.1602 49.0684 15.8945ZM60.2949 15.8945C60.2949 16.875 60.0723 17.6582 59.627 18.2441C59.1816 18.8262 58.584 19.1172 57.834 19.1172C57.1387 19.1172 56.582 18.8887 56.1641 18.4316V21.4375H54.7402V12.6602H56.0527L56.1113 13.3047C56.5293 12.7969 57.0977 12.543 57.8164 12.543C58.5898 12.543 59.1953 12.832 59.6328 13.4102C60.0742 13.9844 60.2949 14.7832 60.2949 15.8066V15.8945ZM58.877 15.7715C58.877 15.1387 58.75 14.6367 58.4961 14.2656C58.2461 13.8945 57.8867 13.709 57.418 13.709C56.8359 13.709 56.418 13.9492 56.1641 14.4297V17.2422C56.4219 17.7344 56.8438 17.9805 57.4297 17.9805C57.8828 17.9805 58.2363 17.7988 58.4902 17.4355C58.748 17.0684 58.877 16.5137 58.877 15.7715ZM64.2969 19.1172C63.3945 19.1172 62.6621 18.834 62.0996 18.2676C61.541 17.6973 61.2617 16.9395 61.2617 15.9941V15.8184C61.2617 15.1855 61.3828 14.6211 61.625 14.125C61.8711 13.625 62.2148 13.2363 62.6562 12.959C63.0977 12.6816 63.5898 12.543 64.1328 12.543C64.9961 12.543 65.6621 12.8184 66.1309 13.3691C66.6035 13.9199 66.8398 14.6992 66.8398 15.707V16.2812H62.6973C62.7402 16.8047 62.9141 17.2188 63.2188 17.5234C63.5273 17.8281 63.9141 17.9805 64.3789 17.9805C65.0312 17.9805 65.5625 17.7168 65.9727 17.1895L66.7402 17.9219C66.4863 18.3008 66.1465 18.5957 65.7207 18.8066C65.2988 19.0137 64.8242 19.1172 64.2969 19.1172ZM64.127 13.6855C63.7363 13.6855 63.4199 13.8223 63.1777 14.0957C62.9395 14.3691 62.7871 14.75 62.7207 15.2383H65.4336V15.1328C65.4023 14.6562 65.2754 14.2969 65.0527 14.0547C64.8301 13.8086 64.5215 13.6855 64.127 13.6855ZM71.2695 13.9609C71.082 13.9297 70.8887 13.9141 70.6895 13.9141C70.0371 13.9141 69.5977 14.1641 69.3711 14.6641V19H67.9473V12.6602H69.3066L69.3418 13.3691C69.6855 12.8184 70.1621 12.543 70.7715 12.543C70.9746 12.543 71.1426 12.5703 71.2754 12.625L71.2695 13.9609ZM74.2461 11.1191V12.6602H75.3652V13.7148H74.2461V17.2539C74.2461 17.4961 74.293 17.6719 74.3867 17.7812C74.4844 17.8867 74.6562 17.9395 74.9023 17.9395C75.0664 17.9395 75.2324 17.9199 75.4004 17.8809V18.9824C75.0762 19.0723 74.7637 19.1172 74.4629 19.1172C73.3691 19.1172 72.8223 18.5137 72.8223 17.3066V13.7148H71.7793V12.6602H72.8223V11.1191H74.2461ZM78.6758 16.9609L79.9648 12.6602H81.4824L78.9629 19.9609C78.5762 21.0273 77.9199 21.5605 76.9941 21.5605C76.7871 21.5605 76.5586 21.5254 76.3086 21.4551V20.3535L76.5781 20.3711C76.9375 20.3711 77.207 20.3047 77.3867 20.1719C77.5703 20.043 77.7148 19.8242 77.8203 19.5156L78.0254 18.9707L75.7988 12.6602H77.334L78.6758 16.9609Z" fill="white"/>
<defs>
<linearGradient id="paint0_linear_222_2083" x1="47" y1="0" x2="47" y2="31" gradientUnits="userSpaceOnUse">
<stop stop-color="#FECC6C"/>
<stop offset="1" stop-color="#FEAB39"/>
</linearGradient>
</defs>
</svg>
