<svg width="25" height="27" viewBox="0 0 25 27" fill="none" xmlns="http://www.w3.org/2000/svg">
<path d="M24.8328 15.9802L20.367 12.2417V6.67631C20.3647 4.93328 19.6817 3.26008 18.4636 2.01333C17.2454 0.766581 15.5886 0.0448724 13.8461 0.00202268C12.1036 -0.040827 10.4132 0.598571 9.13531 1.78394C7.85739 2.96931 7.09297 4.60691 7.00495 6.34773L0.24604 9.97496C0.136967 10.0335 0.0556123 10.133 0.0198748 10.2515C-0.0158626 10.37 -0.00305592 10.4978 0.0554776 10.6069C0.114011 10.716 0.213476 10.7973 0.331993 10.8331C0.450509 10.8688 0.578368 10.856 0.687442 10.7975L1.51557 10.3526V18.2645C1.51557 18.3883 1.56474 18.507 1.65227 18.5945C1.7398 18.6821 1.85852 18.7312 1.98231 18.7312H5.58847C5.71225 18.7312 5.83097 18.6821 5.9185 18.5945C6.00603 18.507 6.0552 18.3883 6.0552 18.2645V14.84H8.86817V18.2645C8.86817 18.3883 8.91735 18.507 9.00488 18.5945C9.09241 18.6821 9.21113 18.7312 9.33491 18.7312H12.9411C13.0649 18.7312 13.1836 18.6821 13.2711 18.5945C13.3586 18.507 13.4078 18.3883 13.4078 18.2645V10.3558L14.2469 10.8004C14.3563 10.8584 14.4842 10.8705 14.6025 10.8342C14.7209 10.7978 14.8199 10.7159 14.8779 10.6065C14.9359 10.4971 14.948 10.3692 14.9116 10.2508C14.8753 10.1325 14.7934 10.0335 14.684 9.97549L7.94243 6.40374C8.00507 4.89834 8.65628 3.47772 9.75589 2.44766C10.8555 1.41761 12.3156 0.86049 13.8219 0.89622C15.3281 0.931949 16.7602 1.55767 17.8097 2.6387C18.8592 3.71974 19.4424 5.16964 19.4335 6.67631V12.2417L14.9656 15.9802C14.9133 16.0239 14.8712 16.0787 14.8423 16.1405C14.8134 16.2024 14.7984 16.2698 14.7984 16.3381V26.3284C14.7984 26.4522 14.8476 26.5709 14.9351 26.6585C15.0227 26.746 15.1414 26.7952 15.2652 26.7952H24.5333C24.657 26.7952 24.7758 26.746 24.8633 26.6585C24.9508 26.5709 25 26.4522 25 26.3284V16.3381C25 16.2698 24.985 16.2024 24.9561 16.1405C24.9273 16.0787 24.8851 16.0239 24.8328 15.9802ZM7.06256 9.30632C7.10377 9.37633 7.16268 9.43427 7.23337 9.47431C7.30405 9.51435 7.38403 9.53509 7.46527 9.53444C7.54651 9.53379 7.62614 9.51178 7.69618 9.47062C7.76622 9.42945 7.8242 9.37058 7.86428 9.29992C7.91117 9.37408 7.93622 9.45995 7.93656 9.54769C7.93656 9.67268 7.88691 9.79255 7.79853 9.88093C7.71015 9.96931 7.59028 10.019 7.46529 10.019C7.3403 10.019 7.22043 9.96931 7.13205 9.88093C7.04367 9.79255 6.99402 9.67268 6.99402 9.54769C6.99438 9.46248 7.01808 9.379 7.06256 9.30632ZM12.4743 17.7978H9.80165V14.3732C9.80165 14.2495 9.75248 14.1307 9.66495 14.0432C9.57742 13.9557 9.4587 13.9065 9.33491 13.9065H5.58847C5.46468 13.9065 5.34596 13.9557 5.25843 14.0432C5.1709 14.1307 5.12173 14.2495 5.12173 14.3732V17.7978H2.44905V9.8512L6.99508 7.41189V8.22989C6.68251 8.34075 6.41922 8.5586 6.25179 8.84489C6.08436 9.13118 6.02358 9.46746 6.0802 9.79424C6.13682 10.121 6.3072 10.4173 6.56119 10.6305C6.81518 10.8438 7.13641 10.9604 7.46806 10.9596C7.79972 10.9588 8.12042 10.8408 8.37343 10.6264C8.62644 10.412 8.79546 10.115 8.85059 9.78791C8.90571 9.46087 8.8434 9.12487 8.67466 8.83935C8.50592 8.55383 8.24164 8.33719 7.92856 8.22775V7.45296L12.4743 9.86134V17.7978ZM19.52 15.4417C19.5628 15.5023 19.6197 15.5517 19.6856 15.5858C19.7515 15.6199 19.8247 15.6377 19.8989 15.6377C19.9732 15.6377 20.0464 15.6199 20.1123 15.5858C20.1782 15.5517 20.235 15.5023 20.2779 15.4417C20.3298 15.5118 20.3612 15.595 20.3685 15.6819C20.3759 15.7689 20.359 15.8561 20.3197 15.934C20.2804 16.0119 20.2203 16.0774 20.146 16.1231C20.0717 16.1688 19.9862 16.1931 19.8989 16.1931C19.8117 16.1931 19.7262 16.1688 19.6519 16.1231C19.5776 16.0774 19.5175 16.0119 19.4782 15.934C19.4389 15.8561 19.422 15.7689 19.4294 15.6819C19.4367 15.595 19.4681 15.5118 19.52 15.4417ZM24.0663 25.8617H15.7319V16.556L19.4335 13.459V14.4004C19.1209 14.5106 18.8572 14.7278 18.6892 15.0136C18.5212 15.2994 18.4597 15.6354 18.5156 15.9621C18.5715 16.2889 18.7411 16.5854 18.9945 16.7991C19.2479 17.0129 19.5688 17.1301 19.9003 17.1301C20.2318 17.1301 20.5526 17.0129 20.806 16.7991C21.0594 16.5854 21.2291 16.2889 21.2849 15.9621C21.3408 15.6354 21.2793 15.2994 21.1113 15.0136C20.9433 14.7278 20.6797 14.5106 20.367 14.4004V13.459L24.0676 16.556L24.0663 25.8617Z" fill="white"/>
</svg>
