<svg width="28" height="22" viewBox="0 0 28 22" fill="none" xmlns="http://www.w3.org/2000/svg">
<path d="M27.0707 6.18417C27.0567 6.09708 27.0191 6.01562 26.962 5.94888C26.9049 5.88213 26.8306 5.83273 26.7474 5.80617L8.67449 0.0224297C8.61541 0.00343507 8.5532 -0.00360068 8.49142 0.00172478C8.42965 0.00705024 8.36951 0.0246325 8.31446 0.0534661C8.25942 0.0822996 8.21053 0.121819 8.1706 0.169764C8.13067 0.217709 8.10049 0.27314 8.08177 0.332886L6.69695 4.75743C6.67809 4.81715 6.67107 4.88005 6.67631 4.94251C6.68154 5.00498 6.69893 5.06579 6.72746 5.12145C6.75599 5.17711 6.79512 5.22653 6.84259 5.26688C6.89006 5.30722 6.94494 5.3377 7.00409 5.35656L8.50637 5.83722L7.8463 7.94451C7.82743 8.00423 7.82042 8.06712 7.82565 8.12959C7.83088 8.19206 7.84827 8.25287 7.8768 8.30853C7.90534 8.36419 7.94446 8.41361 7.99193 8.45395C8.0394 8.4943 8.09429 8.52477 8.15343 8.54363L11.1992 9.5183L10.7633 10.9115C10.7444 10.9713 10.7374 11.0342 10.7427 11.0966C10.7479 11.1591 10.7653 11.2199 10.7938 11.2756C10.8223 11.3312 10.8615 11.3806 10.9089 11.421C10.9564 11.4613 11.0113 11.4918 11.0704 11.5107L11.4444 11.6302L10.2075 15.579C10.1592 15.7347 10.063 15.8707 9.93274 15.967C9.80253 16.0634 9.64522 16.1152 9.48383 16.1147H3.06895V15.9279C3.06846 15.2316 2.79467 14.5639 2.30769 14.0715C1.82071 13.5791 1.16032 13.302 0.471484 13.3012C0.346438 13.3012 0.226515 13.3514 0.138094 13.4408C0.0496739 13.5302 0 13.6514 0 13.7778C0 13.9042 0.0496739 14.0254 0.138094 14.1148C0.226515 14.2042 0.346438 14.2544 0.471484 14.2544C0.910179 14.2549 1.33076 14.4313 1.64094 14.7449C1.95112 15.0585 2.12556 15.4836 2.12599 15.927V19.3742C2.12556 19.8176 1.95112 20.2428 1.64094 20.5564C1.33076 20.8699 0.910179 21.0463 0.471484 21.0468C0.346438 21.0468 0.226515 21.0971 0.138094 21.1864C0.0496739 21.2758 0 21.397 0 21.5234C0 21.6498 0.0496739 21.771 0.138094 21.8604C0.226515 21.9498 0.346438 22 0.471484 22C1.16018 21.9992 1.82044 21.7223 2.3074 21.23C2.79436 20.7378 3.06824 20.0703 3.06895 19.3742V19.2029L9.7686 19.2062C10.5406 19.2084 11.293 18.961 11.9159 18.5C12.5388 18.039 12.9994 17.3887 13.2304 16.6441L14.4961 12.6068L14.8701 12.7263C14.9291 12.7454 14.9914 12.7525 15.0532 12.7472C15.115 12.7419 15.1751 12.7244 15.2302 12.6955C15.2853 12.6667 15.3341 12.6271 15.3741 12.5791C15.414 12.5312 15.4441 12.4757 15.4628 12.4159L15.8995 11.0216L21.0454 12.6686C21.1045 12.6877 21.1667 12.6948 21.2285 12.6895C21.2903 12.6842 21.3505 12.6666 21.4055 12.6378C21.4606 12.6089 21.5095 12.5694 21.5494 12.5214C21.5893 12.4734 21.6195 12.4179 21.6381 12.3582L21.9221 11.451C21.976 11.4723 22.0299 11.4981 22.0859 11.5161C22.6144 11.6862 23.1801 11.6991 23.7156 11.5533C24.2512 11.4075 24.7339 11.1091 25.1063 10.6937C25.4788 10.2783 25.7252 9.76341 25.8162 9.2104C25.9072 8.65739 25.839 8.08959 25.6196 7.57468L26.8835 6.64604C26.9539 6.5941 27.0087 6.52342 27.0417 6.44188C27.0748 6.36034 27.0848 6.27113 27.0707 6.18417ZM8.83938 1.07498L25.5727 6.43008L24.7674 7.02185L24.7639 7.02458L21.9057 9.12451L7.73826 4.59076L8.83938 1.07498ZM12.3324 16.3562C12.1615 16.9074 11.8206 17.3889 11.3595 17.7302C10.8984 18.0715 10.3414 18.2547 9.76995 18.253L3.07003 18.2497V17.0667H9.48329C9.8451 17.0677 10.1977 16.9517 10.4896 16.7356C10.7815 16.5195 10.9974 16.2147 11.1057 15.8658L12.3426 11.917L13.5971 12.3184L12.3324 16.3562ZM14.7052 11.6722L14.3312 11.5526L11.8038 10.7435L12.098 9.80398L14.9994 10.7323L14.7052 11.6722ZM20.8805 11.6147L8.8876 7.77784L9.40543 6.12534L21.3986 9.9622L21.2127 10.5553C21.1865 10.6053 21.1695 10.6596 21.1623 10.7157L20.8805 11.6147ZM24.8219 9.3195C24.6655 9.8187 24.3193 10.2347 23.8596 10.476C23.3998 10.7173 22.8641 10.7641 22.3701 10.6063C22.3138 10.5883 22.2602 10.564 22.2063 10.5412L22.3933 9.94368L24.8278 8.15502C24.9423 8.53533 24.9402 8.94177 24.8219 9.32086V9.3195Z" fill="#0986E2"/>
<path d="M13.1705 3.39509L9.98709 2.56073C9.92224 2.54266 9.8537 2.53547 9.78547 2.53957C9.71723 2.54368 9.65067 2.559 9.58966 2.58465C9.52866 2.61029 9.47443 2.64574 9.43015 2.68892C9.38587 2.73211 9.35242 2.78217 9.33175 2.83617C9.31109 2.89018 9.30362 2.94706 9.30979 3.00348C9.31596 3.05991 9.33564 3.11475 9.36768 3.1648C9.39973 3.21486 9.44349 3.25913 9.49642 3.29502C9.54935 3.33092 9.61038 3.35773 9.67595 3.37388L12.8591 4.20849C12.9239 4.22655 12.9925 4.23374 13.0607 4.22964C13.1289 4.22553 13.1955 4.21021 13.2565 4.18457C13.3175 4.15892 13.3717 4.12348 13.416 4.08029C13.4603 4.0371 13.4937 3.98704 13.5144 3.93304C13.5351 3.87903 13.5425 3.82215 13.5364 3.76573C13.5302 3.70931 13.5105 3.65447 13.4785 3.60441C13.4464 3.55435 13.4027 3.51008 13.3497 3.47419C13.2968 3.43829 13.2358 3.41148 13.1702 3.39533L13.1705 3.39509Z" fill="#0986E2"/>
<path d="M13.171 5.08927L9.9952 4.2558C9.93014 4.23646 9.86105 4.22818 9.79206 4.23148C9.72306 4.23478 9.65557 4.24957 9.59363 4.27499C9.53169 4.3004 9.47657 4.33591 9.43157 4.37939C9.38657 4.42286 9.35261 4.47342 9.33172 4.52802C9.31084 4.58263 9.30345 4.64017 9.31001 4.69719C9.31657 4.75422 9.33694 4.80956 9.3699 4.85991C9.40286 4.91026 9.44773 4.95459 9.50184 4.99023C9.55594 5.02588 9.61816 5.05211 9.68478 5.06737L12.8606 5.90084C12.9253 5.91888 12.9937 5.92606 13.0618 5.92196C13.1299 5.91786 13.1963 5.90256 13.2571 5.87695C13.318 5.85134 13.3721 5.81594 13.4163 5.77282C13.4605 5.72969 13.4938 5.6797 13.5145 5.62576C13.5351 5.57183 13.5425 5.51503 13.5364 5.45868C13.5302 5.40234 13.5106 5.34757 13.4786 5.29758C13.4466 5.24759 13.403 5.20339 13.3502 5.16754C13.2974 5.13169 13.2365 5.10492 13.171 5.08879V5.08927Z" fill="#0986E2"/>
</svg>
