<svg width="78" height="78" viewBox="0 0 78 78" fill="none" xmlns="http://www.w3.org/2000/svg">
<path d="M39 77.675C60.3596 77.675 77.675 60.3596 77.675 39C77.675 17.6404 60.3596 0.325012 39 0.325012C17.6404 0.325012 0.324997 17.6404 0.324997 39C0.324997 60.3596 17.6404 77.675 39 77.675Z" stroke="#3E67D6" stroke-width="0.5" stroke-dasharray="2 2"/>
<path d="M59.2031 15H53.4054H23.5946H17.7969C14.6011 15 12 17.5961 12 20.7856V43.9279C12 47.1174 14.6011 49.7135 17.7969 49.7135C18.2548 49.7135 18.625 49.344 18.625 48.8869V39.7953H23.5946H28.5625V43.9312V43.932C28.5625 44.8255 28.6925 45.6867 28.9161 46.5107C28.9194 46.5355 28.9294 46.5587 28.9343 46.5835C29.6374 49.1043 31.311 51.2194 33.5312 52.5062V54.6758L31.0477 54.6742C31.0469 54.6742 31.0469 54.6742 31.0469 54.6742C27.8511 54.6742 25.25 57.2702 25.25 60.4597V61.2846C25.25 61.7417 25.6202 62.1111 26.0781 62.1111C26.5361 62.1111 26.9062 61.7417 26.9062 61.2846V60.4597C26.9062 58.1811 28.7637 56.3272 31.0469 56.3272L34.3585 56.3288H34.3594H42.6406H42.6415L45.9531 56.3272C48.2363 56.3272 50.0938 58.1811 50.0938 60.4597V61.2846C50.0938 61.7417 50.4639 62.1111 50.9219 62.1111C51.3798 62.1111 51.75 61.7417 51.75 61.2846V60.4597C51.75 57.2702 49.1489 54.6742 45.9531 54.6742C45.9531 54.6742 45.9531 54.6742 45.9523 54.6742L43.4688 54.6758V52.5062C45.689 51.2194 47.3618 49.1043 48.0657 46.5835C48.0715 46.5587 48.0822 46.5355 48.0839 46.5107C48.3075 45.6867 48.4375 44.8246 48.4375 43.932C48.4375 43.9312 48.4375 43.9312 48.4375 43.9312V39.7953H53.3682C53.3822 39.7961 53.3947 39.8052 53.4096 39.8052C53.4303 39.8052 53.451 39.797 53.4717 39.7953H58.375V48.8869C58.375 49.344 58.7452 49.7135 59.2031 49.7135C62.3989 49.7135 65 47.1174 65 43.9279V20.7856C65 17.5961 62.3989 15 59.2031 15ZM38.5 52.1946C36.4785 52.1946 34.6252 51.4657 33.1859 50.2598C34.5681 50.8962 36.3179 51.3681 38.5 51.3681C40.6821 51.3681 42.4319 50.8962 43.8141 50.2598C42.3748 51.4657 40.5215 52.1946 38.5 52.1946ZM46.7812 38.9721V43.9295C46.7812 44.6767 46.6719 45.3982 46.4856 46.0875C46.0707 46.6785 43.6907 49.7151 38.5 49.7151C33.2952 49.7151 30.9425 46.7041 30.5152 46.0884C30.3281 45.3982 30.2188 44.6775 30.2188 43.9295V38.9721C30.2188 34.4147 33.9337 30.707 38.5 30.707C43.0663 30.707 46.7812 34.4147 46.7812 38.9721ZM42.7855 30.0367L44.2994 27.9754L51.7674 38.1423H48.3953C48.0963 34.5619 45.8852 31.5244 42.7855 30.0367ZM13.6562 43.9279V24.8272C14.5266 25.7149 15.6794 26.3199 16.9688 26.505V47.977C15.0815 47.5934 13.6562 45.9231 13.6562 43.9279ZM18.625 25.7446C18.625 25.2876 18.2548 24.9181 17.7969 24.9181C15.5137 24.9181 13.6562 23.0643 13.6562 20.7856C13.6562 18.5069 15.5137 16.653 17.7969 16.653H22.7665V38.1423H18.625V25.7446ZM43.6302 26.0909L41.179 29.4301C40.3252 29.1912 39.43 29.054 38.5008 29.054C33.3019 29.054 29.0296 33.0609 28.6056 38.1423H24.4235V16.653H24.4227H52.5773V36.4488L44.9685 26.0909C44.9304 26.0496 44.6786 25.7901 44.277 25.7992C43.9019 25.8083 43.6716 26.0471 43.6302 26.0909ZM41.8125 54.6758H35.1875V53.2691C36.2251 53.6369 37.3373 53.8477 38.5 53.8477C39.6627 53.8477 40.7749 53.6369 41.8125 53.2691V54.6758ZM63.3438 43.9279C63.3438 45.9231 61.9185 47.5934 60.0312 47.9761V26.505C61.3206 26.3191 62.4734 25.7149 63.3438 24.8272V43.9279ZM59.2031 24.9181C58.7452 24.9181 58.375 25.2876 58.375 25.7446V38.1423H54.2335V16.653H59.2031C61.4863 16.653 63.3438 18.5069 63.3438 20.7856C63.3438 23.0643 61.4863 24.9181 59.2031 24.9181Z" fill="#3E67D6"/>
<path d="M30.202 24.904C31.5302 24.904 32.6111 23.8231 32.6111 22.4949C32.6111 21.1667 31.5302 20.0858 30.202 20.0858C28.8738 20.0858 27.7929 21.1667 27.7929 22.4949C27.7929 23.8231 28.8738 24.904 30.202 24.904ZM30.202 21.6919C30.6453 21.6919 31.005 22.0516 31.005 22.4949C31.005 22.9382 30.6453 23.2979 30.202 23.2979C29.7587 23.2979 29.399 22.9382 29.399 22.4949C29.399 22.0516 29.7587 21.6919 30.202 21.6919Z" fill="#3E67D6"/>
</svg>
