<svg width="35" height="35" viewBox="0 0 35 35" fill="none" xmlns="http://www.w3.org/2000/svg">
<path fill-rule="evenodd" clip-rule="evenodd" d="M23.3604 15.5731L19.4302 11.6429L22.2711 8.80057L26.1998 12.7293L23.3604 15.5731ZM13.2411 25.7027L8.89961 26.0979L9.28461 21.7871L17.4761 13.5956L21.4077 17.5273L13.2411 25.7027ZM28.2969 10.7008L28.2954 10.6993L24.3025 6.70641C23.2219 5.6287 21.3654 5.57766 20.3417 6.60579L7.22253 19.725C6.74711 20.1989 6.45253 20.8289 6.39128 21.4954L5.83857 27.5766C5.80065 28.0068 5.95378 28.4327 6.26003 28.7389C6.53565 29.0145 6.90753 29.1662 7.29107 29.1662C7.33628 29.1662 7.38003 29.1647 7.42378 29.1604L13.505 28.6077C14.1729 28.5464 14.8015 28.2533 15.2754 27.7793L28.3961 14.6587C29.4577 13.5941 29.4125 11.8179 28.2969 10.7008Z" fill="white"/>
<mask id="mask0_222_1561" style="mask-type:alpha" maskUnits="userSpaceOnUse" x="5" y="5" width="25" height="25">
<path fill-rule="evenodd" clip-rule="evenodd" d="M23.3604 15.5731L19.4302 11.6429L22.2711 8.80057L26.1998 12.7293L23.3604 15.5731ZM13.2411 25.7027L8.89961 26.0979L9.28461 21.7871L17.4761 13.5956L21.4077 17.5273L13.2411 25.7027ZM28.2969 10.7008L28.2954 10.6993L24.3025 6.70641C23.2219 5.6287 21.3654 5.57766 20.3417 6.60579L7.22253 19.725C6.74711 20.1989 6.45253 20.8289 6.39128 21.4954L5.83857 27.5766C5.80065 28.0068 5.95378 28.4327 6.26003 28.7389C6.53565 29.0145 6.90753 29.1662 7.29107 29.1662C7.33628 29.1662 7.38003 29.1647 7.42378 29.1604L13.505 28.6077C14.1729 28.5464 14.8015 28.2533 15.2754 27.7793L28.3961 14.6587C29.4577 13.5941 29.4125 11.8179 28.2969 10.7008Z" fill="white"/>
</mask>
<g mask="url(#mask0_222_1561)">
</g>
</svg>
