<svg width="7" height="13" viewBox="0 0 7 13" fill="none" xmlns="http://www.w3.org/2000/svg">
<path d="M5.11538 2.49999H6.73076C6.87945 2.49999 7 2.38805 7 2.24998V0.749984C7 0.611937 6.87945 0.5 6.73076 0.5H5.11538C3.48051 0.501664 2.15562 1.7319 2.15386 3.24999V4.99999H0.269239C0.120548 4.99999 0 5.11193 0 5.25V6.75C0 6.88807 0.120548 7 0.269239 7H2.15386V12.25C2.15386 12.3881 2.27441 12.5 2.4231 12.5H4.03848C4.18717 12.5 4.30772 12.3881 4.30772 12.25V7H6.19233C6.30816 6.99993 6.41097 6.93105 6.44757 6.829L6.98602 5.32901C7.03301 5.19801 6.95674 5.05645 6.81567 5.01281C6.78831 5.00435 6.75964 5.00001 6.73079 4.99999H4.30772V3.24999C4.30769 2.83578 4.66931 2.49999 5.11538 2.49999Z" fill="white"/>
</svg>
