<svg width="25" height="25" viewBox="0 0 25 25" fill="none" xmlns="http://www.w3.org/2000/svg">
<path d="M23.1644 0H8.94512C8.71278 0 8.5269 0.185874 8.5269 0.418216V5.27416H1.83545C1.60311 5.27416 1.41724 5.46004 1.41724 5.69238V24.5818C1.41724 24.8141 1.60311 25 1.83545 25H16.0548H23.1644C23.3968 25 23.5827 24.8141 23.5827 24.5818V0.418216C23.5827 0.185874 23.3968 0 23.1644 0ZM11.1756 24.1636H6.87727V21.3755H11.1756V24.1636ZM15.6366 24.1868H12.012V20.9805C12.012 20.7481 11.8262 20.5623 11.5938 20.5623H6.45906C6.22672 20.5623 6.04084 20.7481 6.04084 20.9805V24.1868H2.25367V6.11059H15.6366V24.1868ZM22.7462 24.1636H16.473V19.8652H22.7462V24.1636ZM22.7462 19.0288H16.473V15.5437H22.7462V19.0288ZM22.7462 14.7072H16.473V11.2221H22.7462V14.7072ZM22.7462 10.4089H16.473V6.11059H22.7462V10.4089ZM22.7462 5.27416H16.0548H9.36333V0.836431H22.7462V5.27416Z" fill="#0986E2"/>
<path d="M14.4981 6.80762H3.55481C3.32247 6.80762 3.1366 6.99349 3.1366 7.22584V10.3625C3.1366 10.5716 3.32247 10.7574 3.55481 10.7574H14.4981C14.7305 10.7574 14.9163 10.5716 14.9163 10.3392V7.22584C14.9163 6.99349 14.7305 6.80762 14.4981 6.80762ZM6.8076 9.94424H3.97303V7.64405H6.8076V9.94424ZM10.2463 9.94424H7.6208V7.64405H10.2463V9.94424ZM14.0799 9.94424H11.1059V7.64405H14.0799V9.94424Z" fill="#0986E2"/>
<path d="M14.4285 11.4312H3.48517C3.25283 11.4312 3.06696 11.6171 3.06696 11.8494V14.9861C3.06696 15.1952 3.25283 15.381 3.48517 15.381H14.4285C14.6608 15.381 14.8467 15.1952 14.8467 14.9628V11.8494C14.8467 11.6171 14.6608 11.4312 14.4285 11.4312ZM6.73796 14.5678H3.90339V12.2677H6.73796V14.5678ZM10.1766 14.5678H7.55116V14.5446V12.2677H10.1766V14.5678ZM14.0103 14.5446H11.0363V12.2677H14.0103V14.5446Z" fill="#0986E2"/>
<path d="M14.4285 16.0548H3.48517C3.25283 16.0548 3.06696 16.2407 3.06696 16.473V19.6097C3.06696 19.842 3.25283 20.0279 3.48517 20.0279H14.4285V20.0046C14.6608 20.0046 14.8467 19.8188 14.8467 19.5864V16.473C14.8467 16.2407 14.6608 16.0548 14.4285 16.0548ZM6.73796 19.1914H3.90339V16.8913H6.73796V19.1914ZM10.1766 19.1682H7.55116V16.868H10.1766V19.1682ZM14.0103 19.1682H11.0363V16.868H14.0103V19.1682Z" fill="#0986E2"/>
</svg>
