<svg width="56" height="22" viewBox="0 0 56 22" fill="none" xmlns="http://www.w3.org/2000/svg">
<rect x="0.571533" width="55.2857" height="21.8571" rx="3.85714" fill="#E3FF84"/>
<path d="M17.3147 11.1311H13.0953V15.5714H11.7694V5.51673H17.9984V6.60783H13.0953V10.0469H17.3147V11.1311ZM23.2743 11.504H20.9126V15.5714H19.5798V5.51673H22.9083C24.0408 5.51673 24.911 5.77454 25.5187 6.29017C26.131 6.80579 26.4371 7.55621 26.4371 8.54142C26.4371 9.16754 26.2668 9.71309 25.9261 10.1781C25.59 10.6431 25.1204 10.9906 24.5173 11.2208L26.8791 15.4885V15.5714H25.4565L23.2743 11.504ZM20.9126 10.4198H22.9497C23.6081 10.4198 24.1306 10.2494 24.5173 9.90875C24.9087 9.56807 25.1043 9.11229 25.1043 8.54142C25.1043 7.91991 24.9179 7.44342 24.545 7.11194C24.1767 6.78047 23.6426 6.61243 22.9428 6.60783H20.9126V10.4198ZM33.985 10.9239H29.6275V14.4872H34.6894V15.5714H28.3017V5.51673H34.6204V6.60783H29.6275V9.83969H33.985V10.9239ZM42.0233 10.9239H37.6658V14.4872H42.7276V15.5714H36.3399V5.51673H42.6586V6.60783H37.6658V9.83969H42.0233V10.9239ZM45.6073 12.7332H44.4541L44.3643 5.51673H45.704L45.6073 12.7332ZM44.316 14.9292C44.316 14.722 44.3781 14.5494 44.5024 14.4113C44.6313 14.2685 44.8201 14.1972 45.0687 14.1972C45.3173 14.1972 45.506 14.2685 45.6349 14.4113C45.7638 14.5494 45.8283 14.722 45.8283 14.9292C45.8283 15.1364 45.7638 15.309 45.6349 15.4471C45.506 15.5806 45.3173 15.6474 45.0687 15.6474C44.8201 15.6474 44.6313 15.5806 44.5024 15.4471C44.3781 15.309 44.316 15.1364 44.316 14.9292Z" fill="#484D61"/>
</svg>
