<svg width="14" height="15" viewBox="0 0 14 15" fill="none" xmlns="http://www.w3.org/2000/svg">
<path d="M3.28125 7.50002C3.28125 6.80639 3.47236 6.15662 3.80436 5.60026V3.24027H1.44438C0.507719 4.45674 0 5.93929 0 7.50002C0 9.06075 0.507719 10.5433 1.44438 11.7598H3.80436V9.39978C3.47236 8.84342 3.28125 8.19365 3.28125 7.50002Z" fill="white"/>
<path d="M7 11.2188L5.35938 12.8594L7 14.5C8.56075 14.5 10.0433 13.9923 11.2597 13.0556V10.6982H8.90228C8.34105 11.0314 7.68854 11.2188 7 11.2188Z" fill="white"/>
<path d="M3.80436 9.39978L1.44438 11.7598C1.62982 12.0006 1.8316 12.2312 2.0501 12.4498C3.37223 13.7719 5.13023 14.5 7 14.5V11.2188C5.64309 11.2188 4.45383 10.4881 3.80436 9.39978Z" fill="white"/>
<path d="M14 7.50002C14 7.07414 13.9614 6.64747 13.8854 6.2319L13.8238 5.8956H7V9.17685H10.321C9.99846 9.81836 9.50264 10.3417 8.90228 10.6982L11.2597 13.0556C11.5006 12.8702 11.7312 12.6683 11.9497 12.4498C13.2719 11.1276 14 9.36979 14 7.50002Z" fill="white"/>
<path d="M9.62957 4.87043L9.91957 5.16044L12.2398 2.84027L11.9498 2.55026C10.6276 1.22814 8.86979 0.5 7 0.5L5.35938 2.14062L7 3.78125C7.99329 3.78125 8.92716 4.16805 9.62957 4.87043Z" fill="white"/>
<path d="M7 3.78125V0.5C5.13023 0.5 3.37221 1.22814 2.05005 2.55023C1.83155 2.76874 1.62982 2.9994 1.44438 3.24027L3.80436 5.60026C4.45386 4.5119 5.64309 3.78125 7 3.78125Z" fill="white"/>
</svg>
