<svg width="32" height="30" viewBox="0 0 32 30" fill="none" xmlns="http://www.w3.org/2000/svg">
<rect width="32" height="30" rx="6" fill="#EAF3FA"/>
<path d="M18.1637 12.4371C18.5784 12.4371 18.9838 12.3142 19.3287 12.0838C19.6735 11.8534 19.9423 11.5259 20.101 11.1427C20.2598 10.7596 20.3013 10.3379 20.2204 9.93118C20.1395 9.52441 19.9398 9.15077 19.6465 8.85751C19.3533 8.56424 18.9796 8.36453 18.5729 8.28363C18.1661 8.20273 17.7445 8.24427 17.3613 8.403C16.9781 8.56172 16.6507 8.83051 16.4203 9.17537C16.1899 9.52022 16.0669 9.92565 16.067 10.3404C16.0676 10.8963 16.2887 11.4292 16.6818 11.8223C17.0748 12.2153 17.6078 12.4364 18.1637 12.4371ZM18.1637 8.84454C18.4595 8.8445 18.7487 8.93221 18.9947 9.09655C19.2408 9.2609 19.4325 9.4945 19.5458 9.76783C19.659 10.0412 19.6886 10.3419 19.6309 10.6321C19.5733 10.9223 19.4308 11.1888 19.2216 11.3981C19.0124 11.6073 18.7459 11.7498 18.4557 11.8075C18.1655 11.8652 17.8648 11.8356 17.5914 11.7224C17.3181 11.6092 17.0845 11.4175 16.9201 11.1715C16.7557 10.9255 16.668 10.6362 16.668 10.3404C16.6683 9.94379 16.826 9.56353 17.1064 9.28306C17.3868 9.00259 17.7671 8.84482 18.1637 8.84437V8.84454Z" fill="#3E67D6"/>
<path d="M23.9573 22.6568H20.6775V15.9278L21.5579 16.3942C21.6283 16.4315 21.7107 16.4393 21.7869 16.4159C21.8631 16.3925 21.9268 16.3398 21.9642 16.2693C22.0015 16.1989 22.0093 16.1165 21.9859 16.0403C21.9625 15.9641 21.9097 15.9004 21.8393 15.8631L19.902 14.8372C21.081 13.5654 22.5039 11.7409 22.5039 10.3402C22.5039 9.18912 22.0466 8.08517 21.2327 7.27122C20.4187 6.45727 19.3148 6 18.1637 6C17.0126 6 15.9086 6.45727 15.0947 7.27122C14.2807 8.08517 13.8234 9.18912 13.8234 10.3402C13.8234 11.1279 14.2744 12.0499 14.8781 12.9323L9.41747 15.8624C9.38269 15.881 9.35194 15.9064 9.32695 15.9369C9.30197 15.9674 9.28324 16.0026 9.27185 16.0404C9.26046 16.0782 9.25662 16.1178 9.26055 16.1571C9.26448 16.1964 9.27611 16.2345 9.29477 16.2693C9.31343 16.304 9.33876 16.3348 9.36931 16.3598C9.39986 16.3848 9.43502 16.4035 9.47281 16.4149C9.51059 16.4263 9.55025 16.4301 9.58952 16.4262C9.62878 16.4222 9.66689 16.4106 9.70166 16.3919L10.5743 15.9237V22.6568H7.30051C7.22081 22.6568 7.14437 22.6885 7.08802 22.7448C7.03166 22.8012 7 22.8776 7 22.9573C7 23.037 7.03166 23.1134 7.08802 23.1698C7.14437 23.2262 7.22081 23.2578 7.30051 23.2578H23.9573C24.037 23.2578 24.1134 23.2262 24.1698 23.1698C24.2262 23.1134 24.2578 23.037 24.2578 22.9573C24.2578 22.8776 24.2262 22.8012 24.1698 22.7448C24.1134 22.6885 24.037 22.6568 23.9573 22.6568ZM18.1637 6.60102C19.155 6.60215 20.1054 6.99647 20.8064 7.69746C21.5074 8.39845 21.9017 9.34886 21.9029 10.3402C21.9029 11.1782 21.2313 12.3986 19.9604 13.8696C19.395 14.5189 18.7952 15.1374 18.1637 15.7226C17.5323 15.1374 16.9326 14.5188 16.3673 13.8696C15.0966 12.3988 14.425 11.1782 14.425 10.3402C14.4261 9.34895 14.8204 8.39861 15.5212 7.69764C16.2221 6.99667 17.1724 6.60229 18.1637 6.60102ZM11.1759 15.601L15.2326 13.4243C16.0543 14.4802 16.9685 15.4608 17.9643 16.3543C18.0192 16.4027 18.0898 16.4293 18.1629 16.4293C18.236 16.4293 18.3066 16.4027 18.3615 16.3543C18.4166 16.3057 18.8766 15.8972 19.4708 15.2897L20.0764 15.6094V22.6568H17.5503V19.583C17.5503 19.5033 17.5186 19.4269 17.4623 19.3705C17.4059 19.3142 17.3295 19.2825 17.2498 19.2825H14.0017C13.922 19.2825 13.8456 19.3142 13.7892 19.3705C13.7328 19.4269 13.7012 19.5033 13.7012 19.583V22.6568H11.1759V15.601ZM16.9493 22.6568H14.3022V19.8835H16.9493V22.6568Z" fill="#3E67D6"/>
</svg>
