<svg width="25" height="25" viewBox="0 0 25 25" fill="none" xmlns="http://www.w3.org/2000/svg">
<path d="M23.9258 8.76387L12.6953 0.988673C12.6382 0.949004 12.5703 0.927745 12.5008 0.927745C12.4312 0.927745 12.3634 0.949004 12.3063 0.988673L1.07422 8.76387C1.03731 8.78941 1.0058 8.82198 0.981474 8.8597C0.95715 8.89743 0.940495 8.93958 0.932461 8.98374C0.924426 9.0279 0.925169 9.07321 0.934648 9.11709C0.944126 9.16097 0.962154 9.20254 0.987702 9.23945L1.9877 10.6848C2.01323 10.7217 2.04579 10.7532 2.08352 10.7776C2.12125 10.8019 2.16341 10.8186 2.20759 10.8266C2.25176 10.8346 2.29709 10.8338 2.34096 10.8243C2.38484 10.8148 2.42641 10.7967 2.46329 10.7711L3.54883 10.0195V23.7305C3.54883 23.8211 3.58485 23.9081 3.64894 23.9721C3.71304 24.0362 3.79998 24.0723 3.89063 24.0723H21.1094C21.1543 24.0723 21.1987 24.0635 21.2402 24.0463C21.2817 24.0291 21.3194 24.004 21.3511 23.9722C21.3829 23.9405 21.408 23.9028 21.4252 23.8613C21.4424 23.8198 21.4512 23.7754 21.4512 23.7305V10.0195L22.5359 10.7703C22.5933 10.8102 22.6614 10.8314 22.7313 10.8312C22.7518 10.8312 22.7722 10.8293 22.7924 10.8258C22.8816 10.8095 22.9607 10.7585 23.0123 10.684L24.0123 9.23867C24.0637 9.16419 24.0834 9.07239 24.0672 8.98339C24.051 8.89439 24.0001 8.81545 23.9258 8.76387V8.76387ZM4.23243 22.3144H8.73301V23.3887H4.23243V22.3144ZM9.41661 23.3887V16.1133H15.5834V23.3887H9.41661ZM20.7676 23.3887H16.267V22.3144H20.7676V23.3887ZM20.7676 21.6309H16.267V15.7715C16.267 15.7266 16.2582 15.6821 16.241 15.6407C16.2239 15.5992 16.1987 15.5615 16.1669 15.5297C16.1352 15.498 16.0975 15.4728 16.056 15.4556C16.0146 15.4385 15.9701 15.4297 15.9252 15.4297H9.07481C8.98416 15.4297 8.89722 15.4657 8.83312 15.5298C8.76903 15.5939 8.73301 15.6808 8.73301 15.7715V21.6309H4.23243V9.54707L12.5 3.82383L20.7676 9.54648V21.6309ZM22.644 10.0145L21.3072 9.08926L21.2945 9.08047L12.6953 3.12734C12.6382 3.08768 12.5703 3.06642 12.5008 3.06642C12.4312 3.06642 12.3634 3.08768 12.3063 3.12734L3.70528 9.08066L3.69298 9.08906L2.35606 10.0145L1.74512 9.13144L12.5 1.68535L23.2549 9.13144L22.644 10.0145Z" fill="#0986E2"/>
<path d="M7.45295 12.9053H7.04749V12.5C7.04749 12.4093 7.01147 12.3224 6.94738 12.2583C6.88328 12.1942 6.79634 12.1582 6.70569 12.1582C6.61504 12.1582 6.5281 12.1942 6.464 12.2583C6.3999 12.3224 6.36389 12.4093 6.36389 12.5V12.9053H5.95862C5.86797 12.9053 5.78103 12.9413 5.71693 13.0054C5.65283 13.0695 5.61682 13.1564 5.61682 13.2471C5.61682 13.3377 5.65283 13.4247 5.71693 13.4888C5.78103 13.5529 5.86797 13.5889 5.95862 13.5889H6.36389V13.9943C6.36389 14.085 6.3999 14.1719 6.464 14.236C6.5281 14.3001 6.61504 14.3361 6.70569 14.3361C6.79634 14.3361 6.88328 14.3001 6.94738 14.236C7.01147 14.1719 7.04749 14.085 7.04749 13.9943V13.5889H7.45295C7.5436 13.5889 7.63054 13.5529 7.69464 13.4888C7.75874 13.4247 7.79475 13.3377 7.79475 13.2471C7.79475 13.1564 7.75874 13.0695 7.69464 13.0054C7.63054 12.9413 7.5436 12.9053 7.45295 12.9053V12.9053Z" fill="#0986E2"/>
<path d="M4.18439 4.19336H4.58986V4.59883C4.58986 4.68948 4.62587 4.77641 4.68997 4.84051C4.75407 4.90461 4.841 4.94062 4.93165 4.94062C5.0223 4.94062 5.10924 4.90461 5.17334 4.84051C5.23744 4.77641 5.27345 4.68948 5.27345 4.59883V4.19336H5.67892C5.76957 4.19336 5.85651 4.15735 5.92061 4.09325C5.9847 4.02915 6.02072 3.94221 6.02072 3.85156C6.02072 3.76091 5.9847 3.67397 5.92061 3.60987C5.85651 3.54578 5.76957 3.50976 5.67892 3.50976H5.27345V3.10547C5.27345 3.01482 5.23744 2.92788 5.17334 2.86378C5.10924 2.79968 5.0223 2.76367 4.93165 2.76367C4.841 2.76367 4.75407 2.79968 4.68997 2.86378C4.62587 2.92788 4.58986 3.01482 4.58986 3.10547V3.50976H4.18439C4.09374 3.50976 4.0068 3.54578 3.9427 3.60987C3.8786 3.67397 3.84259 3.76091 3.84259 3.85156C3.84259 3.94221 3.8786 4.02915 3.9427 4.09325C4.0068 4.15735 4.09374 4.19336 4.18439 4.19336V4.19336Z" fill="#0986E2"/>
<path d="M20.3623 3.44629H20.7676V3.85156C20.7676 3.94221 20.8036 4.02915 20.8677 4.09325C20.9318 4.15735 21.0187 4.19336 21.1094 4.19336C21.2 4.19336 21.287 4.15735 21.3511 4.09325C21.4152 4.02915 21.4512 3.94221 21.4512 3.85156V3.44629H21.8564C21.9471 3.44629 22.034 3.41028 22.0981 3.34618C22.1622 3.28208 22.1982 3.19514 22.1982 3.10449C22.1982 3.01384 22.1622 2.9269 22.0981 2.86281C22.034 2.79871 21.9471 2.7627 21.8564 2.7627H21.4512V2.35723C21.4512 2.26658 21.4152 2.17964 21.3511 2.11554C21.287 2.05144 21.2 2.01543 21.1094 2.01543C21.0187 2.01543 20.9318 2.05144 20.8677 2.11554C20.8036 2.17964 20.7676 2.26658 20.7676 2.35723V2.7627H20.3623C20.2717 2.7627 20.1847 2.79871 20.1206 2.86281C20.0565 2.9269 20.0205 3.01384 20.0205 3.10449C20.0205 3.19514 20.0565 3.28208 20.1206 3.34618C20.1847 3.41028 20.2717 3.44629 20.3623 3.44629V3.44629Z" fill="#0986E2"/>
<path d="M19.3516 16.6504C19.3965 16.6504 19.4409 16.6416 19.4824 16.6244C19.5239 16.6073 19.5616 16.5821 19.5933 16.5503C19.6251 16.5186 19.6502 16.4809 19.6674 16.4394C19.6846 16.3979 19.6934 16.3535 19.6934 16.3086V12.5C19.6934 12.4093 19.6573 12.3224 19.5932 12.2583C19.5291 12.1942 19.4422 12.1582 19.3516 12.1582C19.2609 12.1582 19.174 12.1942 19.1099 12.2583C19.0458 12.3224 19.0098 12.4093 19.0098 12.5V16.3086C19.0097 16.3535 19.0186 16.3979 19.0357 16.4394C19.0529 16.4809 19.0781 16.5186 19.1098 16.5503C19.1416 16.5821 19.1793 16.6073 19.2207 16.6244C19.2622 16.6416 19.3067 16.6504 19.3516 16.6504Z" fill="#0986E2"/>
<path d="M10.4297 9.04453C10.4295 9.45403 10.5508 9.85439 10.7782 10.1949C11.0056 10.5355 11.3289 10.801 11.7072 10.9578C12.0855 11.1146 12.5018 11.1557 12.9034 11.0759C13.3051 10.9961 13.674 10.799 13.9637 10.5095C14.2533 10.22 14.4505 9.85112 14.5305 9.4495C14.6104 9.04788 14.5695 8.63157 14.4128 8.25322C14.2561 7.87487 13.9908 7.55149 13.6503 7.32397C13.3098 7.09644 12.9095 6.975 12.5 6.975C11.9512 6.97542 11.4249 7.19356 11.0368 7.58156C10.6487 7.96956 10.4303 8.49571 10.4297 9.04453V9.04453ZM13.8852 9.04453C13.8852 9.3188 13.8038 9.58691 13.6515 9.81495C13.4991 10.043 13.2825 10.2207 13.0291 10.3257C12.7757 10.4307 12.4969 10.4581 12.2279 10.4046C11.9589 10.3511 11.7118 10.219 11.5179 10.0251C11.3239 9.83115 11.1919 9.58406 11.1384 9.31507C11.0849 9.04607 11.1123 8.76725 11.2173 8.51386C11.3222 8.26047 11.5 8.04389 11.728 7.89152C11.9561 7.73914 12.2242 7.65781 12.4984 7.65781C12.6807 7.65761 12.8612 7.69333 13.0296 7.76292C13.198 7.83252 13.3511 7.93463 13.48 8.06342C13.6089 8.19221 13.7112 8.34515 13.781 8.5135C13.8508 8.68184 13.8867 8.86229 13.8867 9.04453H13.8852Z" fill="#0986E2"/>
</svg>
