<svg width="19" height="22" viewBox="0 0 19 22" fill="none" xmlns="http://www.w3.org/2000/svg">
<path d="M18.0898 0H0.300781C0.221009 0 0.144504 0.0316894 0.0880967 0.0880968C0.0316893 0.144504 0 0.221009 0 0.300781V21.6992C0 21.779 0.0316893 21.8555 0.0880967 21.9119C0.144504 21.9683 0.221009 22 0.300781 22H18.0898C18.1696 22 18.2461 21.9683 18.3025 21.9119C18.3589 21.8555 18.3906 21.779 18.3906 21.6992V0.300266C18.3905 0.220583 18.3587 0.14421 18.3023 0.0879144C18.246 0.0316185 18.1695 -1.17085e-07 18.0898 0V0ZM1.97656 21.3984V5.17877H6.68112V21.3984H1.97656ZM7.28269 21.3984V5.17877H11.9871V21.3984H7.28269ZM17.7891 21.3984H12.5886V4.87798C12.5886 4.79821 12.557 4.72171 12.5005 4.6653C12.4441 4.60889 12.3676 4.5772 12.2879 4.5772H1.67578C1.59601 4.5772 1.5195 4.60889 1.4631 4.6653C1.40669 4.72171 1.375 4.79821 1.375 4.87798V21.3984H0.601562V0.601562H17.7891V21.3984Z" fill="#0986E2"/>
<path d="M1.67578 3.80272H16.7148C16.7946 3.80272 16.8711 3.77103 16.9275 3.71463C16.9839 3.65822 17.0156 3.58171 17.0156 3.50194V1.69708C17.0156 1.61731 16.9839 1.54081 16.9275 1.4844C16.8711 1.42799 16.7946 1.3963 16.7148 1.3963H1.67578C1.59601 1.3963 1.5195 1.42799 1.4631 1.4844C1.40669 1.54081 1.375 1.61731 1.375 1.69708V3.50177C1.37498 3.54128 1.38274 3.58041 1.39785 3.61693C1.41295 3.65344 1.4351 3.68662 1.46304 3.71457C1.49097 3.74251 1.52413 3.76468 1.56064 3.77981C1.59714 3.79494 1.63627 3.80272 1.67578 3.80272ZM1.97656 1.99786H16.4141V3.20099H1.97656V1.99786Z" fill="#0986E2"/>
<path d="M16.7148 4.57715H13.6641C13.5843 4.57715 13.5078 4.60884 13.4514 4.66524C13.395 4.72165 13.3633 4.79816 13.3633 4.87793V7.92871C13.3633 7.96822 13.371 8.00734 13.3861 8.04384C13.4012 8.08034 13.4234 8.11351 13.4513 8.14145C13.4793 8.16938 13.5124 8.19153 13.5489 8.20664C13.5854 8.22175 13.6246 8.22951 13.6641 8.22949H16.7148C16.7543 8.22951 16.7935 8.22175 16.83 8.20664C16.8665 8.19153 16.8996 8.16938 16.9276 8.14145C16.9555 8.11351 16.9777 8.08034 16.9928 8.04384C17.0079 8.00734 17.0156 7.96822 17.0156 7.92871V4.87793C17.0156 4.79816 16.9839 4.72165 16.9275 4.66524C16.8711 4.60884 16.7946 4.57715 16.7148 4.57715ZM16.4141 7.62793H13.9648V5.17871H16.4141V7.62793Z" fill="#0986E2"/>
<path d="M16.7148 9.00415H13.6641C13.6246 9.00413 13.5854 9.01189 13.5489 9.027C13.5124 9.04211 13.4793 9.06426 13.4513 9.0922C13.4234 9.12013 13.4012 9.1533 13.3861 9.1898C13.371 9.2263 13.3633 9.26543 13.3633 9.30493V12.3557C13.3633 12.4355 13.395 12.512 13.4514 12.5684C13.5078 12.6248 13.5843 12.6565 13.6641 12.6565H16.7148C16.7946 12.6565 16.8711 12.6248 16.9275 12.5684C16.9839 12.512 17.0156 12.4355 17.0156 12.3557V9.30493C17.0156 9.26543 17.0079 9.2263 16.9928 9.1898C16.9777 9.1533 16.9555 9.12013 16.9276 9.0922C16.8996 9.06426 16.8665 9.04211 16.83 9.027C16.7935 9.01189 16.7543 9.00413 16.7148 9.00415ZM16.4141 12.0549H13.9648V9.60571H16.4141V12.0549Z" fill="#0986E2"/>
<path d="M14.7924 7.04782H15.5865C15.6393 7.0478 15.6911 7.03389 15.7368 7.00748C15.7825 6.98108 15.8205 6.94311 15.8469 6.89738C15.8733 6.85166 15.8872 6.7998 15.8872 6.74701C15.8871 6.69422 15.8732 6.64236 15.8469 6.59664L15.45 5.90914C15.4236 5.86343 15.3856 5.82547 15.3398 5.79907C15.2941 5.77268 15.2422 5.75879 15.1894 5.75879C15.1366 5.75879 15.0848 5.77268 15.039 5.79907C14.9933 5.82547 14.9553 5.86343 14.9289 5.90914L14.532 6.59664C14.5056 6.64236 14.4917 6.69422 14.4917 6.74701C14.4917 6.7998 14.5056 6.85166 14.532 6.89738C14.5584 6.94311 14.5963 6.98108 14.642 7.00748C14.6878 7.03389 14.7396 7.0478 14.7924 7.04782Z" fill="#0986E2"/>
<path d="M14.9289 11.3245C14.9553 11.3702 14.9933 11.4081 15.039 11.4345C15.0848 11.4609 15.1366 11.4748 15.1894 11.4748C15.2422 11.4748 15.2941 11.4609 15.3398 11.4345C15.3856 11.4081 15.4236 11.3702 15.45 11.3245L15.8469 10.637C15.8732 10.5912 15.8871 10.5394 15.8872 10.4866C15.8872 10.4338 15.8733 10.3819 15.8469 10.3362C15.8205 10.2905 15.7825 10.2525 15.7368 10.2261C15.6911 10.1997 15.6393 10.1858 15.5865 10.1858H14.7924C14.7396 10.1858 14.6878 10.1997 14.642 10.2261C14.5963 10.2525 14.5584 10.2905 14.532 10.3362C14.5056 10.3819 14.4917 10.4338 14.4917 10.4866C14.4917 10.5394 14.5056 10.5912 14.532 10.637L14.9289 11.3245Z" fill="#0986E2"/>
<path d="M16.7148 13.4309H13.6641C13.5843 13.4309 13.5078 13.4626 13.4514 13.519C13.395 13.5754 13.3633 13.6519 13.3633 13.7317V15.1045C13.3633 15.144 13.371 15.1831 13.3861 15.2196C13.4012 15.2561 13.4234 15.2893 13.4513 15.3172C13.4793 15.3451 13.5124 15.3673 13.5489 15.3824C13.5854 15.3975 13.6246 15.4053 13.6641 15.4052H16.7148C16.7543 15.4053 16.7935 15.3975 16.83 15.3824C16.8665 15.3673 16.8996 15.3451 16.9276 15.3172C16.9555 15.2893 16.9777 15.2561 16.9928 15.2196C17.0079 15.1831 17.0156 15.144 17.0156 15.1045V13.7317C17.0156 13.6519 16.9839 13.5754 16.9275 13.519C16.8711 13.4626 16.7946 13.4309 16.7148 13.4309ZM16.4141 14.8037H13.9648V14.0325H16.4141V14.8037Z" fill="#0986E2"/>
</svg>
