<svg width="17" height="14" viewBox="0 0 17 14" fill="none" xmlns="http://www.w3.org/2000/svg">
<path fill-rule="evenodd" clip-rule="evenodd" d="M2.25012 1.5C1.83934 1.5 1.50012 1.83921 1.50012 2.25V11.25C1.50012 11.6608 1.83934 12 2.25012 12H14.2501C14.6609 12 15.0001 11.6608 15.0001 11.25V2.25C15.0001 1.83921 14.6609 1.5 14.2501 1.5H2.25012ZM0.00012207 2.25C0.00012207 1.01079 1.01091 0 2.25012 0H14.2501C15.4893 0 16.5001 1.01079 16.5001 2.25V11.25C16.5001 12.4892 15.4893 13.5 14.2501 13.5H2.25012C1.01091 13.5 0.00012207 12.4892 0.00012207 11.25V2.25Z" fill="white"/>
<path fill-rule="evenodd" clip-rule="evenodd" d="M0.13564 1.81991C0.373176 1.48057 0.840824 1.39804 1.18016 1.63558L8.25006 6.58451L15.32 1.63558C15.6593 1.39804 16.127 1.48057 16.3645 1.81991C16.602 2.15924 16.5195 2.62689 16.1802 2.86443L8.68016 8.11443C8.42192 8.2952 8.07821 8.2952 7.81997 8.11443L0.319968 2.86443C-0.0193694 2.62689 -0.101895 2.15924 0.13564 1.81991Z" fill="white"/>
</svg>
