<svg width="22" height="22" viewBox="0 0 22 22" fill="none" xmlns="http://www.w3.org/2000/svg">
<path d="M21.0219 10.5653H21.6312C21.729 10.5653 21.8227 10.5264 21.8918 10.4573C21.961 10.3882 21.9998 10.2945 21.9998 10.1967V8.36726C21.9998 8.26951 21.961 8.17576 21.8918 8.10663C21.8227 8.03751 21.729 7.99868 21.6312 7.99868H20.9604L20.3976 4.93796C20.3191 4.51109 20.0934 4.12525 19.7599 3.84751C19.4263 3.56977 19.006 3.41769 18.572 3.41772H14.6563V2.68055H15.2966C15.3944 2.68055 15.4881 2.64172 15.5573 2.57259C15.6264 2.50347 15.6652 2.40972 15.6652 2.31197V0.368583C15.6652 0.270829 15.6264 0.177078 15.5573 0.107956C15.4881 0.0388329 15.3944 0 15.2966 0H6.70337C6.60562 0 6.51187 0.0388329 6.44274 0.107956C6.37362 0.177078 6.33479 0.270829 6.33479 0.368583V2.31197C6.33479 2.40972 6.37362 2.50347 6.44274 2.57259C6.51187 2.64172 6.60562 2.68055 6.70337 2.68055H7.34365V3.41772H3.42804C2.99397 3.4177 2.57362 3.5698 2.24008 3.84759C1.90654 4.12537 1.6809 4.51127 1.60239 4.93817L1.03962 7.99889H0.368583C0.270829 7.99889 0.177078 8.03772 0.107956 8.10684C0.0388329 8.17597 0 8.26972 0 8.36747V10.1967C0 10.2945 0.0388329 10.3882 0.107956 10.4573C0.177078 10.5264 0.270829 10.5653 0.368583 10.5653H0.977904V21.2628H0.368583C0.270829 21.2628 0.177078 21.3017 0.107956 21.3708C0.0388329 21.4399 0 21.5337 0 21.6314C0 21.7292 0.0388329 21.8229 0.107956 21.892C0.177078 21.9612 0.270829 22 0.368583 22H21.6314C21.7292 22 21.8229 21.9612 21.892 21.892C21.9612 21.8229 22 21.7292 22 21.6314C22 21.5337 21.9612 21.4399 21.892 21.3708C21.8229 21.3017 21.7292 21.2628 21.6314 21.2628H21.0221L21.0219 10.5653ZM20.2847 12.3722C20.2843 12.6067 20.1909 12.8314 20.0251 12.9972C19.8593 13.163 19.6346 13.2563 19.4001 13.2568H19.1495C18.915 13.2563 18.6903 13.163 18.5245 12.9972C18.3587 12.8314 18.2653 12.6067 18.2649 12.3722V10.5653H20.2868L20.2847 12.3722ZM17.5256 12.3722C17.5252 12.6067 17.4318 12.8314 17.266 12.9972C17.1002 13.163 16.8755 13.2563 16.641 13.2568H16.3918C16.1574 13.2563 15.9326 13.163 15.7668 12.9972C15.601 12.8314 15.5077 12.6067 15.5072 12.3722V10.5653H17.5292L17.5256 12.3722ZM14.7665 12.3722C14.7661 12.6067 14.6727 12.8314 14.5069 12.9972C14.3411 13.163 14.1164 13.2563 13.8819 13.2568H13.6327C13.3983 13.2563 13.1735 13.163 13.0077 12.9972C12.8419 12.8314 12.7486 12.6067 12.7481 12.3722V10.5653H14.7701L14.7665 12.3722ZM12.0074 12.3722C12.0069 12.6067 11.9136 12.8314 11.7478 12.9972C11.582 13.163 11.3573 13.2563 11.1228 13.2568H10.8736C10.6392 13.2563 10.4144 13.163 10.2486 12.9972C10.0828 12.8314 9.98947 12.6067 9.98903 12.3722V10.5653H12.011L12.0074 12.3722ZM9.24828 12.3722C9.24784 12.6067 9.15449 12.8314 8.9887 12.9972C8.8229 13.163 8.59816 13.2563 8.36368 13.2568H8.11663C7.88215 13.2563 7.65741 13.163 7.49161 12.9972C7.32581 12.8314 7.23247 12.6067 7.23203 12.3722V10.5653H9.25397L9.24828 12.3722ZM6.48917 12.3722C6.48873 12.6067 6.39539 12.8314 6.22959 12.9972C6.06379 13.163 5.83905 13.2563 5.60457 13.2568H5.35394C5.11946 13.2563 4.89472 13.163 4.72892 12.9972C4.56312 12.8314 4.46978 12.6067 4.46934 12.3722V10.5653H6.49128L6.48917 12.3722ZM7.06774 0.737377H14.9272V1.94338H7.0728L7.06774 0.737377ZM8.08082 2.68055H13.9192V3.41772H8.08082V2.68055ZM2.32755 5.0715C2.37488 4.81415 2.51089 4.58153 2.71194 4.41407C2.913 4.24661 3.16638 4.1549 3.42804 4.15488H18.5715C18.8332 4.15485 19.0867 4.24654 19.2878 4.414C19.4889 4.58147 19.6249 4.81412 19.6722 5.0715L20.2106 7.9991H1.78921L2.32755 5.0715ZM0.737377 8.73627H21.2628V9.82833H0.737167L0.737377 8.73627ZM3.73617 10.5655V12.3724C3.73573 12.6069 3.64238 12.8316 3.47659 12.9974C3.31079 13.1632 3.08604 13.2565 2.85157 13.257H2.60093C2.36646 13.2565 2.14172 13.1632 1.97592 12.9974C1.81012 12.8316 1.71678 12.6069 1.71633 12.3724V10.5653L3.73617 10.5655ZM9.06799 15.673V21.263H6.91399V15.6728L9.06799 15.673ZM6.17682 21.2628H4.02324V15.6728H6.17682V21.2628ZM9.80495 21.2628V15.3042C9.80495 15.2065 9.76612 15.1127 9.69699 15.0436C9.62787 14.9745 9.53412 14.9356 9.43637 14.9356H3.65466C3.55691 14.9356 3.46316 14.9745 3.39403 15.0436C3.32491 15.1127 3.28608 15.2065 3.28608 15.3042V21.2628H1.71528V13.73C1.97804 13.9026 2.28553 13.9946 2.59988 13.9946H2.85052C3.09049 13.9948 3.32751 13.9416 3.54442 13.839C3.76134 13.7363 3.95273 13.5867 4.10475 13.4011C4.25668 13.5868 4.44798 13.7364 4.66482 13.8392C4.88166 13.9419 5.11862 13.9952 5.35857 13.9952H5.60815C5.84825 13.9954 6.08538 13.9422 6.30238 13.8394C6.51937 13.7366 6.7108 13.5869 6.86281 13.4011C7.01474 13.5868 7.20604 13.7364 7.42287 13.8392C7.63971 13.9419 7.87667 13.9952 8.11663 13.9952H8.36726C8.60718 13.9952 8.84411 13.9419 9.06091 13.8392C9.27771 13.7364 9.46897 13.5868 9.62087 13.4011C9.77274 13.5865 9.9639 13.736 10.1805 13.8386C10.3972 13.9413 10.6339 13.9945 10.8736 13.9946H11.1264C11.3661 13.9945 11.6028 13.9413 11.8195 13.8386C12.0361 13.736 12.2273 13.5865 12.3791 13.4011C12.5311 13.5867 12.7224 13.7362 12.9392 13.8388C13.156 13.9415 13.3929 13.9947 13.6327 13.9946H13.8834C14.1233 13.9947 14.3602 13.9415 14.577 13.8388C14.7939 13.7362 14.9852 13.5867 15.1372 13.4011C15.2893 13.5868 15.4807 13.7364 15.6977 13.839C15.9147 13.9417 16.1518 13.9948 16.3918 13.9946H16.6425C16.8822 13.9945 17.1189 13.9413 17.3356 13.8386C17.5522 13.736 17.7434 13.5865 17.8952 13.4011C18.0471 13.5868 18.2384 13.7364 18.4552 13.8392C18.672 13.9419 18.9089 13.9952 19.1489 13.9952H19.3995C19.7138 13.9952 20.0213 13.9032 20.2841 13.7307V21.2635L9.80495 21.2628Z" fill="#0986E2"/>
<path d="M18.3454 14.9357H11.5529C11.4552 14.9357 11.3614 14.9745 11.2923 15.0436C11.2232 15.1127 11.1843 15.2065 11.1843 15.3043V20.0567C11.1843 20.1544 11.2232 20.2482 11.2923 20.3173C11.3614 20.3864 11.4552 20.4252 11.5529 20.4252H18.3454C18.4431 20.4252 18.5369 20.3864 18.606 20.3173C18.6751 20.2482 18.714 20.1544 18.714 20.0567V15.3043C18.714 15.2065 18.6751 15.1127 18.606 15.0436C18.5369 14.9745 18.4431 14.9357 18.3454 14.9357ZM15.5852 19.6881L16.3731 15.6728H16.7653L15.9772 19.6881H15.5852ZM14.6273 19.6881L15.4155 15.6728H15.6221L14.8333 19.6881H14.6273ZM13.2732 19.6881L14.0614 15.6728H14.6648L13.876 19.6881H13.2732ZM11.9215 15.6728H13.3101L12.5222 19.6881H11.9215V15.6728ZM17.9768 19.6881H16.7289L17.5166 15.6728H17.9768V19.6881Z" fill="#0986E2"/>
</svg>
