<svg width="24" height="24" viewBox="0 0 24 24" fill="none" xmlns="http://www.w3.org/2000/svg">
<g clip-path="url(#clip0_222_2291)">
<path fill-rule="evenodd" clip-rule="evenodd" d="M13 20C13 19.4477 13.4477 19 14 19L21 19C21.5523 19 22 19.4477 22 20C22 20.5523 21.5523 21 21 21L14 21C13.4477 21 13 20.5523 13 20Z" fill="#586072"/>
<path fill-rule="evenodd" clip-rule="evenodd" d="M2 20C2 19.4477 2.44772 19 3 19L10 19C10.5523 19 11 19.4477 11 20C11 20.5523 10.5523 21 10 21L3 21C2.44772 21 2 20.5523 2 20Z" fill="#586072"/>
<path fill-rule="evenodd" clip-rule="evenodd" d="M11 12C11 11.4477 11.4477 11 12 11L21 11C21.5523 11 22 11.4477 22 12C22 12.5523 21.5523 13 21 13L12 13C11.4477 13 11 12.5523 11 12Z" fill="#586072"/>
<path fill-rule="evenodd" clip-rule="evenodd" d="M2 12C2 11.4477 2.44771 11 3 11L8 11C8.55228 11 9 11.4477 9 12C9 12.5523 8.55228 13 8 13L3 13C2.44771 13 2 12.5523 2 12Z" fill="#586072"/>
<path fill-rule="evenodd" clip-rule="evenodd" d="M15 4C15 3.44771 15.4477 3 16 3L21 3C21.5523 3 22 3.44771 22 4C22 4.55228 21.5523 5 21 5L16 5C15.4477 5 15 4.55228 15 4Z" fill="#586072"/>
<path fill-rule="evenodd" clip-rule="evenodd" d="M2 4C2 3.44772 2.44771 3 3 3L12 3C12.5523 3 13 3.44771 13 4C13 4.55228 12.5523 5 12 5L3 5C2.44771 5 2 4.55228 2 4Z" fill="#586072"/>
<path fill-rule="evenodd" clip-rule="evenodd" d="M14 24C13.4477 24 13 23.5523 13 23L13 17C13 16.4477 13.4477 16 14 16C14.5523 16 15 16.4477 15 17L15 23C15 23.5523 14.5523 24 14 24Z" fill="#586072"/>
<path fill-rule="evenodd" clip-rule="evenodd" d="M8 16C7.44771 16 7 15.5523 7 15L7 9C7 8.44772 7.44771 8 8 8C8.55228 8 9 8.44771 9 9L9 15C9 15.5523 8.55228 16 8 16Z" fill="#586072"/>
<path fill-rule="evenodd" clip-rule="evenodd" d="M16 8C15.4477 8 15 7.55228 15 7L15 0.999999C15 0.447715 15.4477 -5.87818e-07 16 -6.11959e-07C16.5523 -6.36101e-07 17 0.447715 17 0.999999L17 7C17 7.55228 16.5523 8 16 8Z" fill="#586072"/>
</g>
<defs>
<clipPath id="clip0_222_2291">
<rect width="24" height="24" fill="white" transform="translate(0 24) rotate(-90)"/>
</clipPath>
</defs>
</svg>
