<svg width="24" height="23" viewBox="0 0 24 23" fill="none" xmlns="http://www.w3.org/2000/svg">
<path d="M4.44232 18.8714C4.33574 18.8714 4.23351 18.9137 4.15815 18.9891C4.08278 19.0644 4.04044 19.1667 4.04044 19.2733V22.4341C4.04044 22.5407 4.08278 22.6429 4.15815 22.7183C4.23351 22.7937 4.33574 22.836 4.44232 22.836C4.54891 22.836 4.65113 22.7937 4.7265 22.7183C4.80187 22.6429 4.84421 22.5407 4.84421 22.4341V19.2733C4.84421 19.1667 4.80187 19.0644 4.7265 18.9891C4.65113 18.9137 4.54891 18.8714 4.44232 18.8714Z" fill="#0986E2"/>
<path d="M22.8659 17.3672L18.6507 15.1336C18.5925 15.1026 18.5275 15.0864 18.4616 15.0864C18.3956 15.0864 18.3307 15.1026 18.2725 15.1336L18.0343 15.2613C17.0575 14.4555 15.8986 13.9006 14.6585 13.6448C15.1736 12.8434 15.4471 11.9106 15.4462 10.9579V10.4906C15.8094 10.4035 16.1344 10.2004 16.3718 9.91201C16.6092 9.62367 16.7463 9.2658 16.7621 8.89262C16.7779 8.51943 16.6716 8.15125 16.4594 7.84386C16.2472 7.53647 15.9406 7.30662 15.586 7.18912H16.1388C16.2453 7.18894 16.3473 7.14651 16.4225 7.07117C16.4978 6.99582 16.54 6.8937 16.54 6.78723V5.27637C16.54 5.16979 16.4977 5.06756 16.4223 4.9922C16.3469 4.91683 16.2447 4.87449 16.1381 4.87449H15.4455V3.28348C15.4447 2.63649 15.1873 2.01623 14.7298 1.55876C14.2723 1.10128 13.652 0.84396 13.005 0.843231H7.90383C7.25683 0.84396 6.63655 1.10128 6.17903 1.55876C5.72152 2.01623 5.46414 2.63649 5.46335 3.28348V4.87449H4.7705C4.66391 4.87449 4.56169 4.91683 4.48632 4.9922C4.41095 5.06756 4.36861 5.16979 4.36861 5.27637V6.78723C4.36861 6.89382 4.41095 6.99604 4.48632 7.07141C4.56169 7.14678 4.66391 7.18912 4.7705 7.18912H5.32326C4.96857 7.3065 4.66181 7.53633 4.4495 7.84376C4.23719 8.15118 4.1309 8.51945 4.14673 8.89273C4.16257 9.26601 4.29968 9.62395 4.53727 9.91228C4.77486 10.2006 5.09998 10.4036 5.46335 10.4906V10.96C5.46264 11.9119 5.73584 12.8439 6.25035 13.6448C4.48424 14.0101 2.89815 14.9733 1.75954 16.372C0.620939 17.7706 -0.000508447 19.5191 3.12131e-07 21.3226V22.4339C3.12131e-07 22.5405 0.0423416 22.6427 0.11771 22.7181C0.193078 22.7934 0.295299 22.8358 0.401886 22.8358C0.508473 22.8358 0.610694 22.7934 0.686062 22.7181C0.76143 22.6427 0.803771 22.5405 0.803771 22.4339V21.3226C0.80356 19.9768 1.18918 18.6591 1.91494 17.5257C2.6407 16.3923 3.67617 15.4907 4.89864 14.9278C4.92486 14.9732 4.95973 15.013 5.00129 15.0449L8.06688 17.3984C8.13738 17.4525 8.22384 17.4817 8.31272 17.4815C8.4016 17.4812 8.4879 17.4515 8.55809 17.397L8.89798 17.1331L9.99776 18.2658L8.69014 22.3115C8.67291 22.362 8.6659 22.4154 8.66951 22.4686C8.67313 22.5218 8.68729 22.5737 8.71119 22.6214C8.73509 22.6691 8.76824 22.7115 8.80871 22.7463C8.84918 22.781 8.89616 22.8074 8.94691 22.8238C8.99766 22.8402 9.05116 22.8463 9.10431 22.8418C9.15745 22.8373 9.20917 22.8223 9.25645 22.7976C9.30373 22.7729 9.34562 22.7391 9.37969 22.6981C9.41376 22.657 9.43931 22.6096 9.45487 22.5586L10.4543 19.4668L11.4537 22.5586C11.4878 22.6584 11.5597 22.7408 11.654 22.788C11.7482 22.8353 11.8573 22.8436 11.9576 22.8112C12.058 22.7787 12.1415 22.7082 12.1903 22.6147C12.2391 22.5212 12.2492 22.4123 12.2185 22.3115L10.9111 18.2655L12.0106 17.1329L12.3505 17.397C12.4207 17.4515 12.507 17.4812 12.5959 17.4815C12.6848 17.4817 12.7712 17.4525 12.8417 17.3984L15.9073 15.0452C15.9482 15.0138 15.9827 14.9748 16.0088 14.9304C16.4523 15.134 16.8732 15.3834 17.2648 15.6746L14.1119 17.3669C14.018 17.4173 13.948 17.503 13.9172 17.605C13.8864 17.7071 13.8974 17.8172 13.9478 17.9111C13.9982 18.005 14.0839 18.075 14.1859 18.1058C14.288 18.1366 14.3981 18.1256 14.492 18.0752L14.8078 17.9057V22.4339C14.8078 22.5405 14.8501 22.6427 14.9255 22.7181C15.0008 22.7934 15.1031 22.8358 15.2096 22.8358H17.367C17.4736 22.8358 17.5758 22.7934 17.6511 22.7181C17.7265 22.6427 17.7689 22.5405 17.7689 22.4339V20.5081H19.2062V22.4339C19.2062 22.5405 19.2486 22.6427 19.3239 22.7181C19.3993 22.7934 19.5015 22.8358 19.6081 22.8358H21.7654C21.872 22.8358 21.9742 22.7934 22.0496 22.7181C22.125 22.6427 22.1673 22.5405 22.1673 22.4339V17.9068L22.4888 18.0772C22.5355 18.1019 22.5865 18.1172 22.6391 18.1222C22.6916 18.1272 22.7446 18.1218 22.7951 18.1063C22.8455 18.0908 22.8924 18.0655 22.9331 18.0319C22.9738 17.9982 23.0075 17.9569 23.0322 17.9103C23.0569 17.8636 23.0722 17.8126 23.0772 17.76C23.0821 17.7075 23.0767 17.6545 23.0612 17.604C23.0457 17.5536 23.0204 17.5067 22.9868 17.466C22.9532 17.4253 22.9119 17.3916 22.8652 17.3669L22.8659 17.3672ZM10.4543 15.1465C9.34427 15.1452 8.28005 14.7037 7.49509 13.9188C6.71013 13.1339 6.26852 12.0698 6.26712 10.9597V7.18912H14.6417V10.96C14.6403 12.07 14.1986 13.1341 13.4136 13.919C12.6286 14.7038 11.5643 15.1452 10.4543 15.1465ZM15.9597 8.82008C15.9591 8.99104 15.9107 9.15843 15.8198 9.30322C15.7289 9.44802 15.5992 9.56443 15.4455 9.63924V8.00093C15.5992 8.07573 15.7289 8.19215 15.8198 8.33694C15.9107 8.48174 15.9591 8.64913 15.9597 8.82008ZM7.90383 1.647H13.005C13.4389 1.64749 13.8548 1.82006 14.1616 2.12685C14.4684 2.43365 14.641 2.84961 14.6415 3.28348V3.4587H6.26712V3.28348C6.26761 2.84957 6.44021 2.43357 6.74705 2.12677C7.05389 1.81997 7.46991 1.64743 7.90383 1.647ZM6.26735 4.265L14.642 4.26339V4.87518H6.26712L6.26735 4.265ZM5.17261 5.67895H15.7365V6.38535H5.17261V5.67895ZM4.94893 8.82008C4.94948 8.64913 4.99795 8.48174 5.08883 8.33694C5.17972 8.19215 5.30939 8.07573 5.46312 8.00093V9.63924C5.30939 9.56443 5.17972 9.44802 5.08883 9.30322C4.99795 9.15843 4.94948 8.99104 4.94893 8.82008ZM8.3103 16.5717L5.74513 14.6026C6.09281 14.4953 6.4483 14.4152 6.8084 14.3629C7.47544 15.0788 8.33814 15.5828 9.2893 15.8124L8.3103 16.5717ZM10.4545 17.5821L9.53594 16.6371L10.4215 15.9502H10.4545C10.4545 15.9502 10.4775 15.9502 10.4874 15.9502L11.3722 16.6373L10.4545 17.5821ZM12.5985 16.5717L11.62 15.8124C12.5698 15.5831 13.4315 15.0801 14.0981 14.3656C14.4575 14.4182 14.8122 14.4987 15.1591 14.6063L12.5985 16.5717ZM21.364 22.032H20.0105V20.1069C20.0105 20.0003 19.9681 19.8981 19.8927 19.8227C19.8174 19.7473 19.7152 19.705 19.6086 19.705H17.3674C17.2608 19.705 17.1586 19.7473 17.0833 19.8227C17.0079 19.8981 16.9655 20.0003 16.9655 20.1069V22.0327H15.6122V17.4744L18.4638 15.9443L21.364 17.4811V22.032Z" fill="#0986E2"/>
<path d="M13.5642 9.22151C13.6708 9.22151 13.773 9.17917 13.8484 9.1038C13.9238 9.02843 13.9661 8.92621 13.9661 8.81963C13.9661 8.71304 13.9238 8.61082 13.8484 8.53545C13.773 8.46008 13.6708 8.41774 13.5642 8.41774H11.9183C11.8382 8.41756 11.7599 8.44136 11.6935 8.48607C11.627 8.53077 11.5755 8.59434 11.5455 8.66859C11.5155 8.74284 11.5084 8.82438 11.5251 8.9027C11.5418 8.98102 11.5816 9.05254 11.6393 9.10807C11.65 9.25912 11.7141 9.40144 11.8201 9.50957C11.9261 9.61769 12.0672 9.68456 12.218 9.6982C12.3688 9.71185 12.5196 9.67138 12.6433 9.58404C12.767 9.49671 12.8556 9.3682 12.8932 9.22151H13.5642Z" fill="#0986E2"/>
<path d="M9.26932 9.10853C9.32717 9.05306 9.36708 8.98154 9.38391 8.90318C9.40074 8.82482 9.39371 8.74322 9.36374 8.66889C9.33377 8.59456 9.28222 8.53092 9.21574 8.48615C9.14926 8.44139 9.0709 8.41756 8.99076 8.41774H7.34441C7.23782 8.41774 7.1356 8.46008 7.06023 8.53545C6.98486 8.61082 6.94252 8.71304 6.94252 8.81963C6.94252 8.92621 6.98486 9.02843 7.06023 9.1038C7.1356 9.17917 7.23782 9.22151 7.34441 9.22151H8.01544C8.05305 9.36819 8.14162 9.4967 8.26531 9.58405C8.389 9.67139 8.53973 9.71188 8.69054 9.69826C8.84135 9.68465 8.98239 9.61781 9.08843 9.50972C9.19447 9.40163 9.25859 9.25934 9.26932 9.1083V9.10853Z" fill="#0986E2"/>
<path d="M11.6317 11.2819C11.5251 11.2819 11.4229 11.3243 11.3475 11.3996C11.2722 11.475 11.2298 11.5772 11.2298 11.6838C11.2298 11.8897 11.148 12.0871 11.0025 12.2327C10.8569 12.3782 10.6595 12.46 10.4536 12.46C10.2477 12.46 10.0503 12.3782 9.90475 12.2327C9.75918 12.0871 9.6774 11.8897 9.6774 11.6838C9.6774 11.5772 9.63506 11.475 9.55969 11.3996C9.48432 11.3243 9.3821 11.2819 9.27551 11.2819C9.16893 11.2819 9.06671 11.3243 8.99134 11.3996C8.91597 11.475 8.87363 11.5772 8.87363 11.6838C8.87363 11.8913 8.91449 12.0967 8.9939 12.2884C9.0733 12.4801 9.18968 12.6543 9.33639 12.801C9.48311 12.9477 9.65729 13.0641 9.84898 13.1435C10.0407 13.2229 10.2461 13.2638 10.4536 13.2638C10.6611 13.2638 10.8666 13.2229 11.0582 13.1435C11.2499 13.0641 11.4241 12.9477 11.5708 12.801C11.7175 12.6543 11.8339 12.4801 11.9133 12.2884C11.9927 12.0967 12.0336 11.8913 12.0336 11.6838C12.0336 11.5772 11.9913 11.475 11.9159 11.3996C11.8405 11.3243 11.7383 11.2819 11.6317 11.2819Z" fill="#0986E2"/>
</svg>
