<svg width="22" height="22" viewBox="0 0 22 22" fill="none" xmlns="http://www.w3.org/2000/svg">
<path d="M11 11.7857C11.3108 11.7857 11.6146 11.6935 11.873 11.5209C12.1314 11.3482 12.3329 11.1028 12.4518 10.8156C12.5707 10.5285 12.6019 10.2125 12.5412 9.90771C12.4806 9.60288 12.3309 9.32288 12.1112 9.10311C11.8914 8.88335 11.6114 8.73368 11.3066 8.67305C11.0017 8.61241 10.6858 8.64353 10.3986 8.76247C10.1115 8.88141 9.86606 9.08282 9.69339 9.34124C9.52072 9.59966 9.42856 9.90348 9.42856 10.2143C9.42902 10.6309 9.59473 11.0303 9.88933 11.3249C10.1839 11.6195 10.5834 11.7852 11 11.7857ZM11 9.31978C11.1769 9.31978 11.3498 9.37224 11.4969 9.47053C11.644 9.56882 11.7587 9.70852 11.8264 9.87197C11.8941 10.0354 11.9118 10.2153 11.8773 10.3888C11.8428 10.5623 11.7576 10.7217 11.6325 10.8468C11.5074 10.9719 11.348 11.0571 11.1745 11.0916C11.001 11.1261 10.8211 11.1084 10.6577 11.0407C10.4942 10.973 10.3545 10.8583 10.2562 10.7112C10.1579 10.5641 10.1055 10.3912 10.1055 10.2143C10.1057 9.97712 10.2001 9.74975 10.3678 9.58205C10.5355 9.41436 10.7628 9.32003 11 9.31978Z" fill="#0986E2"/>
<path d="M21.8643 16.2361L19.4966 14.43V11.1577L20.3989 11.6534C20.5232 11.7217 20.6597 11.7649 20.8007 11.7804C20.9417 11.796 21.0844 11.7836 21.2206 11.744C21.3568 11.7045 21.4839 11.6384 21.5946 11.5497C21.7053 11.461 21.7974 11.3514 21.8657 11.2271C21.9341 11.1028 21.9772 10.9662 21.9928 10.8252C22.0083 10.6842 21.996 10.5416 21.9564 10.4054C21.9168 10.2691 21.8508 10.1421 21.7621 10.0314C21.6734 9.92066 21.5638 9.82851 21.4395 9.76019L11.962 4.55353V3.2061C11.962 3.11452 11.9256 3.02669 11.8609 2.96194C11.7961 2.89718 11.7083 2.8608 11.6167 2.8608H11.3454V2.5895H14.231C14.3009 2.58952 14.3691 2.56836 14.4267 2.5288C14.4843 2.48924 14.5285 2.43315 14.5535 2.36793C14.5785 2.30271 14.5832 2.23144 14.5669 2.16352C14.5506 2.09559 14.514 2.03422 14.4621 1.9875L13.8715 1.45476L14.4621 0.923204C14.514 0.876483 14.5506 0.81511 14.5669 0.747188C14.5832 0.679267 14.5785 0.607991 14.5535 0.542774C14.5285 0.477558 14.4843 0.421466 14.4267 0.381908C14.3691 0.342349 14.3009 0.321184 14.231 0.321207H11.3431C11.337 0.232011 11.2965 0.148659 11.2302 0.0887605C11.1638 0.0288617 11.0768 -0.00289214 10.9874 0.000207316C10.8981 0.00330677 10.8134 0.0410169 10.7514 0.105371C10.6893 0.169724 10.6547 0.255681 10.6549 0.345081V2.8608H10.3836C10.292 2.8608 10.2042 2.89718 10.1394 2.96194C10.0746 3.02669 10.0383 3.11452 10.0383 3.2061V4.55353L0.560437 9.76058C0.436066 9.82887 0.326363 9.92099 0.237591 10.0317C0.148819 10.1424 0.0827179 10.2695 0.0430608 10.4057C0.00340357 10.5419 -0.00903271 10.6846 0.006462 10.8257C0.0219567 10.9667 0.0650789 11.1033 0.133367 11.2277C0.201654 11.3521 0.29377 11.4618 0.404454 11.5505C0.515139 11.6393 0.642224 11.7054 0.778455 11.7451C0.914686 11.7847 1.05739 11.7972 1.19843 11.7817C1.33947 11.7662 1.47607 11.7231 1.60044 11.6548L2.50332 11.1577V14.43L0.135636 16.2361C0.093473 16.2684 0.0593262 16.31 0.0358508 16.3576C0.0123753 16.4053 0.000204009 16.4577 0.000283174 16.5108V21.6547C0.000283174 21.7463 0.0366615 21.8341 0.101415 21.8989C0.166169 21.9636 0.253994 22 0.34557 22H21.6547C21.7463 22 21.8341 21.9636 21.8989 21.8989C21.9636 21.8341 22 21.7463 22 21.6547V16.5108C22 16.4577 21.9878 16.4052 21.9643 16.3576C21.9407 16.3099 21.9065 16.2684 21.8643 16.2361ZM13.1245 1.71245L13.3317 1.89891H11.3454V1.01278H13.3315L13.1245 1.19904C13.0886 1.23142 13.0599 1.27099 13.0402 1.31517C13.0206 1.35936 13.0104 1.40719 13.0104 1.45555C13.0104 1.50391 13.0206 1.55174 13.0402 1.59593C13.0599 1.64011 13.0886 1.67968 13.1245 1.71205V1.71245ZM11.2714 3.55139V4.21238C11.0936 4.1658 10.9067 4.1658 10.7288 4.21238V3.55139H11.2714ZM1.26798 11.0492C1.17742 11.0989 1.07083 11.1106 0.971645 11.0818C0.872461 11.0529 0.788811 10.9858 0.739099 10.8952C0.689386 10.8047 0.677683 10.6981 0.706563 10.5989C0.735443 10.4997 0.802541 10.416 0.893097 10.3663L10.8127 4.91659C10.8701 4.88489 10.9346 4.86827 11.0001 4.86827C11.0657 4.86827 11.1302 4.88489 11.1876 4.91659L21.1074 10.3663C21.1979 10.4161 21.2649 10.4998 21.2937 10.599C21.3225 10.6982 21.3108 10.8048 21.2611 10.8953C21.2099 10.9843 21.1262 11.05 21.0277 11.0787C20.9291 11.1073 20.8232 11.0967 20.7323 11.049L11.1665 5.79304C11.1155 5.76515 11.0583 5.75054 11.0001 5.75054C10.942 5.75054 10.8848 5.76515 10.8338 5.79304L1.26798 11.0492ZM0.690857 16.6825L2.50332 15.2995V21.3094H0.690857V16.6825ZM3.19389 10.7787L11.0001 6.48995L18.8064 10.7787V21.3094H17.3962V12.8367C17.3962 12.7451 17.3599 12.6573 17.2951 12.5925C17.2304 12.5277 17.1425 12.4914 17.051 12.4914H4.94933C4.85776 12.4914 4.76993 12.5277 4.70518 12.5925C4.64042 12.6573 4.60404 12.7451 4.60404 12.8367V21.3094H3.19389V10.7787ZM5.29462 17.5901H16.7057V18.3691H5.29462V17.5901ZM5.29462 16.1205H16.7057V16.8995H5.29462V16.1205ZM16.7055 15.4299H5.29462V14.6515H16.7057L16.7055 15.4299ZM5.29462 19.0605H16.7057V19.8394H5.29462V19.0605ZM16.7057 13.9609H5.29462V13.182H16.7057V13.9609ZM5.29462 20.53H16.7057V21.309H5.29462V20.53ZM21.3094 21.309H19.497V15.2987L21.3094 16.6825V21.309Z" fill="#0986E2"/>
</svg>
