<svg width="22" height="22" viewBox="0 0 22 22" fill="none" xmlns="http://www.w3.org/2000/svg">
<path d="M15.3086 17.1297H14.2643V15.4333H15.0105C15.1121 15.4333 15.2095 15.393 15.2813 15.3212C15.3532 15.2493 15.3935 15.1519 15.3935 15.0503V13.2992C15.3935 13.1976 15.3532 13.1002 15.2813 13.0283C15.2095 12.9565 15.1121 12.9161 15.0105 12.9161H2.96594C2.86434 12.9161 2.76691 12.9565 2.69508 13.0283C2.62324 13.1002 2.58288 13.1976 2.58288 13.2992V15.0503C2.58288 15.1519 2.62324 15.2493 2.69508 15.3212C2.76691 15.393 2.86434 15.4333 2.96594 15.4333H3.71213V17.1297H2.66781C2.56622 17.1297 2.46879 17.1701 2.39695 17.2419C2.32511 17.3138 2.28476 17.4112 2.28476 17.5128V18.3883C2.2135 18.4354 2.14502 18.4866 2.07966 18.5416V2.74746L3.02548 2.45765C3.28162 2.97896 3.7067 3.3982 4.23151 3.64709C4.75631 3.89599 5.34993 3.95989 5.91568 3.82837C6.48143 3.69686 6.986 3.37768 7.34721 2.92282C7.70842 2.46796 7.905 1.90421 7.90493 1.32337C7.90479 1.20516 7.89638 1.08711 7.87976 0.970082L8.59443 0.751194C8.64331 0.73714 8.6889 0.713492 8.72855 0.68163C8.76819 0.649768 8.80109 0.61033 8.82533 0.565618C8.84957 0.520905 8.86467 0.471813 8.86973 0.421205C8.8748 0.370598 8.86973 0.319488 8.85484 0.270858C8.83994 0.222228 8.81551 0.177051 8.78297 0.137964C8.75042 0.098877 8.71042 0.066662 8.6653 0.0431983C8.62017 0.0197347 8.57083 0.00549221 8.52014 0.00130214C8.46945 -0.00288794 8.41844 0.00305822 8.37007 0.0187936L2.07944 1.94632V1.04144C2.07944 0.765689 1.9699 0.501232 1.77491 0.306247C1.57993 0.111262 1.31547 0.00172026 1.03972 0.00172026C0.763969 0.00172026 0.499512 0.111262 0.304527 0.306247C0.109542 0.501232 0 0.765689 0 1.04144V21.6169C3.02769e-09 21.7185 0.0403573 21.816 0.112194 21.8878C0.184031 21.9596 0.281462 22 0.383055 22C0.484647 22 0.582078 21.9596 0.653915 21.8878C0.725752 21.816 0.766109 21.7185 0.766109 21.6169V21.2105C0.766024 20.9343 0.869581 20.6681 1.0563 20.4645C1.24303 20.261 1.49933 20.1349 1.77453 20.1112C1.8514 20.104 1.9243 20.0737 1.98366 20.0243C2.04303 19.9749 2.0861 19.9088 2.10724 19.8345C2.20158 19.5028 2.4127 19.2163 2.70166 19.028C2.99062 18.8397 3.33794 18.7622 3.67954 18.8098C4.02115 18.8575 4.334 19.0271 4.5604 19.2873C4.7868 19.5475 4.91147 19.8808 4.91142 20.2257C4.91142 20.2513 4.90923 20.2763 4.90616 20.3222C4.90195 20.3828 4.91222 20.4436 4.93612 20.4994C4.96002 20.5553 4.99686 20.6047 5.0436 20.6435C5.09035 20.6823 5.14565 20.7094 5.20495 20.7226C5.26426 20.7359 5.32585 20.7348 5.38465 20.7195C5.45129 20.7006 5.52007 20.6904 5.58931 20.6891C5.80586 20.6893 6.01347 20.7754 6.16661 20.9285C6.31975 21.0816 6.40592 21.2892 6.40621 21.5057C6.40621 21.5314 6.40445 21.5567 6.40205 21.5819C6.39292 21.6829 6.42422 21.7834 6.4891 21.8614C6.55397 21.9394 6.64712 21.9884 6.74811 21.9978C6.76004 21.999 6.77202 21.9996 6.78401 21.9996C6.8794 21.9995 6.97134 21.9638 7.04182 21.8995C7.1123 21.8352 7.15626 21.747 7.16509 21.652C7.16969 21.6034 7.17231 21.5546 7.17231 21.5049C7.17208 21.3123 7.13646 21.1214 7.06725 20.9417H12.9144V21.6169C12.9144 21.7185 12.9548 21.816 13.0266 21.8878C13.0984 21.9596 13.1959 22 13.2975 22H14.4648C14.5664 22 14.6638 21.9596 14.7357 21.8878C14.8075 21.816 14.8479 21.7185 14.8479 21.6169V19.3186H15.3075C15.4091 19.3186 15.5065 19.2783 15.5784 19.2064C15.6502 19.1346 15.6906 19.0372 15.6906 18.9356V17.5128C15.6906 17.4114 15.6504 17.3141 15.5788 17.2423C15.5072 17.1705 15.41 17.13 15.3086 17.1297ZM7.13861 1.32315C7.13849 1.72037 7.00745 2.10649 6.76574 2.42171C6.52404 2.73694 6.18517 2.9637 5.80158 3.06689C5.418 3.17009 5.01109 3.14396 4.64385 2.99255C4.27662 2.84114 3.96953 2.5729 3.77013 2.22935L7.13423 1.19838C7.13715 1.23968 7.13861 1.28127 7.13861 1.32315ZM0.766109 19.7015V1.04144C0.766109 0.968874 0.794936 0.89928 0.846248 0.847968C0.89756 0.796656 0.967154 0.767829 1.03972 0.767829C1.11229 0.767829 1.18188 0.796656 1.23319 0.847968C1.2845 0.89928 1.31333 0.968874 1.31333 1.04144V19.4265C1.11706 19.4875 0.932173 19.5804 0.766109 19.7015ZM3.34899 13.682H14.6274V14.667H3.34877L3.34899 13.682ZM4.47824 15.4331H13.4982V17.1297H4.47802L4.47824 15.4331ZM6.44473 20.1758C6.20931 20.0229 5.9372 19.9359 5.65673 19.9238C5.62741 19.7146 5.56776 19.5107 5.47965 19.3186H12.9144V20.176L6.44473 20.1758ZM14.082 21.2337H13.6805V19.3186H14.0817L14.082 21.2337ZM14.9256 18.5525H4.90047C4.64919 18.3369 4.35186 18.1816 4.03128 18.0987C3.71071 18.0158 3.3754 18.0075 3.05108 18.0742V17.8958H14.9258L14.9256 18.5525Z" fill="#0986E2"/>
<path d="M6.87791 4.66755C6.78605 4.7109 6.71517 4.78896 6.68086 4.88456C6.64654 4.98016 6.6516 5.08547 6.69492 5.17734L7.91675 7.76767C7.93802 7.81345 7.96813 7.85458 8.00534 7.88869C8.04256 7.9228 8.08615 7.94922 8.13361 7.96643C8.18107 7.98363 8.23146 7.99129 8.28189 7.98895C8.33232 7.98661 8.38179 7.97433 8.42746 7.95281C8.47312 7.93129 8.51409 7.90096 8.54799 7.86355C8.58189 7.82615 8.60806 7.78241 8.62501 7.73485C8.64195 7.6873 8.64932 7.63686 8.6467 7.58645C8.64409 7.53603 8.63153 7.48663 8.60975 7.44109L7.38748 4.85011C7.34401 4.75842 7.26595 4.68772 7.17043 4.6535C7.07491 4.61928 6.96971 4.62433 6.87791 4.66755Z" fill="#0986E2"/>
<path d="M4.9344 4.93154L4.50079 6.89737C4.4789 6.99658 4.49732 7.10043 4.552 7.18606C4.60668 7.27169 4.69313 7.33209 4.79235 7.35397C4.89156 7.37586 4.9954 7.35744 5.08103 7.30276C5.16666 7.24808 5.22706 7.16163 5.24895 7.06241L5.68256 5.09658C5.70445 4.99737 5.68603 4.89352 5.63135 4.80789C5.57667 4.72226 5.49022 4.66186 5.39101 4.63998C5.29179 4.61809 5.18795 4.63651 5.10232 4.69119C5.01669 4.74587 4.95629 4.83232 4.9344 4.93154Z" fill="#0986E2"/>
<path d="M7.71581 3.84322C7.69392 3.94246 7.71233 4.04633 7.76701 4.132C7.82168 4.21766 7.90814 4.27811 8.00737 4.30004L9.86333 4.71002C9.91245 4.72087 9.96323 4.72194 10.0128 4.71316C10.0623 4.70439 10.1096 4.68594 10.152 4.65888C10.1945 4.63182 10.2311 4.59667 10.2599 4.55543C10.2888 4.5142 10.3092 4.46769 10.32 4.41857C10.3309 4.36944 10.332 4.31866 10.3232 4.26912C10.3144 4.21959 10.296 4.17226 10.2689 4.12985C10.2418 4.08744 10.2067 4.05078 10.1655 4.02195C10.1242 3.99313 10.0777 3.97271 10.0286 3.96186L8.17263 3.55188C8.07343 3.53004 7.96961 3.54845 7.88397 3.60307C7.79832 3.65769 7.73785 3.74406 7.71581 3.84322Z" fill="#0986E2"/>
<path d="M21.7345 19.9451C21.6656 19.4159 21.4067 18.9298 21.006 18.5774C20.6052 18.225 20.09 18.0303 19.5564 18.0296C19.497 18.0296 19.4384 18.0324 19.3802 18.037L19.1919 11.3804C19.2153 11.3804 19.239 11.3844 19.2624 11.3844C19.6759 11.3842 20.083 11.2822 20.4477 11.0874C20.8124 10.8925 21.1235 10.6109 21.3535 10.2672C21.5835 9.9236 21.7253 9.52861 21.7663 9.11717C21.8074 8.70572 21.7465 8.29049 21.589 7.90818C21.7528 7.66603 21.8652 7.39279 21.919 7.10541C21.9729 6.81804 21.9671 6.52266 21.9021 6.2376C21.8371 5.95254 21.7142 5.68388 21.541 5.44829C21.3679 5.2127 21.1482 5.0152 20.8955 4.86804C20.9421 4.44982 20.9003 4.02648 20.7727 3.62546C20.6452 3.22444 20.4348 2.8547 20.1552 2.5402C19.8756 2.22571 19.5331 1.97347 19.1497 1.79985C18.7664 1.62624 18.3509 1.53511 17.9301 1.53238C17.5093 1.52965 17.0926 1.61538 16.7071 1.78401C16.3215 1.95264 15.9757 2.20041 15.6921 2.51126C15.4084 2.8221 15.1933 3.18908 15.0605 3.58841C14.9278 3.98774 14.8805 4.41051 14.9216 4.8293C14.5734 4.97604 14.2661 5.2054 14.0265 5.49755C13.7868 5.78969 13.6219 6.13583 13.546 6.50602C13.4701 6.87622 13.4856 7.25932 13.591 7.6222C13.6964 7.98508 13.8887 8.31681 14.1511 8.58871C14.3123 8.75642 14.4981 8.89864 14.7021 9.01051C14.6168 9.3133 14.6119 9.63309 14.6878 9.93836C14.7638 10.2436 14.918 10.5238 15.1353 10.7513C15.4051 11.0312 15.7585 11.2158 16.1423 11.2776C16.5261 11.3393 16.9195 11.2748 17.2635 11.0937L17.0227 19.5852C16.6581 19.7911 16.3735 20.1138 16.2146 20.5012C16.0558 20.8887 16.032 21.3183 16.1472 21.7209C16.1758 21.8175 16.2414 21.8988 16.3296 21.9474C16.4178 21.996 16.5216 22.0079 16.6185 21.9806C16.7154 21.9532 16.7977 21.8888 16.8474 21.8012C16.8972 21.7137 16.9105 21.61 16.8844 21.5128C16.8559 21.4144 16.8412 21.3126 16.8406 21.2102C16.8403 21.0081 16.8958 20.8099 17.001 20.6373C17.1062 20.4647 17.2571 20.3246 17.4369 20.2323C17.5088 20.225 17.5771 20.1974 17.6339 20.1526C17.704 20.1318 17.776 20.1178 17.8488 20.1108C17.9257 20.1036 17.9986 20.0733 18.058 20.024C18.1174 19.9746 18.1604 19.9084 18.1815 19.8341C18.2759 19.5023 18.487 19.2159 18.7759 19.0276C19.0649 18.8392 19.4122 18.7618 19.7538 18.8094C20.0954 18.8571 20.4083 19.0266 20.6347 19.2868C20.8611 19.547 20.9858 19.8803 20.9857 20.2253C20.9857 20.2502 20.9837 20.2749 20.982 20.2995L20.9804 20.3229C20.9765 20.3834 20.9869 20.444 21.011 20.4997C21.035 20.5554 21.0719 20.6046 21.1187 20.6433C21.1654 20.6819 21.2207 20.7089 21.2799 20.722C21.3392 20.7351 21.4007 20.7339 21.4594 20.7186C21.5167 20.7039 21.5754 20.6947 21.6345 20.6913C21.7236 20.6864 21.8083 20.6505 21.8738 20.5898C21.9393 20.5291 21.9816 20.4474 21.9932 20.3589C22.0049 20.2704 21.9853 20.1805 21.9378 20.1049C21.8903 20.0293 21.8178 19.9727 21.733 19.9449L21.7345 19.9451ZM17.1427 10.2457C16.9449 10.4335 16.6817 10.5371 16.409 10.5344C16.2737 10.5323 16.1403 10.5033 16.0163 10.4493C15.8923 10.3953 15.7803 10.3172 15.6866 10.2196C15.5337 10.0595 15.436 9.85467 15.4079 9.63504C15.3799 9.41541 15.4228 9.19256 15.5306 8.99912C15.5582 8.95011 15.5746 8.89563 15.5788 8.83953C15.583 8.78344 15.5747 8.72712 15.5547 8.67457C15.5346 8.62202 15.5032 8.57453 15.4627 8.53548C15.4223 8.49643 15.3737 8.46678 15.3204 8.44862C15.0675 8.36216 14.841 8.21215 14.6627 8.013C14.4844 7.81384 14.3603 7.57221 14.3023 7.31129C14.2442 7.05037 14.2542 6.7789 14.3312 6.52294C14.4082 6.26697 14.5497 6.03509 14.7421 5.84954C14.9378 5.66119 15.1792 5.52725 15.4426 5.46101C15.5388 5.43689 15.622 5.37631 15.6745 5.29207C15.7269 5.20782 15.7446 5.10649 15.7238 5.00945C15.6535 4.68324 15.6571 4.34543 15.7342 4.02076C15.8114 3.6961 15.9602 3.39281 16.1697 3.13312C16.3793 2.87342 16.6443 2.6639 16.9453 2.5199C17.2464 2.37591 17.5758 2.30108 17.9095 2.30092C18.2432 2.30075 18.5727 2.37524 18.8739 2.51894C19.1751 2.66263 19.4403 2.87189 19.6501 3.13137C19.86 3.39086 20.0091 3.694 20.0865 4.01859C20.164 4.34317 20.1679 4.68098 20.0979 5.00726C20.0791 5.09547 20.0921 5.18748 20.1344 5.2671C20.1768 5.34672 20.2458 5.40887 20.3295 5.44263C20.5324 5.52364 20.7129 5.65208 20.856 5.8172C20.999 5.98231 21.1004 6.1793 21.1517 6.39166C21.203 6.60403 21.2027 6.82559 21.1508 7.0378C21.0988 7.25 20.9968 7.44669 20.8533 7.61137C20.803 7.66995 20.7715 7.74236 20.7631 7.81912C20.7546 7.89587 20.7696 7.97338 20.806 8.04149C20.9526 8.3149 21.0237 8.62241 21.0122 8.93242C21.0006 9.24244 20.9068 9.54379 20.7403 9.80554C20.5737 10.0673 20.3405 10.28 20.0646 10.4218C19.7887 10.5636 19.48 10.6295 19.1702 10.6126L19.1405 9.55838L20.0699 9.10113C20.161 9.05625 20.2307 8.977 20.2634 8.8808C20.2961 8.7846 20.2893 8.67933 20.2444 8.58816C20.1996 8.49699 20.1203 8.42738 20.0241 8.39464C19.9279 8.3619 19.8226 8.36872 19.7315 8.4136L19.1166 8.7161L19.0555 6.55633C19.0555 6.33573 18.9679 6.12416 18.8119 5.96818C18.6559 5.81219 18.4444 5.72456 18.2238 5.72456C18.0032 5.72456 17.7916 5.81219 17.6356 5.96818C17.4796 6.12416 17.392 6.33573 17.392 6.55633L17.3664 7.46559L16.5226 6.78025C16.4835 6.74853 16.4386 6.72482 16.3904 6.71045C16.3422 6.69609 16.2916 6.69137 16.2416 6.69655C16.1915 6.70173 16.143 6.71672 16.0987 6.74066C16.0545 6.7646 16.0154 6.79702 15.9837 6.83607C15.9196 6.91493 15.8895 7.01602 15.9 7.11708C15.9104 7.21815 15.9606 7.31091 16.0395 7.37497L17.339 8.43067L17.2931 10.0542C17.2509 10.1239 17.2004 10.1882 17.1427 10.2457ZM17.8085 18.9027L18.157 6.57931C18.157 6.56194 18.1639 6.54527 18.1762 6.53296C18.1884 6.52065 18.2051 6.51371 18.2225 6.51365C18.2396 6.51397 18.2559 6.52085 18.2681 6.53286C18.2804 6.54487 18.2875 6.5611 18.2881 6.57822L18.3663 9.34541L18.6178 18.2421C18.2992 18.3947 18.0218 18.6212 17.8085 18.9027Z" fill="#0986E2"/>
</svg>
