<svg width="66" height="66" viewBox="0 0 66 66" fill="none" xmlns="http://www.w3.org/2000/svg">
<circle r="33" transform="matrix(-1 0 0 1 33 33)" fill="white" fill-opacity="0.1"/>
<circle r="24.58" transform="matrix(-1 0 0 1 33.0001 33)" stroke="white"/>
<path d="M26.3172 38.5786C26.1896 38.5786 26.0673 38.6292 25.9771 38.7194C25.8869 38.8097 25.8362 38.932 25.8362 39.0596V42.843C25.8362 42.9705 25.8869 43.0929 25.9771 43.1831C26.0673 43.2733 26.1896 43.324 26.3172 43.324C26.4448 43.324 26.5671 43.2733 26.6574 43.1831C26.7476 43.0929 26.7982 42.9705 26.7982 42.843V39.0596C26.7982 38.932 26.7476 38.8097 26.6574 38.7194C26.5671 38.6292 26.4448 38.5786 26.3172 38.5786Z" fill="white"/>
<path d="M39.897 38.5786C39.7695 38.5786 39.6471 38.6292 39.5569 38.7194C39.4667 38.8097 39.416 38.932 39.416 39.0596V42.843C39.416 42.9705 39.4667 43.0929 39.5569 43.1831C39.6471 43.2733 39.7695 43.324 39.897 43.324C40.0246 43.324 40.147 43.2733 40.2372 43.1831C40.3274 43.0929 40.3781 42.9705 40.3781 42.843V39.0596C40.3781 38.932 40.3274 38.8097 40.2372 38.7194C40.147 38.6292 40.0246 38.5786 39.897 38.5786Z" fill="white"/>
<path fill-rule="evenodd" clip-rule="evenodd" d="M42.23 33.9781C41.3617 33.1881 39.8818 32.5983 38.5453 32.3227C39.1619 31.3634 39.4892 30.2469 39.4881 29.1066V28.5472C39.9229 28.443 40.3118 28.1999 40.596 27.8548C40.8802 27.5096 41.0442 27.0813 41.0632 26.6346C41.0821 26.1879 40.9549 25.7472 40.7009 25.3793C40.4469 25.0114 40.0799 24.7363 39.6555 24.5956H40.3172C40.4446 24.5954 40.5667 24.5446 40.6568 24.4545C40.7468 24.3643 40.7974 24.242 40.7974 24.1146V22.3062C40.7974 22.1786 40.7467 22.0563 40.6565 21.9661C40.5663 21.8758 40.4439 21.8252 40.3163 21.8252H39.4873V19.9208C39.4864 19.1464 39.1783 18.404 38.6307 17.8564C38.0831 17.3089 37.3406 17.0009 36.5662 17H30.4604C29.686 17.0009 28.9435 17.3089 28.3959 17.8564C27.8483 18.404 27.5402 19.1464 27.5393 19.9208V21.8252H26.71C26.5824 21.8252 26.4601 21.8758 26.3698 21.9661C26.2796 22.0563 26.229 22.1786 26.229 22.3062V24.1146C26.229 24.2422 26.2796 24.3645 26.3698 24.4547C26.4601 24.545 26.5824 24.5956 26.71 24.5956H27.3716C26.9471 24.7361 26.5799 25.0112 26.3258 25.3792C26.0717 25.7472 25.9444 26.188 25.9634 26.6347C25.9823 27.0815 26.1465 27.51 26.4308 27.8551C26.7152 28.2002 27.1044 28.4432 27.5393 28.5472V29.1091C27.5384 30.2485 27.8654 31.364 28.4813 32.3227C26.3674 32.7599 24.4689 33.9128 23.1061 35.5869C21.7432 37.261 20.9994 39.3539 21 41.5126V42.8427C21 42.9703 21.0507 43.0926 21.1409 43.1828C21.2311 43.273 21.3535 43.3237 21.481 43.3237C21.6086 43.3237 21.731 43.273 21.8212 43.1828C21.9114 43.0926 21.9621 42.9703 21.9621 42.8427V41.5126C21.9618 39.9017 22.4234 38.3245 23.2921 36.9679C24.1608 35.6113 25.4001 34.5322 26.8634 33.8584C26.8947 33.9127 26.9365 33.9603 26.9862 33.9986L30.6556 36.8155C30.7399 36.8803 30.8434 36.9153 30.9498 36.915C31.0562 36.9147 31.1595 36.8791 31.2435 36.8138L31.6503 36.498L32.9667 37.8537L31.4016 42.6962C31.3809 42.7566 31.3725 42.8205 31.3769 42.8842C31.3812 42.9479 31.3982 43.0101 31.4268 43.0672C31.4554 43.1242 31.495 43.175 31.5435 43.2166C31.5919 43.2582 31.6481 43.2897 31.7089 43.3093C31.7696 43.329 31.8337 43.3363 31.8973 43.3309C31.9609 43.3256 32.0228 43.3076 32.0794 43.278C32.136 43.2485 32.1861 43.208 32.2269 43.1589C32.2677 43.1098 32.2983 43.053 32.3169 42.992L33.5132 39.2913L34.7094 42.992C34.7502 43.1114 34.8363 43.21 34.9491 43.2666C35.0619 43.3231 35.1925 43.3331 35.3125 43.2943C35.4326 43.2555 35.5327 43.171 35.5911 43.0591C35.6495 42.9472 35.6616 42.8169 35.6248 42.6962L34.0599 37.8534L35.376 36.4977L35.7828 36.8138C35.8668 36.8791 35.9701 36.9147 36.0765 36.915C36.1829 36.9153 36.2864 36.8803 36.3708 36.8155L40.0401 33.9988C40.0891 33.9613 40.1303 33.9146 40.1616 33.8614C42.0469 34.41 44.0201 39.6717 44.6778 42.3026C44.6778 42.3026 45.8236 43.2943 45.9932 42.3026C46.1629 41.3109 43.0983 34.7682 42.23 33.9781ZM29.9712 32.6507C30.9107 33.5901 32.1845 34.1185 33.5132 34.1201C34.8418 34.1186 36.1156 33.5902 37.0552 32.6508C37.9948 31.7115 38.5235 30.4377 38.5252 29.1091V24.5956H28.5014V29.1088C28.503 30.4375 29.0316 31.7112 29.9712 32.6507ZM39.9353 27.1261C40.0441 26.9528 40.1021 26.7524 40.1027 26.5478C40.1021 26.3432 40.0441 26.1428 39.9353 25.9695C39.8265 25.7962 39.6713 25.6569 39.4873 25.5673V27.5283C39.6713 27.4387 39.8265 27.2994 39.9353 27.1261ZM36.5662 17.9621H30.4604C29.941 17.9626 29.4431 18.1691 29.0758 18.5363C28.7085 18.9035 28.5019 19.4015 28.5014 19.9208V20.1306H38.525V19.9208C38.5244 19.4015 38.3178 18.9036 37.9506 18.5364C37.5834 18.1692 37.0855 17.9626 36.5662 17.9621ZM38.5255 21.0937L28.5016 21.0956L28.5014 21.826H38.5255V21.0937ZM39.8356 22.7881H27.1913V23.6336H39.8356V22.7881ZM27.091 25.9695C26.9822 26.1428 26.9242 26.3432 26.9236 26.5478C26.9242 26.7524 26.9822 26.9528 27.091 27.1261C27.1998 27.2994 27.355 27.4387 27.539 27.5283V25.5673C27.355 25.6569 27.1998 25.7962 27.091 25.9695ZM27.8766 33.4692L30.9469 35.8259L32.1187 34.9172C30.9802 34.6424 29.9476 34.039 29.1492 33.1822C28.7182 33.2448 28.2927 33.3407 27.8766 33.4692ZM32.4139 35.9043L33.5134 37.0354L34.6118 35.9046L33.5527 35.0821H33.5134H33.4739L32.4139 35.9043ZM34.9084 34.9172L36.0797 35.8259L39.1445 33.4736C38.7293 33.3448 38.3047 33.2485 37.8746 33.1855C37.0767 34.0406 36.0453 34.6427 34.9084 34.9172Z" fill="white"/>
<path d="M37.2352 27.0283C37.3628 27.0283 37.4852 26.9776 37.5754 26.8874C37.6656 26.7972 37.7163 26.6749 37.7163 26.5473C37.7163 26.4197 37.6656 26.2974 37.5754 26.2071C37.4852 26.1169 37.3628 26.0663 37.2352 26.0663H35.2652C35.1693 26.066 35.0756 26.0945 34.9961 26.148C34.9165 26.2015 34.8549 26.2776 34.8189 26.3665C34.783 26.4554 34.7745 26.553 34.7945 26.6467C34.8145 26.7405 34.8621 26.8261 34.9312 26.8925C34.944 27.0733 35.0207 27.2437 35.1476 27.3731C35.2745 27.5025 35.4434 27.5826 35.6239 27.5989C35.8044 27.6152 35.9848 27.5668 36.1329 27.4622C36.281 27.3577 36.387 27.2039 36.432 27.0283H37.2352Z" fill="white"/>
<path d="M32.0951 26.8931C32.1643 26.8267 32.2121 26.7411 32.2323 26.6473C32.2524 26.5535 32.244 26.4558 32.2081 26.3669C32.1722 26.2779 32.1105 26.2017 32.031 26.1481C31.9514 26.0946 31.8576 26.066 31.7617 26.0663H29.7911C29.6635 26.0663 29.5412 26.1169 29.451 26.2071C29.3607 26.2974 29.3101 26.4197 29.3101 26.5473C29.3101 26.6749 29.3607 26.7972 29.451 26.8874C29.5412 26.9776 29.6635 27.0283 29.7911 27.0283H30.5943C30.6393 27.2039 30.7453 27.3577 30.8934 27.4622C31.0414 27.5668 31.2218 27.6153 31.4023 27.599C31.5828 27.5827 31.7517 27.5027 31.8786 27.3733C32.0055 27.2439 32.0823 27.0736 32.0951 26.8928V26.8931Z" fill="white"/>
<path d="M34.9223 29.4945C34.7948 29.4945 34.6724 29.5452 34.5822 29.6354C34.492 29.7256 34.4413 29.8479 34.4413 29.9755C34.4413 30.2219 34.3434 30.4582 34.1692 30.6325C33.995 30.8067 33.7586 30.9046 33.5122 30.9046C33.2658 30.9046 33.0295 30.8067 32.8553 30.6325C32.681 30.4582 32.5832 30.2219 32.5832 29.9755C32.5832 29.8479 32.5325 29.7256 32.4423 29.6354C32.3521 29.5452 32.2297 29.4945 32.1021 29.4945C31.9745 29.4945 31.8522 29.5452 31.762 29.6354C31.6718 29.7256 31.6211 29.8479 31.6211 29.9755C31.6211 30.2239 31.67 30.4698 31.765 30.6992C31.8601 30.9287 31.9994 31.1371 32.175 31.3128C32.3506 31.4884 32.5591 31.6277 32.7885 31.7227C33.018 31.8177 33.2639 31.8667 33.5122 31.8667C33.7606 31.8667 34.0065 31.8177 34.2359 31.7227C34.4654 31.6277 34.6739 31.4884 34.8495 31.3128C35.0251 31.1371 35.1644 30.9287 35.2594 30.6992C35.3545 30.4698 35.4034 30.2239 35.4034 29.9755C35.4034 29.8479 35.3527 29.7256 35.2625 29.6354C35.1723 29.5452 35.0499 29.4945 34.9223 29.4945Z" fill="white"/>
</svg>
