<svg width="352" height="66" viewBox="0 0 352 66" fill="none" xmlns="http://www.w3.org/2000/svg">
<line x1="70" y1="32.5" x2="139" y2="32.5" stroke="#C4C4C4" stroke-opacity="0.5" stroke-dasharray="3 5"/>
<path d="M187.596 20.111H178.661C178.648 19.5466 178.414 19.0098 178.011 18.6153C177.607 18.2208 177.065 18 176.5 18C175.935 18 175.393 18.2208 174.989 18.6153C174.586 19.0098 174.352 19.5466 174.339 20.111H165.404C165.032 20.111 164.675 20.2589 164.411 20.5222C164.148 20.7855 164 21.1427 164 21.515C164 21.8874 164.148 22.2446 164.411 22.5079C164.675 22.7712 165.032 22.9191 165.404 22.9191H166.801V40.0784C166.801 40.1924 166.839 40.3033 166.907 40.3942C166.976 40.485 167.073 40.5508 167.183 40.5815L174.336 42.578V47.4643C174.336 47.6028 174.391 47.7357 174.489 47.8336C174.587 47.9315 174.72 47.9866 174.859 47.9866C174.997 47.9866 175.13 47.9315 175.228 47.8336C175.326 47.7357 175.381 47.6028 175.381 47.4643V42.8686L176.359 43.1417C176.451 43.1673 176.548 43.1673 176.64 43.1417L177.619 42.8686V47.4643C177.619 47.6028 177.674 47.7357 177.772 47.8336C177.87 47.9315 178.003 47.9866 178.141 47.9866C178.28 47.9866 178.413 47.9315 178.511 47.8336C178.609 47.7357 178.664 47.6028 178.664 47.4643V42.578L185.817 40.5812C185.927 40.5505 186.024 40.4848 186.092 40.394C186.161 40.3032 186.199 40.1924 186.199 40.0784V22.9191H187.596C187.968 22.9191 188.325 22.7712 188.589 22.5079C188.852 22.2446 189 21.8874 189 21.515C189 21.1427 188.852 20.7855 188.589 20.5222C188.325 20.2589 187.968 20.111 187.596 20.111ZM176.5 19.0396C176.788 19.0404 177.065 19.1522 177.272 19.3518C177.48 19.5513 177.602 19.8233 177.614 20.111H175.386C175.398 19.8233 175.52 19.5513 175.728 19.3518C175.935 19.1522 176.212 19.0404 176.5 19.0396ZM165.404 21.8746C165.309 21.8746 165.217 21.8368 165.15 21.7693C165.082 21.7019 165.044 21.6104 165.044 21.515C165.044 21.4197 165.082 21.3282 165.15 21.2608C165.217 21.1933 165.309 21.1555 165.404 21.1555H166.801V21.8746H165.404ZM185.154 39.6821L176.5 42.0975L167.846 39.6821V21.1555H185.154V39.6821ZM187.596 21.8746H186.199V21.1555H187.596C187.691 21.1555 187.783 21.1933 187.85 21.2608C187.918 21.3282 187.956 21.4197 187.956 21.515C187.956 21.6104 187.918 21.7019 187.85 21.7693C187.783 21.8368 187.691 21.8746 187.596 21.8746Z" fill="#A0A9F4"/>
<path d="M182.033 28.4041L176.709 25.5831C176.633 25.5428 176.549 25.5217 176.463 25.5217C176.377 25.5217 176.293 25.5428 176.218 25.5831L170.964 28.4038C170.901 28.4348 170.845 28.4781 170.799 28.5312C170.754 28.5842 170.719 28.6459 170.698 28.7126C170.676 28.7793 170.669 28.8496 170.675 28.9193C170.681 28.9891 170.702 29.0568 170.735 29.1185C170.768 29.1803 170.813 29.2347 170.867 29.2787C170.922 29.3226 170.985 29.3551 171.052 29.3743C171.119 29.3935 171.19 29.3989 171.259 29.3903C171.329 29.3817 171.396 29.3592 171.457 29.3241L171.834 29.1215V34.8163C171.834 34.9548 171.889 35.0876 171.987 35.1856C172.085 35.2835 172.218 35.3385 172.356 35.3385H175.081C175.15 35.3387 175.218 35.3254 175.281 35.2992C175.345 35.2731 175.402 35.2346 175.451 35.1861C175.5 35.1376 175.538 35.08 175.565 35.0165C175.591 34.953 175.605 34.885 175.605 34.8163V32.3991H177.391V34.8163C177.391 34.9548 177.446 35.0876 177.544 35.1856C177.642 35.2835 177.775 35.3385 177.913 35.3385H180.638C180.776 35.3385 180.909 35.2835 181.007 35.1856C181.105 35.0876 181.16 34.9548 181.16 34.8163V29.1227L181.545 29.3265C181.667 29.3887 181.809 29.4005 181.939 29.3592C182.07 29.3179 182.179 29.2269 182.243 29.1058C182.308 28.9847 182.322 28.8433 182.283 28.7119C182.243 28.5806 182.154 28.4699 182.034 28.4038L182.033 28.4041ZM180.115 34.2941H178.435V31.8768C178.435 31.7383 178.38 31.6055 178.282 31.5076C178.184 31.4096 178.051 31.3546 177.913 31.3546H175.082C174.943 31.3546 174.81 31.4096 174.712 31.5076C174.615 31.6055 174.56 31.7383 174.56 31.8768V34.2941H172.879V28.5611L176.466 26.6363L180.115 28.5694L180.115 34.2941Z" fill="#A0A9F4"/>
<path d="M331.833 35.9801L327.367 32.2417V26.6763C327.365 24.9333 326.682 23.2601 325.464 22.0133C324.245 20.7666 322.589 20.0449 320.846 20.002C319.104 19.9592 317.413 20.5986 316.135 21.7839C314.857 22.9693 314.093 24.6069 314.005 26.3477L307.246 29.975C307.137 30.0335 307.056 30.133 307.02 30.2515C306.984 30.37 306.997 30.4978 307.055 30.6069C307.114 30.716 307.213 30.7973 307.332 30.8331C307.451 30.8688 307.578 30.856 307.687 30.7975L308.516 30.3526V38.2645C308.516 38.3883 308.565 38.507 308.652 38.5945C308.74 38.6821 308.859 38.7312 308.982 38.7312H312.588C312.712 38.7312 312.831 38.6821 312.918 38.5945C313.006 38.507 313.055 38.3883 313.055 38.2645V34.84H315.868V38.2645C315.868 38.3883 315.917 38.507 316.005 38.5945C316.092 38.6821 316.211 38.7312 316.335 38.7312H319.941C320.065 38.7312 320.184 38.6821 320.271 38.5945C320.359 38.507 320.408 38.3883 320.408 38.2645V30.3558L321.247 30.8004C321.356 30.8584 321.484 30.8705 321.603 30.8342C321.721 30.7978 321.82 30.7159 321.878 30.6065C321.936 30.4971 321.948 30.3692 321.912 30.2508C321.875 30.1325 321.793 30.0335 321.684 29.9755L314.942 26.4037C315.005 24.8983 315.656 23.4777 316.756 22.4477C317.855 21.4176 319.316 20.8605 320.822 20.8962C322.328 20.9319 323.76 21.5577 324.81 22.6387C325.859 23.7197 326.442 25.1696 326.434 26.6763V32.2417L321.966 35.9801C321.913 36.0239 321.871 36.0787 321.842 36.1405C321.813 36.2024 321.798 36.2698 321.798 36.3381V46.3284C321.798 46.4522 321.848 46.5709 321.935 46.6584C322.023 46.746 322.141 46.7952 322.265 46.7952H331.533C331.657 46.7952 331.776 46.746 331.863 46.6584C331.951 46.5709 332 46.4522 332 46.3284V36.3381C332 36.2698 331.985 36.2024 331.956 36.1405C331.927 36.0787 331.885 36.0239 331.833 35.9801ZM314.063 29.3063C314.104 29.3763 314.163 29.4343 314.233 29.4743C314.304 29.5143 314.384 29.5351 314.465 29.5344C314.547 29.5338 314.626 29.5118 314.696 29.4706C314.766 29.4294 314.824 29.3706 314.864 29.2999C314.911 29.3741 314.936 29.4599 314.937 29.5477C314.937 29.6727 314.887 29.7925 314.799 29.8809C314.71 29.9693 314.59 30.019 314.465 30.019C314.34 30.019 314.22 29.9693 314.132 29.8809C314.044 29.7925 313.994 29.6727 313.994 29.5477C313.994 29.4625 314.018 29.379 314.063 29.3063ZM319.474 37.7978H316.802V34.3732C316.802 34.2494 316.752 34.1307 316.665 34.0432C316.577 33.9557 316.459 33.9065 316.335 33.9065H312.588C312.465 33.9065 312.346 33.9557 312.258 34.0432C312.171 34.1307 312.122 34.2494 312.122 34.3732V37.7978H309.449V29.8512L313.995 27.4119V28.2299C313.683 28.3407 313.419 28.5586 313.252 28.8449C313.084 29.1312 313.024 29.4675 313.08 29.7942C313.137 30.121 313.307 30.4173 313.561 30.6305C313.815 30.8438 314.136 30.9604 314.468 30.9596C314.8 30.9588 315.12 30.8408 315.373 30.6264C315.626 30.412 315.795 30.1149 315.851 29.7879C315.906 29.4609 315.843 29.1249 315.675 28.8393C315.506 28.5538 315.242 28.3372 314.929 28.2277V27.453L319.474 29.8613V37.7978ZM326.52 35.4417C326.563 35.5023 326.62 35.5517 326.686 35.5858C326.752 35.6199 326.825 35.6377 326.899 35.6377C326.973 35.6377 327.046 35.6199 327.112 35.5858C327.178 35.5517 327.235 35.5023 327.278 35.4417C327.33 35.5118 327.361 35.595 327.369 35.6819C327.376 35.7689 327.359 35.8561 327.32 35.934C327.28 36.0119 327.22 36.0774 327.146 36.1231C327.072 36.1688 326.986 36.1931 326.899 36.1931C326.812 36.1931 326.726 36.1688 326.652 36.1231C326.578 36.0774 326.517 36.0119 326.478 35.934C326.439 35.8561 326.422 35.7689 326.429 35.6819C326.437 35.595 326.468 35.5118 326.52 35.4417ZM331.066 45.8617H322.732V36.556L326.434 33.459V34.4004C326.121 34.5106 325.857 34.7278 325.689 35.0136C325.521 35.2994 325.46 35.6354 325.516 35.9621C325.571 36.2889 325.741 36.5854 325.995 36.7991C326.248 37.0129 326.569 37.1301 326.9 37.1301C327.232 37.1301 327.553 37.0129 327.806 36.7991C328.059 36.5854 328.229 36.2889 328.285 35.9621C328.341 35.6354 328.279 35.2994 328.111 35.0136C327.943 34.7278 327.68 34.5106 327.367 34.4004V33.459L331.068 36.556L331.066 45.8617Z" fill="#A0A9F4"/>
<path d="M325.152 40.8958C325.384 40.8956 325.61 40.8266 325.803 40.6976C325.995 40.5687 326.146 40.3855 326.234 40.1713C326.323 39.9571 326.346 39.7214 326.3 39.4942C326.255 39.2669 326.143 39.0581 325.979 38.8943C325.815 38.7305 325.606 38.619 325.379 38.5739C325.152 38.5288 324.916 38.5521 324.702 38.6408C324.488 38.7296 324.305 38.8798 324.176 39.0726C324.047 39.2653 323.979 39.4919 323.979 39.7236C323.979 40.0347 324.103 40.3328 324.323 40.5526C324.543 40.7724 324.841 40.8958 325.152 40.8958ZM325.152 39.4849C325.199 39.4852 325.245 39.4994 325.284 39.5257C325.323 39.5521 325.354 39.5894 325.371 39.6329C325.389 39.6765 325.394 39.7244 325.385 39.7705C325.375 39.8167 325.353 39.8591 325.319 39.8924C325.286 39.9257 325.244 39.9484 325.198 39.9577C325.151 39.9669 325.104 39.9623 325.06 39.9444C325.016 39.9265 324.979 39.8961 324.953 39.8571C324.926 39.818 324.912 39.7721 324.912 39.725C324.912 39.6935 324.918 39.6622 324.93 39.6331C324.942 39.604 324.96 39.5775 324.982 39.5553C325.005 39.533 325.031 39.5153 325.06 39.5032C325.089 39.4912 325.121 39.4849 325.152 39.4849Z" fill="#A0A9F4"/>
<path d="M328.647 42.3849C328.415 42.3849 328.189 42.4536 327.996 42.5824C327.803 42.7112 327.653 42.8943 327.564 43.1085C327.475 43.3227 327.452 43.5584 327.497 43.7857C327.543 44.0131 327.654 44.222 327.818 44.3859C327.982 44.5498 328.191 44.6615 328.418 44.7067C328.646 44.7519 328.881 44.7287 329.096 44.64C329.31 44.5513 329.493 44.401 329.622 44.2083C329.75 44.0155 329.819 43.7889 329.819 43.5571C329.819 43.2463 329.695 42.9483 329.476 42.7286C329.256 42.5088 328.958 42.3852 328.647 42.3849ZM328.647 43.7955C328.6 43.7955 328.554 43.7815 328.514 43.7553C328.475 43.729 328.445 43.6918 328.427 43.6481C328.408 43.6045 328.404 43.5565 328.413 43.5102C328.422 43.4639 328.445 43.4214 328.478 43.388C328.512 43.3546 328.554 43.3319 328.6 43.3227C328.647 43.3135 328.695 43.3182 328.738 43.3363C328.782 43.3543 328.819 43.3849 328.846 43.4242C328.872 43.4634 328.886 43.5096 328.886 43.5568C328.885 43.6199 328.86 43.6802 328.815 43.7247C328.77 43.7692 328.71 43.7943 328.647 43.7947V43.7955Z" fill="#A0A9F4"/>
<path d="M323.864 44.4081C323.947 44.4996 324.063 44.5542 324.187 44.56C324.311 44.5657 324.431 44.5221 324.523 44.4388L329.904 39.5327C329.95 39.4917 329.988 39.4419 330.014 39.3862C330.041 39.3305 330.057 39.2701 330.06 39.2084C330.063 39.1467 330.054 39.0849 330.033 39.0267C330.013 38.9685 329.981 38.9151 329.939 38.8694C329.897 38.8237 329.847 38.7867 329.791 38.7606C329.735 38.7346 329.674 38.7198 329.613 38.7174C329.551 38.7149 329.489 38.7247 329.431 38.7462C329.373 38.7677 329.32 38.8005 329.275 38.8427L323.894 43.748C323.849 43.7893 323.812 43.8392 323.786 43.8947C323.76 43.9503 323.745 44.0104 323.742 44.0718C323.739 44.1331 323.748 44.1944 323.769 44.2521C323.79 44.3098 323.822 44.3628 323.864 44.4081Z" fill="#A0A9F4"/>
<circle r="33" transform="matrix(-1 0 0 1 33 33)" fill="white" fill-opacity="0.1"/>
<circle r="24.58" transform="matrix(-1 0 0 1 33.0001 33)" stroke="white"/>
<path d="M26.3172 38.5786C26.1896 38.5786 26.0673 38.6292 25.9771 38.7194C25.8869 38.8097 25.8362 38.932 25.8362 39.0596V42.843C25.8362 42.9705 25.8869 43.0929 25.9771 43.1831C26.0673 43.2733 26.1896 43.324 26.3172 43.324C26.4448 43.324 26.5671 43.2733 26.6574 43.1831C26.7476 43.0929 26.7982 42.9705 26.7982 42.843V39.0596C26.7982 38.932 26.7476 38.8097 26.6574 38.7194C26.5671 38.6292 26.4448 38.5786 26.3172 38.5786V38.5786Z" fill="white"/>
<path d="M39.897 38.5786C39.7695 38.5786 39.6471 38.6292 39.5569 38.7194C39.4667 38.8097 39.416 38.932 39.416 39.0596V42.843C39.416 42.9705 39.4667 43.0929 39.5569 43.1831C39.6471 43.2733 39.7695 43.324 39.897 43.324C40.0246 43.324 40.147 43.2733 40.2372 43.1831C40.3274 43.0929 40.3781 42.9705 40.3781 42.843V39.0596C40.3781 38.932 40.3274 38.8097 40.2372 38.7194C40.147 38.6292 40.0246 38.5786 39.897 38.5786V38.5786Z" fill="white"/>
<path fill-rule="evenodd" clip-rule="evenodd" d="M42.23 33.9781C41.3617 33.1881 39.8817 32.5983 38.5453 32.3227C39.1619 31.3634 39.4892 30.2469 39.4881 29.1066V28.5472C39.9229 28.443 40.3118 28.1999 40.596 27.8548C40.8802 27.5096 41.0442 27.0813 41.0631 26.6346C41.0821 26.1879 40.9549 25.7472 40.7009 25.3793C40.4469 25.0114 40.0799 24.7363 39.6555 24.5956H40.3172C40.4446 24.5954 40.5667 24.5446 40.6568 24.4545C40.7468 24.3643 40.7974 24.242 40.7974 24.1146V22.3062C40.7974 22.1786 40.7467 22.0563 40.6565 21.9661C40.5663 21.8758 40.4439 21.8252 40.3163 21.8252H39.4873V19.9208C39.4864 19.1464 39.1783 18.404 38.6307 17.8564C38.0831 17.3089 37.3406 17.0009 36.5662 17H30.4604C29.686 17.0009 28.9435 17.3089 28.3959 17.8564C27.8483 18.404 27.5402 19.1464 27.5393 19.9208V21.8252H26.71C26.5824 21.8252 26.4601 21.8758 26.3698 21.9661C26.2796 22.0563 26.229 22.1786 26.229 22.3062V24.1146C26.229 24.2422 26.2796 24.3645 26.3698 24.4547C26.4601 24.545 26.5824 24.5956 26.71 24.5956H27.3716C26.9471 24.7361 26.5799 25.0112 26.3258 25.3792C26.0717 25.7472 25.9444 26.188 25.9634 26.6347C25.9823 27.0815 26.1465 27.51 26.4308 27.8551C26.7152 28.2002 27.1044 28.4432 27.5393 28.5472V29.1091C27.5384 30.2485 27.8654 31.364 28.4813 32.3227C26.3674 32.7599 24.4689 33.9128 23.1061 35.5869C21.7432 37.261 20.9994 39.3539 21 41.5126V42.8427C21 42.9703 21.0507 43.0926 21.1409 43.1828C21.2311 43.273 21.3535 43.3237 21.481 43.3237C21.6086 43.3237 21.731 43.273 21.8212 43.1828C21.9114 43.0926 21.9621 42.9703 21.9621 42.8427V41.5126C21.9618 39.9017 22.4234 38.3245 23.2921 36.9679C24.1608 35.6113 25.4001 34.5322 26.8634 33.8584C26.8947 33.9127 26.9365 33.9603 26.9862 33.9986L30.6556 36.8155C30.7399 36.8803 30.8434 36.9153 30.9498 36.915C31.0562 36.9147 31.1595 36.8791 31.2435 36.8138L31.6503 36.498L32.9667 37.8537L31.4016 42.6962C31.3809 42.7566 31.3725 42.8205 31.3769 42.8842C31.3812 42.9479 31.3982 43.0101 31.4268 43.0672C31.4554 43.1242 31.495 43.175 31.5435 43.2166C31.5919 43.2582 31.6481 43.2897 31.7089 43.3093C31.7696 43.329 31.8337 43.3363 31.8973 43.3309C31.9609 43.3256 32.0228 43.3076 32.0794 43.278C32.136 43.2485 32.1861 43.208 32.2269 43.1589C32.2677 43.1098 32.2983 43.053 32.3169 42.992L33.5132 39.2913L34.7094 42.992C34.7502 43.1114 34.8363 43.21 34.9491 43.2666C35.0619 43.3231 35.1925 43.3331 35.3125 43.2943C35.4326 43.2555 35.5327 43.171 35.5911 43.0591C35.6495 42.9472 35.6616 42.8169 35.6248 42.6962L34.0599 37.8534L35.376 36.4977L35.7828 36.8138C35.8668 36.8791 35.9701 36.9147 36.0765 36.915C36.1829 36.9153 36.2864 36.8803 36.3708 36.8155L40.0401 33.9988C40.0891 33.9613 40.1303 33.9146 40.1616 33.8614C42.0469 34.41 44.0201 39.6717 44.6778 42.3026C44.6778 42.3026 45.8236 43.2943 45.9932 42.3026C46.1629 41.3109 43.0983 34.7682 42.23 33.9781ZM29.9712 32.6507C30.9107 33.5901 32.1845 34.1185 33.5132 34.1201C34.8418 34.1186 36.1156 33.5902 37.0552 32.6508C37.9948 31.7115 38.5235 30.4377 38.5252 29.1091V24.5956H28.5014V29.1088C28.503 30.4375 29.0316 31.7112 29.9712 32.6507ZM39.9353 27.1261C40.0441 26.9528 40.1021 26.7524 40.1027 26.5478C40.1021 26.3432 40.0441 26.1428 39.9353 25.9695C39.8265 25.7962 39.6713 25.6569 39.4873 25.5673V27.5283C39.6713 27.4387 39.8265 27.2994 39.9353 27.1261ZM36.5662 17.9621H30.4604C29.941 17.9626 29.4431 18.1691 29.0758 18.5363C28.7085 18.9035 28.5019 19.4015 28.5014 19.9208V20.1306H38.525V19.9208C38.5244 19.4015 38.3178 18.9036 37.9506 18.5364C37.5834 18.1692 37.0855 17.9626 36.5662 17.9621ZM38.5255 21.0937L28.5016 21.0956L28.5014 21.826H38.5255V21.0937ZM39.8356 22.7881H27.1913V23.6336H39.8356V22.7881ZM27.091 25.9695C26.9822 26.1428 26.9242 26.3432 26.9236 26.5478C26.9242 26.7524 26.9822 26.9528 27.091 27.1261C27.1998 27.2994 27.355 27.4387 27.539 27.5283V25.5673C27.355 25.6569 27.1998 25.7962 27.091 25.9695ZM27.8766 33.4692L30.9469 35.8259L32.1187 34.9172C30.9802 34.6424 29.9476 34.039 29.1492 33.1822C28.7182 33.2448 28.2927 33.3407 27.8766 33.4692ZM32.4139 35.9043L33.5134 37.0354L34.6118 35.9046L33.5527 35.0821H33.5134H33.4739L32.4139 35.9043ZM34.9084 34.9172L36.0797 35.8259L39.1445 33.4736C38.7293 33.3448 38.3047 33.2485 37.8746 33.1855C37.0767 34.0406 36.0453 34.6427 34.9084 34.9172Z" fill="white"/>
<path d="M37.2352 27.0283C37.3628 27.0283 37.4852 26.9776 37.5754 26.8874C37.6656 26.7972 37.7163 26.6749 37.7163 26.5473C37.7163 26.4197 37.6656 26.2974 37.5754 26.2071C37.4852 26.1169 37.3628 26.0663 37.2352 26.0663H35.2652C35.1693 26.066 35.0756 26.0945 34.9961 26.148C34.9165 26.2015 34.8549 26.2776 34.8189 26.3665C34.783 26.4554 34.7745 26.553 34.7945 26.6467C34.8145 26.7405 34.8621 26.8261 34.9312 26.8925C34.944 27.0733 35.0207 27.2437 35.1476 27.3731C35.2745 27.5025 35.4434 27.5826 35.6239 27.5989C35.8044 27.6152 35.9848 27.5668 36.1329 27.4622C36.281 27.3577 36.387 27.2039 36.432 27.0283H37.2352Z" fill="white"/>
<path d="M32.0951 26.8931C32.1643 26.8267 32.2121 26.7411 32.2323 26.6473C32.2524 26.5535 32.244 26.4558 32.2081 26.3669C32.1722 26.2779 32.1105 26.2017 32.031 26.1481C31.9514 26.0946 31.8576 26.066 31.7617 26.0663H29.7911C29.6635 26.0663 29.5412 26.1169 29.451 26.2071C29.3607 26.2974 29.3101 26.4197 29.3101 26.5473C29.3101 26.6749 29.3607 26.7972 29.451 26.8874C29.5412 26.9776 29.6635 27.0283 29.7911 27.0283H30.5943C30.6393 27.2039 30.7453 27.3577 30.8934 27.4622C31.0414 27.5668 31.2218 27.6153 31.4023 27.599C31.5828 27.5827 31.7517 27.5027 31.8786 27.3733C32.0055 27.2439 32.0823 27.0736 32.0951 26.8928V26.8931Z" fill="white"/>
<path d="M34.9223 29.4945C34.7948 29.4945 34.6724 29.5452 34.5822 29.6354C34.492 29.7256 34.4413 29.8479 34.4413 29.9755C34.4413 30.2219 34.3434 30.4582 34.1692 30.6325C33.995 30.8067 33.7586 30.9046 33.5122 30.9046C33.2658 30.9046 33.0295 30.8067 32.8553 30.6325C32.681 30.4582 32.5832 30.2219 32.5832 29.9755C32.5832 29.8479 32.5325 29.7256 32.4423 29.6354C32.3521 29.5452 32.2297 29.4945 32.1021 29.4945C31.9745 29.4945 31.8522 29.5452 31.762 29.6354C31.6718 29.7256 31.6211 29.8479 31.6211 29.9755C31.6211 30.2239 31.67 30.4698 31.765 30.6992C31.8601 30.9287 31.9994 31.1371 32.175 31.3128C32.3506 31.4884 32.5591 31.6277 32.7885 31.7227C33.018 31.8177 33.2639 31.8667 33.5122 31.8667C33.7606 31.8667 34.0065 31.8177 34.2359 31.7227C34.4654 31.6277 34.6739 31.4884 34.8495 31.3128C35.0251 31.1371 35.1644 30.9287 35.2594 30.6992C35.3545 30.4698 35.4034 30.2239 35.4034 29.9755C35.4034 29.8479 35.3527 29.7256 35.2625 29.6354C35.1723 29.5452 35.0499 29.4945 34.9223 29.4945V29.4945Z" fill="white"/>
</svg>
