<svg width="25" height="25" viewBox="0 0 25 25" fill="none" xmlns="http://www.w3.org/2000/svg">
<path d="M24.5422 5.51224H23.0236C23.0309 5.43841 23.0309 5.36395 23.0236 5.29012V1.61378C23.0236 0.990367 22.5182 0.485041 21.8948 0.485041H3.07797C2.45456 0.485041 1.94923 0.990367 1.94923 1.61378V5.30372C1.94186 5.37755 1.94186 5.45201 1.94923 5.52584H0.453309C0.202969 5.52584 0 5.72881 0 5.97915V8.699C0 8.94934 0.202969 9.15231 0.453309 9.15231H0.815956C0.815956 9.15231 0.815956 9.19764 0.815956 9.22031V23.5403C0.815956 24.0786 1.25232 24.515 1.79057 24.515H23.2094C23.7477 24.515 24.184 24.0786 24.184 23.5403V9.19311C24.184 9.19311 24.184 9.14778 24.184 9.12511H24.5467C24.797 9.12511 25 8.92214 25 8.6718V5.95195C24.9926 5.70518 24.789 5.50969 24.5422 5.51224ZM2.85585 1.61378C2.85585 1.4911 2.95529 1.39166 3.07797 1.39166H21.9175C22.0402 1.39166 22.1396 1.4911 22.1396 1.61378V5.30372C22.1396 5.42639 22.0402 5.52584 21.9175 5.52584H3.07797C2.95529 5.52584 2.85585 5.42639 2.85585 5.30372V1.61378ZM12.0444 23.6083H9.26564V16.6591H12.0444V23.6083ZM15.7298 23.6083H12.951V16.6591H15.7298V23.6083ZM23.214 23.6083H16.6364V16.2058C16.6364 15.9555 16.4335 15.7525 16.1831 15.7525H8.81233C8.56199 15.7525 8.35902 15.9555 8.35902 16.2058V23.6083H1.78604C1.74847 23.6083 1.71804 23.5779 1.71804 23.5403V9.19311C1.71804 9.15554 1.74847 9.12511 1.78604 9.12511H23.2094C23.247 9.12511 23.2774 9.15554 23.2774 9.19311L23.282 23.5403C23.282 23.5779 23.2515 23.6083 23.214 23.6083ZM0.906618 8.21849V6.40526H24.0888L24.0934 8.21849H0.906618Z" fill="#0986E2"/>
<path d="M8.5358 2.27108C8.48435 2.21611 8.41154 2.18631 8.33635 2.18948C8.26263 2.18705 8.19146 2.21685 8.14142 2.27108C8.08606 2.34196 8.05864 2.43064 8.06436 2.5204V3.29556H6.89029V2.5204C6.89686 2.43053 6.86938 2.34151 6.81323 2.27108C6.76019 2.21249 6.68364 2.18087 6.60471 2.18495C6.52929 2.18053 6.45597 2.21056 6.40525 2.26654C6.35187 2.33822 6.32615 2.42673 6.33272 2.51586V4.65095C6.32575 4.74014 6.35153 4.82876 6.40525 4.90027C6.45506 4.95795 6.52855 4.98969 6.60471 4.9864C6.67979 4.98895 6.75237 4.95926 6.80416 4.9048C6.86032 4.83437 6.8878 4.7453 6.88123 4.65548V3.74887H8.06436V4.65548C8.05779 4.74462 8.08351 4.83312 8.13689 4.9048C8.1867 4.96249 8.26019 4.99422 8.33635 4.99093C8.41154 4.99411 8.48435 4.9643 8.5358 4.90934C8.59196 4.8389 8.61944 4.74989 8.61287 4.66002V2.5204C8.61989 2.43053 8.59235 2.34134 8.5358 2.27108Z" fill="#0986E2"/>
<path d="M11.5911 2.84225C11.4932 2.63798 11.335 2.46867 11.1378 2.35721C10.9152 2.23736 10.6652 2.17798 10.4125 2.18495C10.2237 2.18127 10.0361 2.21362 9.85946 2.28015C9.70261 2.34174 9.56163 2.43778 9.44695 2.5612C9.32937 2.69203 9.24126 2.84667 9.18856 3.01451C9.12697 3.19855 9.09631 3.3916 9.0979 3.58568C9.09637 3.77794 9.12544 3.96918 9.18403 4.15231C9.23395 4.31573 9.3173 4.46702 9.42881 4.59656C9.54526 4.72428 9.68952 4.82349 9.85039 4.88667C10.0321 4.95852 10.2262 4.99394 10.4216 4.99093C10.6151 4.99433 10.8074 4.96045 10.9882 4.89121C11.1478 4.82803 11.2905 4.72869 11.4052 4.60109C11.5212 4.4698 11.6078 4.31528 11.6591 4.14778C11.7181 3.96323 11.7472 3.7704 11.7452 3.57661C11.7508 3.32327 11.698 3.07202 11.5911 2.84225ZM11.0834 4.12058C11.0247 4.25516 10.9267 4.36894 10.8023 4.44696C10.5927 4.56987 10.3373 4.5867 10.1133 4.49229C10.0189 4.44946 9.93522 4.38594 9.86852 4.30644C9.79367 4.21589 9.73814 4.111 9.70533 3.99819C9.6647 3.86293 9.64482 3.72235 9.6464 3.58114C9.64425 3.43994 9.66414 3.29918 9.70533 3.1641V3.16863C9.73735 3.0578 9.79129 2.9545 9.86399 2.86491C9.92932 2.78706 10.0115 2.72507 10.1042 2.68359C10.1999 2.64132 10.3034 2.61967 10.408 2.62013C10.552 2.61809 10.6936 2.65741 10.8159 2.73345C10.9398 2.81295 11.0362 2.92843 11.0925 3.06437C11.1596 3.22818 11.1921 3.40418 11.1877 3.58114C11.193 3.76643 11.1574 3.95065 11.0834 4.12058Z" fill="#0986E2"/>
<path d="M14.0435 2.29374C13.9829 2.24683 13.9069 2.22422 13.8305 2.23028H12.0852C12.0109 2.22405 11.9368 2.24496 11.8767 2.28921C11.828 2.33097 11.8013 2.39285 11.8042 2.45694C11.8015 2.5187 11.8264 2.57848 11.8722 2.62013C11.9326 2.66744 12.0087 2.69011 12.0852 2.68359H12.6836V4.65095C12.6775 4.74076 12.7049 4.82961 12.7607 4.90027C12.8121 4.95524 12.8849 4.98504 12.9601 4.98187C13.0338 4.9843 13.105 4.9545 13.155 4.90027C13.2119 4.82842 13.2394 4.7377 13.2321 4.64642V2.68359H13.8305C13.9068 2.68926 13.9827 2.66665 14.0435 2.62013C14.0892 2.57848 14.1142 2.5187 14.1115 2.45694C14.1136 2.39523 14.0887 2.33573 14.0435 2.29374Z" fill="#0986E2"/>
<path d="M16.4506 4.56936C16.3953 4.52606 16.3257 4.50504 16.2557 4.51043H14.9864V3.7398H16.1242C16.1929 3.74592 16.2613 3.72473 16.3146 3.68087C16.3544 3.64149 16.3757 3.5872 16.3735 3.53128C16.3758 3.47444 16.3525 3.41959 16.3101 3.38169C16.2569 3.34134 16.1907 3.32202 16.1242 3.32729H14.9864V2.65639H16.2239C16.294 2.66183 16.3636 2.64081 16.4189 2.59746C16.4615 2.5578 16.4847 2.50153 16.4823 2.44334C16.4853 2.38503 16.462 2.32848 16.4189 2.28921C16.3636 2.24592 16.294 2.22484 16.2239 2.23028H14.7643C14.6989 2.22852 14.634 2.24088 14.5739 2.26655C14.5256 2.28836 14.4869 2.32706 14.4651 2.37534C14.4387 2.43682 14.4264 2.5034 14.4288 2.57026V4.61015C14.3983 4.7649 14.499 4.91506 14.6537 4.9456C14.6902 4.9528 14.7278 4.9528 14.7643 4.9456V4.94107H16.2557C16.3257 4.94651 16.3953 4.92549 16.4506 4.88214C16.4927 4.84213 16.5158 4.78609 16.514 4.72801C16.5165 4.66852 16.4934 4.61072 16.4506 4.56936Z" fill="#0986E2"/>
<path d="M18.8078 4.55122C18.7501 4.50527 18.6773 4.48266 18.6038 4.48776H17.4841V2.5204C17.4911 2.43053 17.4636 2.34134 17.4071 2.27108C17.3553 2.21662 17.2827 2.18693 17.2076 2.18948C17.1339 2.18705 17.0627 2.21685 17.0127 2.27108C16.959 2.34259 16.9332 2.43121 16.9401 2.5204V4.60562C16.9096 4.76037 17.0104 4.91053 17.165 4.94107C17.2015 4.94827 17.2391 4.94827 17.2756 4.94107H17.2847H18.6083C18.6818 4.94532 18.7542 4.92277 18.8123 4.87761C18.858 4.83602 18.883 4.77618 18.8803 4.71442C18.8818 4.65192 18.8552 4.59197 18.8078 4.55122Z" fill="#0986E2"/>
<path d="M7.13506 11.1786H3.39526V12.0852H7.13506V11.1786Z" fill="#0986E2"/>
<path d="M7.13506 15.9383H3.39526V16.845H7.13506V15.9383Z" fill="#0986E2"/>
<path d="M7.13506 20.6981H3.39526V21.6047H7.13506V20.6981Z" fill="#0986E2"/>
<path d="M14.3699 11.1786H10.6301V12.0852H14.3699V11.1786Z" fill="#0986E2"/>
<path d="M21.6002 11.1786H17.8604V12.0852H21.6002V11.1786Z" fill="#0986E2"/>
<path d="M21.6002 15.9383H17.8604V16.845H21.6002V15.9383Z" fill="#0986E2"/>
<path d="M21.6002 20.6981H17.8604V21.6047H21.6002V20.6981Z" fill="#0986E2"/>
</svg>
