<svg width="22" height="22" viewBox="0 0 22 22" fill="none" xmlns="http://www.w3.org/2000/svg">
<path d="M20.9 4.4H18.3333V3.66667H18.7C18.7972 3.66667 18.8905 3.62804 18.9593 3.55927C19.028 3.49051 19.0667 3.39725 19.0667 3.3V2.93333H19.4333C19.7251 2.93333 20.0049 2.81744 20.2112 2.61115C20.4174 2.40486 20.5333 2.12507 20.5333 1.83333V0H19.8V1.83333C19.8 1.93058 19.7614 2.02384 19.6926 2.09261C19.6238 2.16137 19.5306 2.2 19.4333 2.2H19.0667V1.83333C19.0667 1.73609 19.028 1.64282 18.9593 1.57406C18.8905 1.5053 18.7972 1.46667 18.7 1.46667H12.1C12.0028 1.46667 11.9095 1.5053 11.8407 1.57406C11.772 1.64282 11.7333 1.73609 11.7333 1.83333V3.3C11.7333 3.39725 11.772 3.49051 11.8407 3.55927C11.9095 3.62804 12.0028 3.66667 12.1 3.66667H12.4667V4.4H1.1C0.808262 4.4 0.528473 4.51589 0.322183 4.72218C0.115893 4.92847 0 5.20826 0 5.5V20.1667C0 20.2639 0.0386308 20.3572 0.107394 20.4259C0.176158 20.4947 0.269421 20.5333 0.366667 20.5333H1.83333V21.6333C1.83333 21.7306 1.87196 21.8238 1.94073 21.8926C2.00949 21.9614 2.10275 22 2.2 22H5.86667C5.96391 22 6.05718 21.9614 6.12594 21.8926C6.1947 21.8238 6.23333 21.7306 6.23333 21.6333V20.5333H15.7667V21.6333C15.7667 21.7306 15.8053 21.8238 15.8741 21.8926C15.9428 21.9614 16.0361 22 16.1333 22H19.8C19.8972 22 19.9905 21.9614 20.0593 21.8926C20.128 21.8238 20.1667 21.7306 20.1667 21.6333V20.5333H21.6333C21.7306 20.5333 21.8238 20.4947 21.8926 20.4259C21.9614 20.3572 22 20.2639 22 20.1667V5.5C22 5.20826 21.8841 4.92847 21.6778 4.72218C21.4715 4.51589 21.1917 4.4 20.9 4.4ZM12.4667 2.2H18.3333V2.93333H12.4667V2.2ZM17.6 3.66667V4.4H16.8667V3.66667H17.6ZM16.1333 3.66667V4.4H14.6667V3.66667H16.1333ZM13.9333 3.66667V4.4H13.2V3.66667H13.9333ZM5.5 21.2667H2.56667V20.5333H5.5V21.2667ZM19.4333 21.2667H16.5V20.5333H19.4333V21.2667ZM21.2667 19.8H0.733333V18.3333H21.2667V19.8ZM3.3 15.7667H2.56667V15.0333H3.3V15.7667ZM3.3 8.43333H2.56667V7.7H3.3V8.43333ZM4.03333 17.6V6.6H9.16667V17.6H4.03333ZM9.9 17.6V6.6H11.3667V17.6H9.9ZM12.1 17.6V6.6H18.7V17.6H12.1ZM21.2667 17.6H19.4333V6.23333C19.4333 6.13609 19.3947 6.04282 19.3259 5.97406C19.2572 5.9053 19.1639 5.86667 19.0667 5.86667H3.66667C3.56942 5.86667 3.47616 5.9053 3.40739 5.97406C3.33863 6.04282 3.3 6.13609 3.3 6.23333V6.96667H2.2C2.10275 6.96667 2.00949 7.0053 1.94073 7.07406C1.87196 7.14282 1.83333 7.23609 1.83333 7.33333V8.8C1.83333 8.89725 1.87196 8.99051 1.94073 9.05927C2.00949 9.12804 2.10275 9.16667 2.2 9.16667H3.3V14.3H2.2C2.10275 14.3 2.00949 14.3386 1.94073 14.4074C1.87196 14.4762 1.83333 14.5694 1.83333 14.6667V16.1333C1.83333 16.2306 1.87196 16.3238 1.94073 16.3926C2.00949 16.4614 2.10275 16.5 2.2 16.5H3.3V17.6H0.733333V5.5C0.733333 5.40275 0.771964 5.30949 0.840728 5.24073C0.909491 5.17196 1.00275 5.13333 1.1 5.13333H20.9C20.9972 5.13333 21.0905 5.17196 21.1593 5.24073C21.228 5.30949 21.2667 5.40275 21.2667 5.5V17.6Z" fill="#0986E2"/>
<path d="M8.06666 7.33334H5.13333C5.03608 7.33334 4.94282 7.37197 4.87406 7.44074C4.80529 7.5095 4.76666 7.60276 4.76666 7.70001V10.6333C4.76666 10.7306 4.80529 10.8239 4.87406 10.8926C4.94282 10.9614 5.03608 11 5.13333 11H8.06666C8.16391 11 8.25717 10.9614 8.32594 10.8926C8.3947 10.8239 8.43333 10.7306 8.43333 10.6333V7.70001C8.43333 7.60276 8.3947 7.5095 8.32594 7.44074C8.25717 7.37197 8.16391 7.33334 8.06666 7.33334ZM7.7 10.2667H5.5V8.06668H7.7V10.2667Z" fill="#0986E2"/>
<path d="M15.3226 13.0585L17.8893 9.75848C17.9314 9.7043 17.9575 9.63939 17.9646 9.57112C17.9717 9.50285 17.9594 9.43397 17.9293 9.37231C17.8992 9.31065 17.8523 9.25869 17.7941 9.22233C17.7359 9.18598 17.6686 9.1667 17.6 9.16668H16.4146L17.1809 7.88884C17.2143 7.83321 17.2324 7.76971 17.2332 7.70481C17.2341 7.63992 17.2177 7.57597 17.1857 7.51948C17.1538 7.46299 17.1074 7.416 17.0514 7.38329C16.9953 7.35059 16.9316 7.33336 16.8667 7.33334H15.0333C14.968 7.33334 14.9038 7.35081 14.8474 7.38395C14.7911 7.41709 14.7446 7.46468 14.7129 7.52181L12.8795 10.8218C12.8485 10.8776 12.8326 10.9406 12.8333 11.0044C12.8341 11.0683 12.8515 11.1308 12.8839 11.1859C12.9163 11.2409 12.9625 11.2866 13.0179 11.3183C13.0734 11.35 13.1361 11.3667 13.2 11.3667H14.6667V12.8333C14.6667 12.9098 14.6906 12.9843 14.735 13.0465C14.7794 13.1087 14.8422 13.1554 14.9145 13.1802C14.9528 13.1932 14.9929 13.1999 15.0333 13.2C15.0891 13.2 15.1442 13.1872 15.1943 13.1627C15.2445 13.1382 15.2884 13.1025 15.3226 13.0585ZM13.8233 10.6333L15.2497 8.06668H16.2191L15.4528 9.34451C15.4194 9.40011 15.4013 9.46359 15.4005 9.52845C15.3996 9.59331 15.416 9.65724 15.4479 9.71372C15.4798 9.77019 15.5261 9.81719 15.5821 9.84992C15.6381 9.88265 15.7018 9.89993 15.7667 9.90001H16.8502L15.4 11.7645V11C15.4 10.9028 15.3614 10.8095 15.2926 10.7407C15.2238 10.672 15.1306 10.6333 15.0333 10.6333H13.8233Z" fill="#0986E2"/>
<path d="M4.76666 11.7333H8.43333V12.4667H4.76666V11.7333Z" fill="#0986E2"/>
<path d="M4.76666 13.2H6.23333V13.9333H4.76666V13.2Z" fill="#0986E2"/>
<path d="M6.96666 13.2H8.43333V13.9333H6.96666V13.2Z" fill="#0986E2"/>
<path d="M17.2333 16.1333H16.5V16.8667H17.6C17.6972 16.8667 17.7905 16.828 17.8593 16.7593C17.928 16.6905 17.9667 16.5972 17.9667 16.5V14.3H17.2333V16.1333Z" fill="#0986E2"/>
<path d="M15.0333 16.1333H15.7667V16.8667H15.0333V16.1333Z" fill="#0986E2"/>
<path d="M13.5667 16.1333H14.3V16.8667H13.5667V16.1333Z" fill="#0986E2"/>
</svg>
