<svg width="25" height="27" viewBox="0 0 25 27" fill="none" xmlns="http://www.w3.org/2000/svg">
<path d="M24.8328 15.9801L20.367 12.2417V6.67631C20.3647 4.93328 19.6817 3.26008 18.4636 2.01333C17.2454 0.766581 15.5886 0.0448724 13.8461 0.00202268C12.1036 -0.040827 10.4132 0.598571 9.13531 1.78394C7.85739 2.96931 7.09297 4.60691 7.00495 6.34772L0.24604 9.97495C0.136967 10.0335 0.0556123 10.133 0.0198748 10.2515C-0.0158626 10.37 -0.00305592 10.4978 0.0554776 10.6069C0.114011 10.716 0.213476 10.7973 0.331993 10.8331C0.450509 10.8688 0.578368 10.856 0.687442 10.7975L1.51557 10.3526V18.2645C1.51557 18.3883 1.56474 18.507 1.65227 18.5945C1.7398 18.6821 1.85852 18.7312 1.98231 18.7312H5.58847C5.71225 18.7312 5.83097 18.6821 5.9185 18.5945C6.00603 18.507 6.0552 18.3883 6.0552 18.2645V14.84H8.86817V18.2645C8.86817 18.3883 8.91735 18.507 9.00488 18.5945C9.09241 18.6821 9.21113 18.7312 9.33491 18.7312H12.9411C13.0649 18.7312 13.1836 18.6821 13.2711 18.5945C13.3586 18.507 13.4078 18.3883 13.4078 18.2645V10.3558L14.2469 10.8004C14.3563 10.8584 14.4842 10.8705 14.6025 10.8342C14.7209 10.7978 14.8199 10.7159 14.8779 10.6065C14.9359 10.4971 14.948 10.3692 14.9116 10.2508C14.8753 10.1325 14.7934 10.0335 14.684 9.97549L7.94243 6.40373C8.00507 4.89833 8.65628 3.47771 9.75589 2.44766C10.8555 1.41761 12.3156 0.86049 13.8219 0.896219C15.3281 0.931949 16.7602 1.55767 17.8097 2.6387C18.8592 3.71973 19.4424 5.16963 19.4335 6.67631V12.2417L14.9656 15.9801C14.9133 16.0239 14.8712 16.0787 14.8423 16.1405C14.8134 16.2024 14.7984 16.2698 14.7984 16.3381V26.3284C14.7984 26.4522 14.8476 26.5709 14.9351 26.6584C15.0227 26.746 15.1414 26.7952 15.2652 26.7952H24.5333C24.657 26.7952 24.7758 26.746 24.8633 26.6584C24.9508 26.5709 25 26.4522 25 26.3284V16.3381C25 16.2698 24.985 16.2024 24.9561 16.1405C24.9273 16.0787 24.8851 16.0239 24.8328 15.9801V15.9801ZM7.06256 9.30631C7.10377 9.37633 7.16268 9.43426 7.23337 9.47431C7.30405 9.51435 7.38403 9.53509 7.46527 9.53444C7.54651 9.53379 7.62614 9.51178 7.69618 9.47061C7.76622 9.42945 7.8242 9.37058 7.86428 9.29991C7.91117 9.37407 7.93622 9.45995 7.93656 9.54769C7.93656 9.67268 7.88691 9.79255 7.79853 9.88093C7.71015 9.96931 7.59028 10.019 7.46529 10.019C7.3403 10.019 7.22043 9.96931 7.13205 9.88093C7.04367 9.79255 6.99402 9.67268 6.99402 9.54769C6.99438 9.46248 7.01808 9.379 7.06256 9.30631V9.30631ZM12.4743 17.7978H9.80165V14.3732C9.80165 14.2494 9.75248 14.1307 9.66495 14.0432C9.57742 13.9557 9.4587 13.9065 9.33491 13.9065H5.58847C5.46468 13.9065 5.34596 13.9557 5.25843 14.0432C5.1709 14.1307 5.12173 14.2494 5.12173 14.3732V17.7978H2.44905V9.8512L6.99508 7.41189V8.22988C6.68251 8.34075 6.41922 8.5586 6.25179 8.84489C6.08436 9.13117 6.02358 9.46746 6.0802 9.79424C6.13682 10.121 6.3072 10.4173 6.56119 10.6305C6.81518 10.8438 7.13641 10.9604 7.46806 10.9596C7.79972 10.9588 8.12042 10.8408 8.37343 10.6264C8.62644 10.412 8.79546 10.1149 8.85059 9.78791C8.90571 9.46087 8.8434 9.12487 8.67466 8.83935C8.50592 8.55383 8.24164 8.33719 7.92856 8.22775V7.45296L12.4743 9.86133V17.7978ZM19.52 15.4417C19.5628 15.5023 19.6197 15.5517 19.6856 15.5858C19.7515 15.6199 19.8247 15.6377 19.8989 15.6377C19.9732 15.6377 20.0464 15.6199 20.1123 15.5858C20.1782 15.5517 20.235 15.5023 20.2779 15.4417C20.3298 15.5118 20.3612 15.595 20.3685 15.6819C20.3759 15.7689 20.359 15.8561 20.3197 15.934C20.2804 16.0119 20.2203 16.0774 20.146 16.1231C20.0717 16.1688 19.9862 16.193 19.8989 16.193C19.8117 16.193 19.7262 16.1688 19.6519 16.1231C19.5776 16.0774 19.5175 16.0119 19.4782 15.934C19.4389 15.8561 19.422 15.7689 19.4294 15.6819C19.4367 15.595 19.4681 15.5118 19.52 15.4417V15.4417ZM24.0663 25.8617H15.7319V16.556L19.4335 13.459V14.4004C19.1209 14.5106 18.8572 14.7278 18.6892 15.0136C18.5212 15.2994 18.4597 15.6354 18.5156 15.9621C18.5715 16.2889 18.7411 16.5854 18.9945 16.7991C19.2479 17.0129 19.5688 17.1301 19.9003 17.1301C20.2318 17.1301 20.5526 17.0129 20.806 16.7991C21.0594 16.5854 21.2291 16.2889 21.2849 15.9621C21.3408 15.6354 21.2793 15.2994 21.1113 15.0136C20.9433 14.7278 20.6797 14.5106 20.367 14.4004V13.459L24.0676 16.556L24.0663 25.8617Z" fill="#A0A9F4"/>
<path d="M18.152 20.8958C18.3838 20.8956 18.6103 20.8266 18.8029 20.6976C18.9955 20.5687 19.1455 20.3855 19.234 20.1713C19.3225 19.9571 19.3456 19.7214 19.3002 19.4942C19.2548 19.2669 19.1431 19.0581 18.9791 18.8943C18.8151 18.7305 18.6062 18.619 18.3789 18.5739C18.1515 18.5288 17.9159 18.5521 17.7018 18.6408C17.4877 18.7296 17.3047 18.8798 17.176 19.0726C17.0472 19.2653 16.9785 19.4919 16.9785 19.7236C16.9789 20.0347 17.1027 20.3328 17.3227 20.5526C17.5427 20.7724 17.841 20.8958 18.152 20.8958V20.8958ZM18.152 19.4849C18.1991 19.4852 18.2451 19.4994 18.2841 19.5257C18.3232 19.5521 18.3536 19.5894 18.3715 19.6329C18.3894 19.6765 18.394 19.7244 18.3847 19.7705C18.3755 19.8167 18.3528 19.8591 18.3195 19.8924C18.2862 19.9257 18.2438 19.9484 18.1976 19.9577C18.1514 19.9669 18.1035 19.9623 18.06 19.9444C18.0164 19.9265 17.9791 19.8961 17.9528 19.8571C17.9264 19.818 17.9123 19.7721 17.912 19.725C17.912 19.6935 17.9182 19.6622 17.9303 19.6331C17.9423 19.604 17.96 19.5775 17.9823 19.5553C18.0046 19.533 18.031 19.5153 18.0602 19.5032C18.0893 19.4912 18.1205 19.4849 18.152 19.4849V19.4849Z" fill="#A0A9F4"/>
<path d="M21.647 22.3849C21.4152 22.3849 21.1886 22.4536 20.9958 22.5824C20.803 22.7112 20.6528 22.8943 20.5641 23.1085C20.4754 23.3227 20.4521 23.5584 20.4974 23.7857C20.5426 24.0131 20.6542 24.222 20.8182 24.3859C20.9821 24.5498 21.191 24.6615 21.4184 24.7067C21.6457 24.7519 21.8814 24.7287 22.0956 24.64C22.3098 24.5513 22.4929 24.401 22.6217 24.2083C22.7505 24.0155 22.8192 23.7889 22.8192 23.5571C22.8189 23.2463 22.6953 22.9483 22.4755 22.7286C22.2558 22.5088 21.9578 22.3852 21.647 22.3849ZM21.647 23.7955C21.5998 23.7955 21.5537 23.7815 21.5144 23.7553C21.4752 23.729 21.4446 23.6918 21.4265 23.6481C21.4084 23.6045 21.4037 23.5565 21.4129 23.5102C21.4221 23.4639 21.4449 23.4214 21.4782 23.388C21.5116 23.3546 21.5542 23.3319 21.6005 23.3227C21.6468 23.3135 21.6948 23.3182 21.7384 23.3363C21.782 23.3543 21.8193 23.3849 21.8455 23.4242C21.8717 23.4634 21.8857 23.5096 21.8857 23.5568C21.8852 23.6199 21.8598 23.6802 21.8152 23.7247C21.7705 23.7692 21.7101 23.7943 21.647 23.7947V23.7955Z" fill="#A0A9F4"/>
<path d="M16.8637 24.4081C16.947 24.4996 17.0633 24.5542 17.187 24.56C17.3106 24.5657 17.4315 24.5221 17.523 24.4388L22.9038 19.5327C22.95 19.4917 22.9876 19.4419 23.0144 19.3862C23.0412 19.3305 23.0567 19.2701 23.06 19.2084C23.0632 19.1467 23.0542 19.0849 23.0334 19.0267C23.0126 18.9685 22.9805 18.9151 22.9389 18.8694C22.8973 18.8237 22.847 18.7867 22.791 18.7606C22.735 18.7346 22.6743 18.7198 22.6126 18.7174C22.5509 18.7149 22.4892 18.7247 22.4313 18.7462C22.3734 18.7677 22.3203 18.8005 22.2752 18.8427L16.8941 23.748C16.8487 23.7893 16.8119 23.8392 16.7858 23.8947C16.7597 23.9503 16.7448 24.0104 16.7419 24.0718C16.7391 24.1331 16.7484 24.1944 16.7693 24.2521C16.7902 24.3098 16.8223 24.3628 16.8637 24.4081V24.4081Z" fill="#A0A9F4"/>
</svg>
