<svg width="66" height="66" viewBox="0 0 66 66" fill="none" xmlns="http://www.w3.org/2000/svg">
<circle r="33" transform="matrix(-1 0 0 1 33 33)" fill="white" fill-opacity="0.2"/>
<circle r="24.58" transform="matrix(-1 0 0 1 33.0001 33)" stroke="white"/>
<path d="M45.8328 35.9801L41.367 32.2417V26.6763C41.3647 24.9333 40.6817 23.2601 39.4636 22.0133C38.2454 20.7666 36.5886 20.0449 34.8461 20.002C33.1036 19.9592 31.4132 20.5986 30.1353 21.7839C28.8574 22.9693 28.093 24.6069 28.005 26.3477L21.246 29.975C21.137 30.0335 21.0556 30.133 21.0199 30.2515C20.9841 30.37 20.9969 30.4978 21.0555 30.6069C21.114 30.716 21.2135 30.7973 21.332 30.8331C21.4505 30.8688 21.5784 30.856 21.6874 30.7975L22.5156 30.3526V38.2645C22.5156 38.3883 22.5647 38.507 22.6523 38.5945C22.7398 38.6821 22.8585 38.7312 22.9823 38.7312H26.5885C26.7123 38.7312 26.831 38.6821 26.9185 38.5945C27.006 38.507 27.0552 38.3883 27.0552 38.2645V34.84H29.8682V38.2645C29.8682 38.3883 29.9173 38.507 30.0049 38.5945C30.0924 38.6821 30.2111 38.7312 30.3349 38.7312H33.9411C34.0649 38.7312 34.1836 38.6821 34.2711 38.5945C34.3586 38.507 34.4078 38.3883 34.4078 38.2645V30.3558L35.2469 30.8004C35.3563 30.8584 35.4842 30.8705 35.6025 30.8342C35.7209 30.7978 35.8199 30.7159 35.8779 30.6065C35.9359 30.4971 35.948 30.3692 35.9116 30.2508C35.8753 30.1325 35.7934 30.0335 35.684 29.9755L28.9424 26.4037C29.0051 24.8983 29.6563 23.4777 30.7559 22.4477C31.8555 21.4176 33.3156 20.8605 34.8219 20.8962C36.3281 20.9319 37.7602 21.5577 38.8097 22.6387C39.8592 23.7197 40.4424 25.1696 40.4335 26.6763V32.2417L35.9656 35.9801C35.9133 36.0239 35.8712 36.0787 35.8423 36.1405C35.8134 36.2024 35.7984 36.2698 35.7984 36.3381V46.3284C35.7984 46.4522 35.8476 46.5709 35.9351 46.6584C36.0227 46.746 36.1414 46.7952 36.2652 46.7952H45.5333C45.657 46.7952 45.7758 46.746 45.8633 46.6584C45.9508 46.5709 46 46.4522 46 46.3284V36.3381C46 36.2698 45.985 36.2024 45.9561 36.1405C45.9273 36.0787 45.8851 36.0239 45.8328 35.9801ZM28.0626 29.3063C28.1038 29.3763 28.1627 29.4343 28.2334 29.4743C28.3041 29.5143 28.384 29.5351 28.4653 29.5344C28.5465 29.5338 28.6261 29.5118 28.6962 29.4706C28.7662 29.4294 28.8242 29.3706 28.8643 29.2999C28.9112 29.3741 28.9362 29.4599 28.9366 29.5477C28.9366 29.6727 28.8869 29.7925 28.7985 29.8809C28.7101 29.9693 28.5903 30.019 28.4653 30.019C28.3403 30.019 28.2204 29.9693 28.132 29.8809C28.0437 29.7925 27.994 29.6727 27.994 29.5477C27.9944 29.4625 28.0181 29.379 28.0626 29.3063ZM33.4743 37.7978H30.8017V34.3732C30.8017 34.2494 30.7525 34.1307 30.6649 34.0432C30.5774 33.9557 30.4587 33.9065 30.3349 33.9065H26.5885C26.4647 33.9065 26.346 33.9557 26.2584 34.0432C26.1709 34.1307 26.1217 34.2494 26.1217 34.3732V37.7978H23.449V29.8512L27.9951 27.4119V28.2299C27.6825 28.3407 27.4192 28.5586 27.2518 28.8449C27.0844 29.1312 27.0236 29.4675 27.0802 29.7942C27.1368 30.121 27.3072 30.4173 27.5612 30.6305C27.8152 30.8438 28.1364 30.9604 28.4681 30.9596C28.7997 30.9588 29.1204 30.8408 29.3734 30.6264C29.6264 30.412 29.7955 30.1149 29.8506 29.7879C29.9057 29.4609 29.8434 29.1249 29.6747 28.8393C29.5059 28.5538 29.2416 28.3372 28.9286 28.2277V27.453L33.4743 29.8613V37.7978ZM40.52 35.4417C40.5628 35.5023 40.6197 35.5517 40.6856 35.5858C40.7515 35.6199 40.8247 35.6377 40.8989 35.6377C40.9732 35.6377 41.0464 35.6199 41.1123 35.5858C41.1782 35.5517 41.235 35.5023 41.2779 35.4417C41.3298 35.5118 41.3612 35.595 41.3685 35.6819C41.3759 35.7689 41.359 35.8561 41.3197 35.934C41.2804 36.0119 41.2203 36.0774 41.146 36.1231C41.0717 36.1688 40.9862 36.1931 40.8989 36.1931C40.8117 36.1931 40.7262 36.1688 40.6519 36.1231C40.5776 36.0774 40.5175 36.0119 40.4782 35.934C40.4389 35.8561 40.422 35.7689 40.4294 35.6819C40.4367 35.595 40.4681 35.5118 40.52 35.4417ZM45.0663 45.8617H36.7319V36.556L40.4335 33.459V34.4004C40.1209 34.5106 39.8572 34.7278 39.6892 35.0136C39.5212 35.2994 39.4597 35.6354 39.5156 35.9621C39.5715 36.2889 39.7411 36.5854 39.9945 36.7991C40.2479 37.0129 40.5688 37.1301 40.9003 37.1301C41.2318 37.1301 41.5526 37.0129 41.806 36.7991C42.0594 36.5854 42.2291 36.2889 42.2849 35.9621C42.3408 35.6354 42.2793 35.2994 42.1113 35.0136C41.9433 34.7278 41.6797 34.5106 41.367 34.4004V33.459L45.0676 36.556L45.0663 45.8617Z" fill="white"/>
<path d="M39.152 40.8958C39.3838 40.8956 39.6103 40.8266 39.8029 40.6976C39.9955 40.5687 40.1455 40.3855 40.234 40.1713C40.3225 39.9571 40.3456 39.7214 40.3002 39.4942C40.2548 39.2669 40.1431 39.0581 39.9791 38.8943C39.8151 38.7305 39.6062 38.619 39.3789 38.5739C39.1515 38.5288 38.9159 38.5521 38.7018 38.6408C38.4877 38.7296 38.3047 38.8798 38.176 39.0726C38.0472 39.2653 37.9785 39.4919 37.9785 39.7236C37.9789 40.0347 38.1027 40.3328 38.3227 40.5526C38.5427 40.7724 38.841 40.8958 39.152 40.8958ZM39.152 39.4849C39.1991 39.4852 39.2451 39.4994 39.2841 39.5257C39.3232 39.5521 39.3536 39.5894 39.3715 39.6329C39.3894 39.6765 39.394 39.7244 39.3847 39.7705C39.3755 39.8167 39.3528 39.8591 39.3195 39.8924C39.2862 39.9257 39.2438 39.9484 39.1976 39.9577C39.1514 39.9669 39.1035 39.9623 39.06 39.9444C39.0164 39.9265 38.9791 39.8961 38.9528 39.8571C38.9264 39.818 38.9123 39.7721 38.912 39.725C38.912 39.6935 38.9182 39.6622 38.9303 39.6331C38.9423 39.604 38.96 39.5775 38.9823 39.5553C39.0046 39.533 39.031 39.5153 39.0602 39.5032C39.0893 39.4912 39.1205 39.4849 39.152 39.4849Z" fill="white"/>
<path d="M42.6468 42.3849C42.415 42.3849 42.1883 42.4536 41.9956 42.5824C41.8028 42.7112 41.6526 42.8943 41.5638 43.1085C41.4751 43.3227 41.4519 43.5584 41.4971 43.7857C41.5424 44.0131 41.654 44.222 41.8179 44.3859C41.9819 44.5498 42.1907 44.6615 42.4181 44.7067C42.6455 44.7519 42.8812 44.7287 43.0954 44.64C43.3096 44.5513 43.4926 44.401 43.6214 44.2083C43.7502 44.0155 43.819 43.7889 43.819 43.5571C43.8186 43.2463 43.695 42.9483 43.4753 42.7286C43.2555 42.5088 42.9576 42.3852 42.6468 42.3849ZM42.6468 43.7955C42.5996 43.7955 42.5534 43.7815 42.5142 43.7553C42.4749 43.729 42.4443 43.6918 42.4263 43.6481C42.4082 43.6045 42.4035 43.5565 42.4127 43.5102C42.4219 43.4639 42.4446 43.4214 42.478 43.388C42.5114 43.3546 42.5539 43.3319 42.6002 43.3227C42.6465 43.3135 42.6945 43.3182 42.7381 43.3363C42.7818 43.3543 42.819 43.3849 42.8453 43.4242C42.8715 43.4634 42.8855 43.5096 42.8855 43.5568C42.8849 43.6199 42.8596 43.6802 42.8149 43.7247C42.7702 43.7692 42.7099 43.7943 42.6468 43.7947V43.7955Z" fill="white"/>
<path d="M37.8639 44.4081C37.9473 44.4996 38.0636 44.5542 38.1872 44.56C38.3109 44.5657 38.4317 44.5221 38.5232 44.4388L43.9041 39.5327C43.9503 39.4917 43.9879 39.4419 44.0147 39.3862C44.0415 39.3305 44.057 39.2701 44.0602 39.2084C44.0635 39.1467 44.0545 39.0849 44.0337 39.0267C44.0129 38.9685 43.9808 38.9151 43.9391 38.8694C43.8975 38.8237 43.8473 38.7867 43.7912 38.7606C43.7352 38.7346 43.6746 38.7198 43.6129 38.7174C43.5511 38.7149 43.4895 38.7247 43.4316 38.7462C43.3736 38.7677 43.3206 38.8005 43.2754 38.8427L37.8943 43.748C37.8489 43.7893 37.8121 43.8392 37.786 43.8947C37.7599 43.9503 37.745 44.0104 37.7422 44.0718C37.7394 44.1331 37.7487 44.1944 37.7696 44.2521C37.7904 44.3098 37.8225 44.3628 37.8639 44.4081Z" fill="white"/>
</svg>
