<svg width="25" height="30" viewBox="0 0 25 30" fill="none" xmlns="http://www.w3.org/2000/svg">
<path d="M23.5959 2.11097H14.6612C14.6479 1.54659 14.4144 1.00979 14.0105 0.615313C13.6067 0.22084 13.0645 0 12.5 0C11.9355 0 11.3933 0.22084 10.9895 0.615313C10.5856 1.00979 10.3521 1.54659 10.3388 2.11097H1.40408C1.03169 2.11097 0.674559 2.2589 0.411244 2.52222C0.147929 2.78553 0 3.14267 0 3.51505C0 3.88743 0.147929 4.24456 0.411244 4.50788C0.674559 4.7712 1.03169 4.91912 1.40408 4.91912H2.80129V22.0784C2.80125 22.1924 2.83854 22.3033 2.90746 22.3942C2.97638 22.485 3.07314 22.5508 3.18297 22.5815L10.3364 24.578V29.4643C10.3364 29.6028 10.3915 29.7357 10.4894 29.8336C10.5873 29.9315 10.7202 29.9866 10.8587 29.9866C10.9972 29.9866 11.13 29.9315 11.228 29.8336C11.3259 29.7357 11.3809 29.6028 11.3809 29.4643V24.8686L12.3594 25.1417C12.4513 25.1673 12.5484 25.1673 12.6403 25.1417L13.6191 24.8686V29.4643C13.6191 29.6028 13.6741 29.7357 13.772 29.8336C13.87 29.9315 14.0028 29.9866 14.1413 29.9866C14.2798 29.9866 14.4127 29.9315 14.5106 29.8336C14.6085 29.7357 14.6636 29.6028 14.6636 29.4643V24.578L21.817 22.5812C21.9268 22.5505 22.0235 22.4848 22.0925 22.394C22.1614 22.3032 22.1987 22.1924 22.1987 22.0784V4.91912H23.5959C23.9683 4.91912 24.3254 4.7712 24.5888 4.50788C24.8521 4.24456 25 3.88743 25 3.51505C25 3.14267 24.8521 2.78553 24.5888 2.52222C24.3254 2.2589 23.9683 2.11097 23.5959 2.11097V2.11097ZM12.5 1.03964C12.7879 1.04039 13.0645 1.15219 13.2721 1.35175C13.4797 1.55132 13.6022 1.82328 13.6143 2.11097H11.3857C11.3978 1.82328 11.5203 1.55132 11.7279 1.35175C11.9355 1.15219 12.2121 1.04039 12.5 1.03964V1.03964ZM1.40408 3.87465C1.3087 3.87465 1.21724 3.83676 1.1498 3.76932C1.08236 3.70189 1.04448 3.61042 1.04448 3.51505C1.04448 3.41968 1.08236 3.32821 1.1498 3.26077C1.21724 3.19334 1.3087 3.15545 1.40408 3.15545H2.80129V3.87465H1.40408ZM21.1542 21.6821L12.5 24.0975L3.84576 21.6821V3.15545H21.1542V21.6821ZM23.5959 3.87465H22.1987V3.15545H23.5959C23.6913 3.15545 23.7828 3.19334 23.8502 3.26077C23.9176 3.32821 23.9555 3.41968 23.9555 3.51505C23.9555 3.61042 23.9176 3.70189 23.8502 3.76932C23.7828 3.83676 23.6913 3.87465 23.5959 3.87465V3.87465Z" fill="#A0A9F4"/>
<path d="M18.0335 10.4041L12.7087 7.58313C12.6332 7.54277 12.5488 7.52165 12.4631 7.52165C12.3775 7.52165 12.2931 7.54277 12.2175 7.58313L6.96382 10.4038C6.90104 10.4348 6.84514 10.4781 6.79943 10.5312C6.75373 10.5842 6.71916 10.6459 6.69779 10.7126C6.67641 10.7793 6.66866 10.8496 6.675 10.9193C6.68133 10.9891 6.70163 11.0568 6.73468 11.1185C6.76772 11.1803 6.81285 11.2347 6.86737 11.2787C6.92188 11.3226 6.98468 11.3551 7.05202 11.3743C7.11937 11.3935 7.18988 11.3989 7.25937 11.3903C7.32886 11.3817 7.3959 11.3592 7.45652 11.3241L7.83402 11.1215V16.8163C7.83402 16.9548 7.88904 17.0876 7.98698 17.1856C8.08492 17.2835 8.21775 17.3385 8.35626 17.3385H11.0809C11.1496 17.3387 11.2176 17.3254 11.2812 17.2992C11.3447 17.2731 11.4024 17.2346 11.4511 17.1861C11.4997 17.1376 11.5384 17.08 11.5647 17.0165C11.591 16.953 11.6046 16.885 11.6046 16.8163V14.3991H13.3909V16.8163C13.3909 16.9548 13.446 17.0876 13.5439 17.1856C13.6418 17.2835 13.7747 17.3385 13.9132 17.3385H16.6378C16.7763 17.3385 16.9091 17.2835 17.007 17.1856C17.105 17.0876 17.16 16.9548 17.16 16.8163V11.1227L17.545 11.3265C17.6671 11.3887 17.8087 11.4005 17.9394 11.3592C18.0701 11.3179 18.1793 11.2269 18.2435 11.1058C18.3077 10.9847 18.3217 10.8433 18.2825 10.7119C18.2433 10.5806 18.1541 10.4699 18.0341 10.4038L18.0335 10.4041ZM16.1149 16.2941H14.4348V13.8768C14.4348 13.7383 14.3798 13.6055 14.2819 13.5076C14.1839 13.4096 14.0511 13.3546 13.9126 13.3546H11.0817C10.9432 13.3546 10.8104 13.4096 10.7125 13.5076C10.6145 13.6055 10.5595 13.7383 10.5595 13.8768V16.2941H8.87939V10.5611L12.4664 8.63626L16.1152 10.5694L16.1149 16.2941Z" fill="#A0A9F4"/>
</svg>
