<svg width="66" height="66" viewBox="0 0 66 66" fill="none" xmlns="http://www.w3.org/2000/svg">
<circle r="33" transform="matrix(-1 0 0 1 33 33)" fill="white" fill-opacity="0.2"/>
<circle r="24.58" transform="matrix(-1 0 0 1 33.0001 33)" stroke="white"/>
<path d="M44.5959 20.111H35.6612C35.6479 19.5466 35.4144 19.0098 35.0105 18.6153C34.6067 18.2208 34.0645 18 33.5 18C32.9355 18 32.3933 18.2208 31.9895 18.6153C31.5856 19.0098 31.3521 19.5466 31.3388 20.111H22.4041C22.0317 20.111 21.6746 20.2589 21.4112 20.5222C21.1479 20.7855 21 21.1427 21 21.515C21 21.8874 21.1479 22.2446 21.4112 22.5079C21.6746 22.7712 22.0317 22.9191 22.4041 22.9191H23.8013V40.0784C23.8012 40.1924 23.8385 40.3033 23.9075 40.3942C23.9764 40.485 24.0731 40.5508 24.183 40.5815L31.3364 42.578V47.4643C31.3364 47.6028 31.3915 47.7357 31.4894 47.8336C31.5873 47.9315 31.7202 47.9866 31.8587 47.9866C31.9972 47.9866 32.13 47.9315 32.228 47.8336C32.3259 47.7357 32.3809 47.6028 32.3809 47.4643V42.8686L33.3594 43.1417C33.4513 43.1673 33.5484 43.1673 33.6403 43.1417L34.6191 42.8686V47.4643C34.6191 47.6028 34.6741 47.7357 34.772 47.8336C34.87 47.9315 35.0028 47.9866 35.1413 47.9866C35.2798 47.9866 35.4127 47.9315 35.5106 47.8336C35.6085 47.7357 35.6636 47.6028 35.6636 47.4643V42.578L42.817 40.5812C42.9268 40.5505 43.0235 40.4848 43.0925 40.394C43.1614 40.3032 43.1987 40.1924 43.1987 40.0784V22.9191H44.5959C44.9683 22.9191 45.3254 22.7712 45.5888 22.5079C45.8521 22.2446 46 21.8874 46 21.515C46 21.1427 45.8521 20.7855 45.5888 20.5222C45.3254 20.2589 44.9683 20.111 44.5959 20.111ZM33.5 19.0396C33.7879 19.0404 34.0645 19.1522 34.2721 19.3518C34.4797 19.5513 34.6022 19.8233 34.6143 20.111H32.3857C32.3978 19.8233 32.5203 19.5513 32.7279 19.3518C32.9355 19.1522 33.2121 19.0404 33.5 19.0396ZM22.4041 21.8746C22.3087 21.8746 22.2172 21.8368 22.1498 21.7693C22.0824 21.7019 22.0445 21.6104 22.0445 21.515C22.0445 21.4197 22.0824 21.3282 22.1498 21.2608C22.2172 21.1933 22.3087 21.1555 22.4041 21.1555H23.8013V21.8746H22.4041ZM42.1542 39.6821L33.5 42.0975L24.8458 39.6821V21.1555H42.1542V39.6821ZM44.5959 21.8746H43.1987V21.1555H44.5959C44.6913 21.1555 44.7828 21.1933 44.8502 21.2608C44.9176 21.3282 44.9555 21.4197 44.9555 21.515C44.9555 21.6104 44.9176 21.7019 44.8502 21.7693C44.7828 21.8368 44.6913 21.8746 44.5959 21.8746Z" fill="white"/>
<path d="M39.0335 28.4041L33.7087 25.5831C33.6332 25.5428 33.5488 25.5217 33.4631 25.5217C33.3775 25.5217 33.2931 25.5428 33.2175 25.5831L27.9638 28.4038C27.901 28.4348 27.8451 28.4781 27.7994 28.5312C27.7537 28.5842 27.7192 28.6459 27.6978 28.7126C27.6764 28.7793 27.6687 28.8496 27.675 28.9193C27.6813 28.9891 27.7016 29.0568 27.7347 29.1185C27.7677 29.1803 27.8128 29.2347 27.8674 29.2787C27.9219 29.3226 27.9847 29.3551 28.052 29.3743C28.1194 29.3935 28.1899 29.3989 28.2594 29.3903C28.3289 29.3817 28.3959 29.3592 28.4565 29.3241L28.834 29.1215V34.8163C28.834 34.9548 28.889 35.0876 28.987 35.1856C29.0849 35.2835 29.2178 35.3385 29.3563 35.3385H32.0809C32.1496 35.3387 32.2176 35.3254 32.2812 35.2992C32.3447 35.2731 32.4024 35.2346 32.4511 35.1861C32.4998 35.1376 32.5384 35.08 32.5647 35.0165C32.591 34.953 32.6046 34.885 32.6046 34.8163V32.3991H34.3909V34.8163C34.3909 34.9548 34.446 35.0876 34.5439 35.1856C34.6418 35.2835 34.7747 35.3385 34.9132 35.3385H37.6378C37.7763 35.3385 37.9091 35.2835 38.007 35.1856C38.105 35.0876 38.16 34.9548 38.16 34.8163V29.1227L38.545 29.3265C38.6671 29.3887 38.8087 29.4005 38.9394 29.3592C39.0701 29.3179 39.1793 29.2269 39.2435 29.1058C39.3077 28.9847 39.3217 28.8433 39.2825 28.7119C39.2433 28.5806 39.1541 28.4699 39.0341 28.4038L39.0335 28.4041ZM37.1149 34.2941H35.4348V31.8768C35.4348 31.7383 35.3798 31.6055 35.2819 31.5076C35.1839 31.4096 35.0511 31.3546 34.9126 31.3546H32.0817C31.9432 31.3546 31.8104 31.4096 31.7125 31.5076C31.6145 31.6055 31.5595 31.7383 31.5595 31.8768V34.2941H29.8794V28.5611L33.4664 26.6363L37.1152 28.5694L37.1149 34.2941Z" fill="white"/>
</svg>
