<svg width="20" height="25" viewBox="0 0 20 25" fill="none" xmlns="http://www.w3.org/2000/svg">
<path d="M5.05656 16.3511C4.78956 16.3511 4.52854 16.4303 4.30653 16.5786C4.08452 16.7269 3.91149 16.9378 3.80931 17.1845C3.70713 17.4311 3.68039 17.7026 3.73248 17.9645C3.78457 18.2263 3.91315 18.4669 4.10196 18.6557C4.29076 18.8445 4.53131 18.9731 4.79319 19.0252C5.05507 19.0773 5.32651 19.0505 5.5732 18.9484C5.81988 18.8462 6.03072 18.6731 6.17907 18.4511C6.32741 18.2291 6.40659 17.9681 6.40659 17.7011C6.40618 17.3432 6.26381 17 6.01072 16.7469C5.75763 16.4938 5.41449 16.3515 5.05656 16.3511ZM5.05656 18.2795C4.94217 18.2795 4.83034 18.2456 4.73522 18.182C4.6401 18.1185 4.56597 18.0281 4.52219 17.9224C4.47841 17.8168 4.46696 17.7005 4.48927 17.5883C4.51159 17.4761 4.56668 17.373 4.64757 17.2921C4.72846 17.2112 4.83152 17.1561 4.94372 17.1338C5.05592 17.1115 5.17222 17.1229 5.27791 17.1667C5.3836 17.2105 5.47393 17.2846 5.53749 17.3798C5.60105 17.4749 5.63497 17.5867 5.63497 17.7011C5.63481 17.8544 5.57381 18.0015 5.46538 18.1099C5.35694 18.2183 5.20992 18.2793 5.05656 18.2795Z" fill="#0986E2"/>
<path d="M14.9452 16.3511C14.6782 16.3511 14.4172 16.4303 14.1952 16.5786C13.9732 16.7269 13.8002 16.9378 13.698 17.1845C13.5958 17.4311 13.5691 17.7026 13.6212 17.9645C13.6732 18.2263 13.8018 18.4669 13.9906 18.6557C14.1794 18.8445 14.42 18.9731 14.6819 19.0252C14.9437 19.0773 15.2152 19.0505 15.4619 18.9484C15.7086 18.8462 15.9194 18.6731 16.0677 18.4511C16.2161 18.2291 16.2953 17.9681 16.2953 17.7011C16.2948 17.3432 16.1525 17 15.8994 16.7469C15.6463 16.4938 15.3032 16.3515 14.9452 16.3511ZM14.9452 18.2795C14.8308 18.2795 14.719 18.2456 14.6239 18.182C14.5288 18.1185 14.4546 18.0281 14.4109 17.9224C14.3671 17.8168 14.3556 17.7005 14.3779 17.5883C14.4003 17.4761 14.4554 17.373 14.5362 17.2921C14.6171 17.2112 14.7202 17.1561 14.8324 17.1338C14.9446 17.1115 15.0609 17.1229 15.1666 17.1667C15.2723 17.2105 15.3626 17.2846 15.4262 17.3798C15.4897 17.4749 15.5236 17.5867 15.5236 17.7011C15.5235 17.8544 15.4625 18.0015 15.3541 18.1099C15.2456 18.2183 15.0986 18.2793 14.9452 18.2795Z" fill="#0986E2"/>
<path d="M18.4382 6.21972V4.56815C18.4376 3.9892 18.2073 3.43416 17.7979 3.02478C17.3886 2.6154 16.8335 2.38513 16.2546 2.38447H13.3095C13.3874 2.21536 13.428 2.03147 13.4286 1.84527C13.4295 1.60408 13.3636 1.36735 13.2382 1.16132C13.1128 0.955289 12.9328 0.788001 12.7182 0.677995C12.5035 0.567989 12.2626 0.519561 12.0221 0.538078C11.7817 0.556595 11.551 0.641334 11.3557 0.782904C11.2185 0.544898 11.021 0.347232 10.7831 0.209795C10.5452 0.0723586 10.2754 0 10.0006 0C9.72588 0 9.45599 0.0723586 9.21811 0.209795C8.98022 0.347232 8.78273 0.544898 8.6455 0.782904C8.4119 0.613281 8.12866 0.52587 7.84009 0.534344C7.55152 0.542817 7.27389 0.646697 7.05064 0.829736C6.82739 1.01277 6.6711 1.26465 6.60623 1.54596C6.54135 1.82727 6.57154 2.12215 6.69208 2.38447H3.74697C3.16802 2.38513 2.61298 2.6154 2.2036 3.02478C1.79422 3.43416 1.56395 3.9892 1.5633 4.56815V6.21941C1.14531 6.23151 0.748426 6.40578 0.456652 6.70533C0.164879 7.00488 0.0011075 7.40621 0 7.82437V9.10217C0 9.20449 0.0406478 9.30262 0.113001 9.37498C0.185354 9.44733 0.283486 9.48798 0.385808 9.48798C0.488131 9.48798 0.586263 9.44733 0.658616 9.37498C0.730969 9.30262 0.771617 9.20449 0.771617 9.10217V7.8253C0.772397 7.61162 0.854802 7.40632 1.00197 7.25141C1.14914 7.0965 1.34994 7.00368 1.5633 6.99195V18.539C1.56422 19.0955 1.77747 19.6307 2.15954 20.0353C2.5416 20.4399 3.06367 20.6835 3.61919 20.7162L1.78614 23.7101C1.75967 23.7533 1.74197 23.8013 1.73405 23.8514C1.72614 23.9014 1.72815 23.9525 1.73999 24.0018C1.75183 24.0511 1.77325 24.0975 1.80304 24.1385C1.83283 24.1795 1.8704 24.2142 1.91361 24.2407C1.95682 24.2671 2.00481 24.2848 2.05486 24.2928C2.10491 24.3007 2.15602 24.2987 2.20529 24.2868C2.25456 24.275 2.30101 24.2536 2.342 24.2238C2.38299 24.194 2.41771 24.1564 2.44417 24.1132L3.58092 22.2589H5.44823C5.55055 22.2589 5.64869 22.2182 5.72104 22.1459C5.79339 22.0735 5.83404 21.9754 5.83404 21.873C5.83404 21.7707 5.79339 21.6726 5.72104 21.6002C5.64869 21.5279 5.55055 21.4872 5.44823 21.4872H4.05191L4.52013 20.7227H15.4814L15.9496 21.4872H8.6634C8.56108 21.4872 8.46295 21.5279 8.3906 21.6002C8.31824 21.6726 8.2776 21.7707 8.2776 21.873C8.2776 21.9754 8.31824 22.0735 8.3906 22.1459C8.46295 22.2182 8.56108 22.2589 8.6634 22.2589H16.4206L17.5558 24.1126C17.5823 24.1558 17.617 24.1934 17.658 24.2232C17.699 24.2529 17.7454 24.2744 17.7947 24.2862C17.844 24.298 17.8951 24.3001 17.9451 24.2921C17.9952 24.2842 18.0432 24.2665 18.0864 24.2401C18.1296 24.2136 18.1672 24.1789 18.197 24.1379C18.2267 24.0969 18.2482 24.0504 18.26 24.0012C18.2718 23.9519 18.2739 23.9008 18.2659 23.8507C18.258 23.8007 18.2403 23.7527 18.2139 23.7095L16.3808 20.7156C16.9363 20.6828 17.4584 20.4393 17.8405 20.0347C18.2225 19.6301 18.4358 19.0949 18.4367 18.5384V6.99133C18.6501 7.00306 18.8509 7.09588 18.998 7.25079C19.1452 7.40571 19.2276 7.61101 19.2284 7.82468V9.10217C19.2284 9.20449 19.269 9.30262 19.3414 9.37498C19.4137 9.44733 19.5119 9.48798 19.6142 9.48798C19.7165 9.48798 19.8146 9.44733 19.887 9.37498C19.9594 9.30262 20 9.20449 20 9.10217V7.8253C19.9991 7.40728 19.8356 7.00603 19.5441 6.70638C19.2527 6.40674 18.8561 6.23222 18.4382 6.21972ZM12.1178 1.30606C12.2244 1.30606 12.3287 1.33768 12.4173 1.39693C12.506 1.45618 12.5751 1.54039 12.6159 1.63892C12.6567 1.73745 12.6674 1.84586 12.6466 1.95046C12.6258 2.05506 12.5745 2.15113 12.4991 2.22654C12.4236 2.30195 12.3276 2.35331 12.223 2.37411C12.1184 2.39492 12.01 2.38424 11.9114 2.34343C11.8129 2.30262 11.7287 2.2335 11.6694 2.14483C11.6102 2.05616 11.5786 1.95191 11.5786 1.84527C11.5787 1.70231 11.6356 1.56526 11.7367 1.46417C11.8378 1.36309 11.9748 1.30622 12.1178 1.30606ZM10.0008 0.771793C10.1603 0.771732 10.3163 0.818988 10.449 0.907583C10.5816 0.996179 10.685 1.12213 10.7461 1.26951C10.8072 1.41689 10.8232 1.57908 10.7921 1.73555C10.761 1.89202 10.6842 2.03576 10.5714 2.14856C10.4585 2.26137 10.3148 2.33819 10.1583 2.3693C10.0019 2.40041 9.83969 2.38441 9.69231 2.32333C9.54493 2.26225 9.41897 2.15883 9.33038 2.02616C9.24178 1.89348 9.19452 1.73751 9.19459 1.57798C9.19483 1.36424 9.27985 1.15933 9.43098 1.00819C9.58212 0.857054 9.78703 0.772038 10.0008 0.771793ZM7.34456 1.84527C7.34456 1.73862 7.37618 1.63437 7.43543 1.5457C7.49468 1.45703 7.57889 1.38792 7.67742 1.34711C7.77594 1.30629 7.88436 1.29562 7.98896 1.31642C8.09355 1.33723 8.18963 1.38858 8.26504 1.46399C8.34045 1.5394 8.3918 1.63548 8.41261 1.74007C8.43341 1.84467 8.42274 1.95308 8.38192 2.05161C8.34111 2.15014 8.272 2.23435 8.18333 2.2936C8.09466 2.35285 7.99041 2.38447 7.88376 2.38447C7.74081 2.38431 7.60375 2.32745 7.50267 2.22636C7.40158 2.12528 7.34472 1.98822 7.34456 1.84527ZM16.2546 19.9511H3.74697C3.3726 19.9507 3.01367 19.8018 2.74895 19.5371C2.48422 19.2723 2.33532 18.9134 2.33491 18.539V4.95396H16.2006C16.3029 4.95396 16.401 4.91331 16.4734 4.84096C16.5457 4.7686 16.5864 4.67047 16.5864 4.56815C16.5864 4.46582 16.5457 4.36769 16.4734 4.29534C16.401 4.22299 16.3029 4.18234 16.2006 4.18234H2.39541C2.47868 3.88765 2.65566 3.6281 2.89957 3.44294C3.14348 3.25778 3.44105 3.15709 3.74728 3.15609H16.2546C16.6289 3.1565 16.9879 3.3054 17.2526 3.57012C17.5173 3.83485 17.6662 4.19377 17.6666 4.56815V14.7356H3.80098C3.69866 14.7356 3.60053 14.7762 3.52818 14.8486C3.45582 14.9209 3.41518 15.0191 3.41518 15.1214C3.41518 15.2237 3.45582 15.3219 3.52818 15.3942C3.60053 15.4666 3.69866 15.5072 3.80098 15.5072H17.6666V18.539C17.6662 18.9134 17.5173 19.2723 17.2526 19.5371C16.9879 19.8018 16.6289 19.9507 16.2546 19.9511Z" fill="#0986E2"/>
<path d="M7.14584 21.4872H6.99152C6.8892 21.4872 6.79107 21.5278 6.71871 21.6002C6.64636 21.6725 6.60571 21.7707 6.60571 21.873C6.60571 21.9753 6.64636 22.0734 6.71871 22.1458C6.79107 22.2182 6.8892 22.2588 6.99152 22.2588H7.14584C7.24817 22.2588 7.3463 22.2182 7.41865 22.1458C7.49101 22.0734 7.53165 21.9753 7.53165 21.873C7.53165 21.7707 7.49101 21.6725 7.41865 21.6002C7.3463 21.5278 7.24817 21.4872 7.14584 21.4872Z" fill="#0986E2"/>
</svg>
