<svg width="25" height="24" viewBox="0 0 25 24" fill="none" xmlns="http://www.w3.org/2000/svg">
<path d="M4.81758 18.4184C4.56926 18.4184 4.37061 18.617 4.37061 18.8654V22.2922C4.37061 22.5405 4.56926 22.7392 4.81758 22.7392C5.0659 22.7392 5.26456 22.5405 5.26456 22.2922V18.8654C5.26456 18.617 5.0659 18.4184 4.81758 18.4184Z" fill="white"/>
<path d="M14.6759 7.98891C14.9242 7.98891 15.1228 7.79025 15.1228 7.54193C15.1228 7.29361 14.9242 7.09496 14.6759 7.09496H12.888C12.6396 7.09496 12.4658 7.29361 12.441 7.5171C12.441 7.64126 12.4906 7.74059 12.5651 7.83992C12.59 8.2124 12.9128 8.51038 13.3101 8.48555C13.6081 8.46072 13.8564 8.26206 13.9309 7.96408H14.6759V7.98891Z" fill="white"/>
<path d="M10.032 7.86472C10.2058 7.69089 10.2058 7.41774 10.032 7.24391C9.95746 7.16942 9.8333 7.11975 9.70914 7.11975H7.92122C7.6729 7.11975 7.47424 7.31841 7.47424 7.56673C7.47424 7.81505 7.6729 8.01371 7.92122 8.01371H8.64135C8.74068 8.38619 9.11317 8.60968 9.48565 8.51035C9.80847 8.41102 10.0071 8.1627 10.032 7.86472Z" fill="white"/>
<path d="M12.5896 10.2238C12.3413 10.2238 12.1427 10.4224 12.1427 10.6707C12.1427 11.1426 11.7702 11.515 11.2984 11.515C10.8266 11.515 10.4541 11.1426 10.4541 10.6707C10.4541 10.4224 10.2554 10.2238 10.0071 10.2238C9.75878 10.2238 9.56012 10.4224 9.56012 10.6707C9.56012 11.6144 10.3299 12.3842 11.2735 12.3842C12.2172 12.3842 12.987 11.6144 12.987 10.6707C13.0366 10.4224 12.838 10.2238 12.5896 10.2238Z" fill="white"/>
<path d="M19.667 13.2284C19.0959 13.2284 18.5247 13.3278 17.9784 13.5016C17.308 13.1539 16.5878 12.9056 15.8677 12.7566C16.414 11.9123 16.712 10.8942 16.712 9.8761V9.37946C17.7053 9.13113 18.3261 8.13785 18.0778 7.14457C17.9288 6.49893 17.4321 5.97746 16.7865 5.7788C16.8362 4.04055 16.4388 2.62513 15.5946 1.63184C14.8993 0.78755 13.9308 0.266076 12.8382 0.117083C10.1315 -0.255398 8.14493 0.266076 6.92815 1.60701C5.81071 2.84861 5.61205 4.5372 5.66172 5.82847C4.69327 6.20095 4.22146 7.26873 4.59394 8.21235C4.81743 8.78349 5.28924 9.20563 5.91004 9.35462V9.85127C5.91004 10.8694 6.20802 11.8875 6.75433 12.7566C2.83086 13.5761 0 17.0277 0 21.0505V22.2425C0 22.4908 0.198657 22.6895 0.446978 22.6895C0.695299 22.6895 0.893955 22.4908 0.893955 22.2425V21.0505C0.893955 18.0707 2.6322 15.3888 5.31407 14.1472C5.3389 14.1969 5.38857 14.2465 5.4134 14.2714L8.7409 16.8043C8.88989 16.9284 9.11338 16.9284 9.26237 16.8043L9.63485 16.5311L10.8268 17.7479L9.41136 22.1183C9.33687 22.3418 9.46103 22.5901 9.68452 22.6646C9.90801 22.7391 10.1563 22.615 10.2308 22.3915C10.2308 22.3915 10.2308 22.3915 10.2308 22.3666L11.3234 19.0143L12.416 22.3666C12.4905 22.5901 12.7389 22.7143 12.9624 22.6646C13.1858 22.5901 13.31 22.3418 13.2603 22.1183C13.2603 22.1183 13.2603 22.1183 13.2603 22.0935L11.8449 17.723L13.0369 16.5063L13.4093 16.7794C13.5583 16.9036 13.7818 16.9036 13.9308 16.7794L15.0731 15.9103C13.6577 18.468 14.5764 21.6962 17.1341 23.1116C19.6919 24.527 22.92 23.6082 24.3355 21.0505C25.7509 18.4928 24.8321 15.2647 22.2744 13.8492C21.4549 13.4768 20.561 13.2284 19.667 13.2284ZM11.3234 14.3955C8.81539 14.3955 6.80399 12.3593 6.80399 9.8761V7.69087C7.52413 6.69759 8.14493 6.5486 9.13821 6.27544C10.1067 6.05195 11.0255 5.70431 11.8946 5.25733C12.2422 5.0835 12.565 4.83518 12.8382 4.5372C13.6825 6.12645 15.1972 6.84658 15.8677 7.0949V9.8761C15.8429 12.3841 13.8315 14.3955 11.3234 14.3955ZM17.2831 7.56671C17.2831 7.93919 17.0597 8.28684 16.7368 8.46067V6.82175C16.7368 6.77209 16.7368 6.74725 16.7617 6.69759C17.0597 6.84658 17.2831 7.19423 17.2831 7.56671ZM7.62345 2.17815C8.39325 1.30902 9.63485 0.862046 11.2489 0.862046C11.7456 0.862046 12.2671 0.91171 12.7637 0.961374H12.7885C13.6328 1.08553 14.4026 1.50768 14.9489 2.17815C15.6939 3.09693 16.0167 4.43787 15.8925 6.17612C14.8993 5.75397 14.055 5.00901 13.5583 4.06539C13.459 3.89156 13.3845 3.69291 13.31 3.49425C13.2355 3.27076 12.9872 3.1466 12.7637 3.2211C12.6644 3.27076 12.565 3.34526 12.5154 3.44458C12.2919 3.89156 11.9194 4.26404 11.4724 4.4627C10.653 4.88485 9.80868 5.20766 8.91472 5.40632C8.0456 5.62981 7.3503 5.80363 6.63017 6.52376C6.50601 5.43115 6.48118 3.46942 7.62345 2.17815ZM5.36373 7.56671C5.36373 7.2439 5.51273 6.94591 5.76105 6.77209C5.78588 7.04524 5.83554 7.34322 5.91004 7.61638V8.43584C5.58722 8.28684 5.36373 7.93919 5.36373 7.56671ZM9.01405 15.9351L6.23286 13.7996C6.60534 13.6754 7.00265 13.6009 7.37513 13.5512C8.09526 14.321 9.03888 14.8674 10.057 15.1157L9.01405 15.9351ZM11.3234 17.0277L10.3302 16.0096L11.2986 15.2647H11.3234H11.3483L12.3167 16.0096L11.3234 17.0277ZM13.6328 15.9351L12.565 15.1157C13.5832 14.8674 14.5268 14.321 15.2469 13.5512C15.6442 13.6009 16.0167 13.7002 16.3892 13.7996L13.6328 15.9351ZM19.667 22.9626C17.2335 22.9626 15.2469 20.976 15.2469 18.5425C15.2469 16.109 17.2335 14.1224 19.667 14.1224C22.1006 14.1224 24.0871 16.109 24.0871 18.5425C24.0871 20.976 22.1006 22.9626 19.667 22.9626Z" fill="white"/>
<path d="M20.4863 17.276C20.4863 17.5244 20.685 17.723 20.9333 17.723C21.1816 17.723 21.3803 17.5244 21.3803 17.276C21.3803 16.5062 20.8588 15.8358 20.1138 15.6371V15.364C20.1138 15.1156 19.9152 14.917 19.6668 14.917C19.4185 14.917 19.2199 15.1156 19.2199 15.364V15.6123C18.3259 15.8606 17.7796 16.7794 18.0031 17.6734C18.1521 18.2693 18.6239 18.7163 19.2199 18.8901V20.4794C18.9715 20.3304 18.8225 20.0572 18.8225 19.7841C18.8225 19.5358 18.6239 19.3371 18.3756 19.3371C18.1272 19.3371 17.9286 19.5358 17.9286 19.7841C17.9286 20.5539 18.4501 21.2243 19.195 21.423V21.6962C19.195 21.9445 19.3937 22.1431 19.642 22.1431C19.8903 22.1431 20.089 21.9445 20.089 21.6962V21.423C20.9829 21.1747 21.5292 20.2559 21.3058 19.3619C21.1568 18.766 20.685 18.319 20.089 18.1452V16.5559C20.3373 16.7297 20.4863 16.9781 20.4863 17.276ZM18.8474 17.276C18.8474 16.9781 18.9964 16.7297 19.2447 16.5807V17.9962C18.9964 17.8223 18.8474 17.5492 18.8474 17.276ZM20.4863 19.8089C20.4863 20.1069 20.3373 20.3552 20.089 20.5042V19.0888C20.3373 19.2378 20.4863 19.5109 20.4863 19.8089Z" fill="white"/>
</svg>
