<svg width="22" height="23" viewBox="0 0 22 23" fill="none" xmlns="http://www.w3.org/2000/svg">
<path d="M20.4992 13.125V11.2767C20.4992 11.1834 20.4622 11.094 20.3963 11.0281C20.3303 10.9621 20.2409 10.9251 20.1476 10.9251H19.6791V4.54036L20.2594 4.34567C20.3292 4.32223 20.3899 4.27744 20.4329 4.21764C20.4759 4.15783 20.499 4.08603 20.499 4.01236C20.499 3.9387 20.4759 3.8669 20.4329 3.80709C20.3899 3.74729 20.3292 3.7025 20.2594 3.67905L11.1117 0.608145C11.0391 0.583825 10.9605 0.583825 10.8879 0.608145L1.74008 3.67885C1.67025 3.7023 1.60954 3.74709 1.56653 3.80689C1.52353 3.8667 1.50039 3.9385 1.50039 4.01216C1.50039 4.08583 1.52353 4.15763 1.56653 4.21744C1.60954 4.27724 1.67025 4.32203 1.74008 4.34547L4.72239 5.34661V10.8083C4.72239 11.0336 4.72239 11.3741 6.74816 11.7339C8.15285 11.9709 9.57529 12.0869 10.9998 12.0805C12.4243 12.0869 13.8468 11.9709 15.2515 11.7339C17.2772 11.3741 17.2772 11.0336 17.2772 10.8083V5.34681L18.9761 4.77642V10.9243H18.5078C18.4146 10.9243 18.3251 10.9613 18.2592 11.0272C18.1933 11.0932 18.1562 11.1826 18.1562 11.2759V13.0463H1.92532C1.91548 13.0463 1.90623 13.0483 1.89679 13.0491C0.831968 13.0736 0 14.4818 0 16.2775C0 18.0672 0.825539 19.472 1.88634 19.5049C1.89932 19.507 1.9124 19.5083 1.92552 19.509H8.42978L7.41237 22.1097C7.38556 22.1782 7.38091 22.2534 7.39907 22.3247C7.41724 22.396 7.4573 22.4598 7.51362 22.5071C7.56994 22.5544 7.63969 22.5829 7.71303 22.5885C7.78638 22.594 7.85963 22.5765 7.92248 22.5383L9.07349 21.8383L9.50887 22.4434C9.54142 22.4887 9.58427 22.5256 9.63387 22.551C9.68347 22.5764 9.73841 22.5897 9.79416 22.5897C9.80887 22.5896 9.82356 22.5887 9.83816 22.5869C9.90091 22.5789 9.96037 22.5542 10.0103 22.5153C10.0601 22.4764 10.0986 22.4248 10.1216 22.3659L10.9998 20.1217L11.8778 22.3661C11.9008 22.425 11.9393 22.4766 11.9892 22.5155C12.0391 22.5544 12.0985 22.5791 12.1613 22.5871C12.1759 22.5889 12.1906 22.5898 12.2053 22.5899C12.261 22.5899 12.316 22.5766 12.3656 22.5512C12.4152 22.5258 12.458 22.4889 12.4906 22.4436L12.9259 21.8385L14.077 22.5385C14.1398 22.5767 14.2131 22.5942 14.2864 22.5887C14.3597 22.5831 14.4295 22.5546 14.4858 22.5073C14.5421 22.46 14.5822 22.3962 14.6004 22.3249C14.6185 22.2536 14.6139 22.1784 14.5871 22.1099L13.5697 19.5092H20.0741C21.1538 19.5092 21.9994 18.0899 21.9994 16.2777C21.9996 14.7148 21.373 13.4417 20.4992 13.125ZM10.9998 1.31233L19.0428 4.01216L10.9998 6.71239L2.95679 4.01216L10.9998 1.31233ZM16.5741 10.6677C16.0919 10.911 13.9237 11.3773 10.9998 11.3773C8.07598 11.3773 5.90735 10.911 5.42557 10.6677V5.58247L10.8879 7.41618C10.9605 7.4405 11.0391 7.4405 11.1117 7.41618L16.5741 5.58247V10.6677ZM18.8594 11.6273H19.7961V13.8943L19.5586 13.6868C19.4945 13.6304 19.4121 13.5994 19.3267 13.5994C19.2414 13.5994 19.159 13.6304 19.0949 13.6868L18.8584 13.8941L18.8594 11.6273ZM13.1518 16.2775C13.1518 17.7675 12.5076 18.8058 11.9296 18.8058H11.2811C11.7191 18.2183 11.9957 17.3128 11.9957 16.2775C11.9957 15.2422 11.7187 14.3369 11.2811 13.7495H11.9298C12.5066 13.7495 13.1518 14.7878 13.1518 16.2775ZM3.1358 18.8058C3.57439 18.2185 3.85144 17.3128 3.85144 16.2775C3.85144 15.2422 3.57439 14.3367 3.136 13.7495H10.0702C10.6482 13.7495 11.2923 14.7878 11.2923 16.2775C11.2923 17.7673 10.6482 18.8058 10.0702 18.8058H3.1358ZM2.10754 16.6291H3.1346C3.05544 17.7492 2.60861 18.5564 2.14532 18.7565C1.71095 17.5621 1.9651 16.8813 2.10754 16.6291ZM0.703185 16.2775C0.703185 14.788 1.3461 13.7501 1.92472 13.7501C2.45653 13.7501 3.04278 14.6278 3.1344 15.9259H1.92472C1.87621 15.926 1.82824 15.936 1.78381 15.9555C1.73938 15.975 1.69946 16.0034 1.66655 16.039C1.63199 16.0764 0.940459 16.8573 1.31817 18.4387C0.972203 18.0112 0.703185 17.2397 0.703185 16.2775ZM9.70234 21.508L9.45422 21.1632C9.40247 21.0914 9.32553 21.0417 9.23876 21.0241C9.15199 21.0065 9.06177 21.0222 8.9861 21.0682L8.44645 21.3965L9.185 19.5079H10.4843L9.70234 21.508ZM13.5532 21.3965L13.0135 21.0682C12.9379 21.0222 12.8476 21.0064 12.7609 21.024C12.6741 21.0416 12.5971 21.0914 12.5454 21.1632L12.2973 21.508L11.5152 19.509H12.8144L13.5532 21.3965ZM20.0743 18.8048H13.1403C13.5783 18.2173 13.8549 17.3118 13.8549 16.2765C13.8549 15.2412 13.5783 14.3359 13.1403 13.7485H18.1562V14.6692C18.1564 14.7367 18.1759 14.8026 18.2125 14.8592C18.2491 14.9159 18.3012 14.9608 18.3626 14.9886C18.424 15.0165 18.4921 15.0261 18.5589 15.0163C18.6256 15.0065 18.688 14.9777 18.7389 14.9334L19.3269 14.4179L19.915 14.9334C19.9658 14.9777 20.0283 15.0065 20.095 15.0163C20.1617 15.0261 20.2298 15.0165 20.2912 14.9886C20.3526 14.9608 20.4047 14.9159 20.4413 14.8592C20.4779 14.8026 20.4975 14.7367 20.4976 14.6692V13.9259C20.9276 14.2823 21.2948 15.1514 21.2948 16.2765C21.2964 17.7675 20.6523 18.8058 20.0743 18.8058V18.8048Z" fill="#0986E2"/>
</svg>
