<svg width="18" height="17" viewBox="0 0 18 17" fill="none" xmlns="http://www.w3.org/2000/svg">
<path fill-rule="evenodd" clip-rule="evenodd" d="M8 1.66667C4.77834 1.66667 2.16667 4.27834 2.16667 7.5C2.16667 10.7217 4.77834 13.3333 8 13.3333C11.2217 13.3333 13.8333 10.7217 13.8333 7.5C13.8333 4.27834 11.2217 1.66667 8 1.66667ZM0.5 7.5C0.5 3.35786 3.85786 0 8 0C12.1421 0 15.5 3.35786 15.5 7.5C15.5 11.6421 12.1421 15 8 15C3.85786 15 0.5 11.6421 0.5 7.5Z" fill="white"/>
<path fill-rule="evenodd" clip-rule="evenodd" d="M12.1191 11.6191C12.4445 11.2936 12.9722 11.2936 13.2976 11.6191L16.9226 15.2441C17.248 15.5695 17.248 16.0972 16.9226 16.4226C16.5972 16.748 16.0695 16.748 15.7441 16.4226L12.1191 12.7976C11.7936 12.4722 11.7936 11.9445 12.1191 11.6191Z" fill="white"/>
</svg>
