<svg width="25" height="27" viewBox="0 0 25 27" fill="none" xmlns="http://www.w3.org/2000/svg">
<path d="M3.0592 5.86438L3.38907 5.68727V10.7461C3.38907 10.8702 3.4384 10.9893 3.5262 11.0771C3.614 11.1649 3.73308 11.2143 3.85725 11.2143H6.28058C6.40475 11.2143 6.52383 11.1649 6.61164 11.0771C6.69944 10.9893 6.74876 10.8702 6.74876 10.7461V8.59938H8.33016V10.7461C8.33016 10.8702 8.37948 10.9893 8.46729 11.0771C8.55509 11.1649 8.67417 11.2143 8.79834 11.2143H11.2217C11.3458 11.2143 11.4649 11.1649 11.5527 11.0771C11.6405 10.9893 11.6899 10.8702 11.6899 10.7461V5.68807L12.0269 5.86652C12.0814 5.8965 12.1412 5.91535 12.203 5.92198C12.2647 5.9286 12.3272 5.92287 12.3867 5.90511C12.4462 5.88736 12.5016 5.85793 12.5497 5.81855C12.5977 5.77917 12.6375 5.73062 12.6666 5.67574C12.6956 5.62085 12.7135 5.56072 12.7192 5.49886C12.7248 5.43699 12.718 5.37462 12.6993 5.31539C12.6806 5.25615 12.6503 5.20124 12.6101 5.15384C12.57 5.10644 12.5208 5.0675 12.4654 5.0393L7.73008 2.53037C7.66229 2.49416 7.58662 2.47522 7.50976 2.47522C7.43291 2.47522 7.35724 2.49416 7.28945 2.53037L2.61643 5.0393C2.50702 5.09802 2.42541 5.19779 2.38957 5.31668C2.35372 5.43556 2.36656 5.56381 2.42528 5.67323C2.48399 5.78264 2.58377 5.86424 2.70265 5.90009C2.82153 5.93594 2.94979 5.92309 3.0592 5.86438ZM7.51231 3.47476L10.7535 5.19207V10.2779H9.26653V8.1312C9.26653 8.00703 9.2172 7.88794 9.1294 7.80014C9.0416 7.71234 8.92251 7.66301 8.79834 7.66301H6.28058C6.21903 7.66291 6.15806 7.67494 6.10117 7.69842C6.04427 7.7219 5.99256 7.75637 5.949 7.79986C5.90544 7.84334 5.87089 7.89499 5.84731 7.95184C5.82373 8.0087 5.81159 8.06965 5.81159 8.1312V10.2779H4.32544V5.18484L7.51231 3.47476Z" fill="white"/>
<path d="M2.80107 13.6683H12.8745C12.9987 13.6683 13.1178 13.619 13.2056 13.5312C13.2934 13.4434 13.3427 13.3243 13.3427 13.2001C13.3427 13.076 13.2934 12.9569 13.2056 12.8691C13.1178 12.7813 12.9987 12.732 12.8745 12.732H2.80107C2.6769 12.732 2.55782 12.7813 2.47001 12.8691C2.38221 12.9569 2.33289 13.076 2.33289 13.2001C2.33289 13.3243 2.38221 13.4434 2.47001 13.5312C2.55782 13.619 2.6769 13.6683 2.80107 13.6683Z" fill="white"/>
<path d="M2.80107 15.8736H7.59448C7.71866 15.8736 7.83774 15.8243 7.92554 15.7365C8.01334 15.6487 8.06267 15.5296 8.06267 15.4054C8.06267 15.2813 8.01334 15.1622 7.92554 15.0744C7.83774 14.9866 7.71866 14.9373 7.59448 14.9373H2.80107C2.6769 14.9373 2.55782 14.9866 2.47001 15.0744C2.38221 15.1622 2.33289 15.2813 2.33289 15.4054C2.33289 15.5296 2.38221 15.6487 2.47001 15.7365C2.55782 15.8243 2.6769 15.8736 2.80107 15.8736Z" fill="white"/>
<path d="M11.2217 17.1428H2.80107C2.6769 17.1428 2.55782 17.1921 2.47001 17.2799C2.38221 17.3677 2.33289 17.4868 2.33289 17.611C2.33289 17.7351 2.38221 17.8542 2.47001 17.942C2.55782 18.0298 2.6769 18.0792 2.80107 18.0792H11.2217C11.3459 18.0792 11.465 18.0298 11.5528 17.942C11.6406 17.8542 11.6899 17.7351 11.6899 17.611C11.6899 17.4868 11.6406 17.3677 11.5528 17.2799C11.465 17.1921 11.3459 17.1428 11.2217 17.1428Z" fill="white"/>
<path d="M2.80107 20.2845H7.59448C7.71866 20.2845 7.83774 20.2351 7.92554 20.1473C8.01334 20.0595 8.06267 19.9404 8.06267 19.8163C8.06267 19.6921 8.01334 19.573 7.92554 19.4852C7.83774 19.3974 7.71866 19.3481 7.59448 19.3481H2.80107C2.6769 19.3481 2.55782 19.3974 2.47001 19.4852C2.38221 19.573 2.33289 19.6921 2.33289 19.8163C2.33289 19.9404 2.38221 20.0595 2.47001 20.1473C2.55782 20.2351 2.6769 20.2845 2.80107 20.2845Z" fill="white"/>
<path d="M11.2217 21.5533H2.80107C2.6769 21.5533 2.55782 21.6027 2.47001 21.6905C2.38221 21.7783 2.33289 21.8974 2.33289 22.0215C2.33289 22.1457 2.38221 22.2648 2.47001 22.3526C2.55782 22.4404 2.6769 22.4897 2.80107 22.4897H11.2217C11.3459 22.4897 11.465 22.4404 11.5528 22.3526C11.6406 22.2648 11.6899 22.1457 11.6899 22.0215C11.6899 21.8974 11.6406 21.7783 11.5528 21.6905C11.465 21.6027 11.3459 21.5533 11.2217 21.5533Z" fill="white"/>
<path d="M7.59445 23.7592H2.83769C2.71352 23.7592 2.59444 23.8085 2.50663 23.8963C2.41883 23.9841 2.36951 24.1032 2.36951 24.2274C2.36951 24.3515 2.41883 24.4706 2.50663 24.5584C2.59444 24.6462 2.71352 24.6956 2.83769 24.6956H7.59445C7.71862 24.6956 7.83771 24.6462 7.92551 24.5584C8.01331 24.4706 8.06264 24.3515 8.06264 24.2274C8.06264 24.1032 8.01331 23.9841 7.92551 23.8963C7.83771 23.8085 7.71862 23.7592 7.59445 23.7592Z" fill="white"/>
<path d="M25 19.3722C24.9981 17.8197 24.4108 16.325 23.3555 15.1864C22.3001 14.0478 20.8542 13.3491 19.3063 13.2296V4.34743C19.3063 4.22328 19.2569 4.10424 19.1691 4.01649L15.2898 0.137245C15.2021 0.049429 15.0831 6.1988e-05 14.9589 0H0.468185C0.344014 0 0.224929 0.0493264 0.137128 0.137128C0.0493261 0.22493 0 0.344014 0 0.468185V26.419C0 26.5432 0.0493261 26.6623 0.137128 26.7501C0.224929 26.8379 0.344014 26.8872 0.468185 26.8872H18.8382C18.9623 26.8872 19.0814 26.8379 19.1692 26.7501C19.257 26.6623 19.3063 26.5432 19.3063 26.419V25.5142C20.8541 25.3947 22.2999 24.696 23.3553 23.5575C24.4106 22.4191 24.9979 20.9245 25 19.3722ZM15.4274 1.59852L17.7078 3.87898H15.4274V1.59852ZM0.93637 25.9508V0.93637H14.491V4.34743C14.491 4.4716 14.5403 4.59069 14.6281 4.67849C14.7159 4.76629 14.835 4.81562 14.9592 4.81562H18.37V13.2296C16.8217 13.3475 15.3751 14.0458 14.3197 15.1847C13.2642 16.3235 12.6778 17.819 12.6778 19.3717C12.6778 20.9245 13.2642 22.42 14.3197 23.5588C15.3751 24.6977 16.8217 25.396 18.37 25.5139V25.9506L0.93637 25.9508ZM18.8382 24.5974C17.8046 24.5974 16.7943 24.2909 15.935 23.7167C15.0757 23.1425 14.4059 22.3264 14.0104 21.3715C13.6149 20.4167 13.5115 19.366 13.7131 18.3523C13.9147 17.3387 14.4125 16.4076 15.1433 15.6768C15.8741 14.946 16.8052 14.4484 17.8189 14.2468C18.8325 14.0452 19.8832 14.1487 20.838 14.5442C21.7929 14.9398 22.609 15.6096 23.1831 16.469C23.7573 17.3283 24.0637 18.3386 24.0636 19.3722C24.062 20.7575 23.5109 22.0857 22.5313 23.0652C21.5517 24.0448 20.2235 24.5958 18.8382 24.5974Z" fill="white"/>
<path d="M19.8496 17.8927C19.8496 18.0169 19.899 18.1359 19.9868 18.2237C20.0746 18.3115 20.1936 18.3609 20.3178 18.3609C20.442 18.3609 20.5611 18.3115 20.6489 18.2237C20.7367 18.1359 20.786 18.0169 20.786 17.8927C20.7852 17.458 20.6392 17.0361 20.3712 16.6939C20.1031 16.3517 19.7284 16.109 19.3065 16.0042V15.6684C19.3065 15.5442 19.2572 15.4252 19.1694 15.3374C19.0816 15.2496 18.9625 15.2002 18.8384 15.2002C18.7142 15.2002 18.5951 15.2496 18.5073 15.3374C18.4195 15.4252 18.3702 15.5442 18.3702 15.6684V16.0042C17.9479 16.1082 17.5726 16.3507 17.3044 16.6931C17.0361 17.0354 16.8904 17.4578 16.8904 17.8927C16.8904 18.3276 17.0361 18.75 17.3044 19.0923C17.5726 19.4346 17.9479 19.6772 18.3702 19.7812V21.7428C18.207 21.6579 18.0701 21.53 17.9744 21.3729C17.8787 21.2158 17.8277 21.0356 17.8271 20.8516C17.8271 20.7274 17.7777 20.6084 17.6899 20.5206C17.6021 20.4328 17.4831 20.3834 17.3589 20.3834C17.2347 20.3834 17.1156 20.4328 17.0278 20.5206C16.94 20.6084 16.8907 20.7274 16.8907 20.8516C16.8915 21.2863 17.0375 21.7082 17.3056 22.0504C17.5736 22.3926 17.9483 22.6353 18.3702 22.7401V23.0826C18.3702 23.2068 18.4195 23.3258 18.5073 23.4136C18.5951 23.5014 18.7142 23.5508 18.8384 23.5508C18.9625 23.5508 19.0816 23.5014 19.1694 23.4136C19.2572 23.3258 19.3065 23.2068 19.3065 23.0826V22.7401C19.7288 22.6361 20.1041 22.3936 20.3723 22.0512C20.6406 21.7089 20.7863 21.2865 20.7863 20.8516C20.7863 20.4167 20.6406 19.9943 20.3723 19.652C20.1041 19.3097 19.7288 19.0671 19.3065 18.9631V17.0018C19.4697 17.0867 19.6065 17.2145 19.7022 17.3716C19.798 17.5286 19.8489 17.7088 19.8496 17.8927ZM17.8268 17.8927C17.8275 17.7087 17.8784 17.5285 17.9741 17.3714C18.0699 17.2143 18.2067 17.0864 18.3699 17.0015V18.7836C18.2068 18.6987 18.0699 18.5708 17.9742 18.4138C17.8785 18.2568 17.8275 18.0766 17.8268 17.8927ZM19.8496 20.8516C19.849 21.0356 19.798 21.2158 19.7023 21.3729C19.6066 21.53 19.4697 21.6579 19.3065 21.7428V19.9607C19.4697 20.0456 19.6065 20.1735 19.7022 20.3305C19.798 20.4875 19.8489 20.6677 19.8496 20.8516Z" fill="white"/>
</svg>
