<svg width="25" height="25" viewBox="0 0 25 25" fill="none" xmlns="http://www.w3.org/2000/svg">
<path fill-rule="evenodd" clip-rule="evenodd" d="M16.25 19.7937L13.93 12.835L20.89 5.87374L16.25 19.7937ZM19.1225 4.10622L12.1625 11.0662L5.2025 8.74622L19.1225 4.10622ZM24.9875 1.18125C24.9812 1.065 24.96 0.9525 24.9212 0.84375C24.9088 0.805 24.895 0.7675 24.8775 0.73C24.8175 0.59625 24.7413 0.47 24.6338 0.3625C24.5263 0.255 24.4 0.17875 24.265 0.11875C24.2288 0.10125 24.1925 0.0875 24.1537 0.075C24.0425 0.03625 23.9288 0.01375 23.81 0.0075C23.7825 0.00625 23.7575 0 23.7288 0C23.6038 0.0025 23.4775 0.02 23.355 0.06L0.855 7.56C0.34375 7.73125 0 8.2075 0 8.74625C0 9.285 0.34375 9.7625 0.855 9.9325L11.5112 13.485L15.065 24.1425C15.235 24.6525 15.7113 24.9962 16.25 24.9962C16.7887 24.9962 17.265 24.6525 17.435 24.1425L24.935 1.6425C24.975 1.51875 24.9937 1.39375 24.995 1.26875C24.9963 1.23875 24.9888 1.21125 24.9875 1.18125Z" fill="white"/>
</svg>
