<svg width="11" height="10" viewBox="0 0 11 10" fill="none" xmlns="http://www.w3.org/2000/svg">
<path fill-rule="evenodd" clip-rule="evenodd" d="M5.04168 0C5.21613 0 5.37545 0.0990332 5.45267 0.255464L6.76238 2.9088L9.6913 3.3369C9.86389 3.36213 10.0072 3.48313 10.061 3.64905C10.1148 3.81497 10.0698 3.99705 9.94481 4.11875L7.82584 6.18263L8.32592 9.09836C8.35541 9.27032 8.28471 9.44411 8.14356 9.54665C8.0024 9.64919 7.81527 9.6627 7.66085 9.58149L5.04168 8.2041L2.42251 9.58149C2.26809 9.6627 2.08096 9.64919 1.9398 9.54665C1.79865 9.44411 1.72795 9.27032 1.75744 9.09836L2.25752 6.18263L0.138553 4.11875C0.0136025 3.99705 -0.0314392 3.81497 0.0223589 3.64905C0.076157 3.48313 0.219469 3.36213 0.392059 3.3369L3.32098 2.9088L4.63069 0.255464C4.70791 0.0990332 4.86723 0 5.04168 0ZM5.04168 1.49383L4.03642 3.53037C3.96972 3.66551 3.84084 3.75922 3.69172 3.78102L1.44304 4.10969L3.06981 5.69417C3.17792 5.79947 3.22726 5.95124 3.20175 6.09998L2.81793 8.33785L4.82835 7.28059C4.9619 7.21036 5.12146 7.21036 5.25501 7.28059L7.26543 8.33785L6.88161 6.09998C6.8561 5.95124 6.90544 5.79947 7.01355 5.69417L8.64032 4.10969L6.39164 3.78102C6.24252 3.75922 6.11365 3.66551 6.04694 3.53037L5.04168 1.49383Z" fill="#FFCDAF"/>
</svg>
