<svg width="23" height="20" viewBox="0 0 23 20" fill="none" xmlns="http://www.w3.org/2000/svg">
<path d="M22.9784 6.35152C22.9724 6.27552 22.9654 6.21752 22.9584 6.17752C22.8918 4.86797 22.4312 3.60908 21.6369 2.56579C20.8427 1.52249 19.7517 0.743461 18.5072 0.330757C17.2626 -0.0819459 15.9223 -0.109068 14.662 0.252943C13.4018 0.614955 12.2802 1.34921 11.4444 2.35952C10.8534 1.61794 10.1016 1.02034 9.24585 0.611847C8.39007 0.203359 7.45266 -0.00533737 6.50441 0.00151859C4.84402 0.0316958 3.25603 0.686693 2.05719 1.83586C0.858349 2.98503 0.136779 4.54389 0.0364066 6.20152C0.0294066 6.24252 0.0234066 6.29152 0.0174066 6.34952C-0.0370082 7.09482 0.0363821 7.84394 0.234407 8.56452C0.751305 10.5402 1.86956 12.3064 3.43441 13.6185L10.8344 19.7755C11.0127 19.9206 11.2356 19.9997 11.4654 19.9997C11.6953 19.9997 11.9181 19.9206 12.0964 19.7755L19.5524 13.6285C21.0985 12.286 22.2167 10.5194 22.7684 8.54752C22.9489 7.83032 23.0197 7.08992 22.9784 6.35152ZM20.8944 8.16352C20.4249 9.77692 19.4995 11.2204 18.2294 12.3205L11.4684 17.8905L4.70841 12.2665C3.4317 11.1972 2.51835 9.758 2.09441 8.14752C1.94257 7.60707 1.88472 7.04455 1.92341 6.48452L1.93741 6.39352C1.97973 5.19462 2.47413 4.05615 3.32129 3.20676C4.16845 2.35737 5.30563 1.85999 6.50441 1.81452C7.36929 1.81335 8.2152 2.06803 8.93568 2.54651C9.65616 3.02499 10.219 3.70589 10.5534 4.50352C10.6335 4.66948 10.7589 4.80948 10.915 4.90745C11.0711 5.00541 11.2516 5.05738 11.4359 5.05738C11.6202 5.05738 11.8008 5.00541 11.9569 4.90745C12.113 4.80948 12.2383 4.66948 12.3184 4.50352C12.6805 3.69993 13.2675 3.01839 14.0086 2.54121C14.7496 2.06403 15.613 1.81164 16.4944 1.81452C17.6926 1.86099 18.829 2.35895 19.6753 3.20844C20.5217 4.05794 21.0154 5.19611 21.0574 6.39452C21.0644 6.44752 21.0654 6.46152 21.0684 6.49452C21.0936 7.05641 21.0349 7.61891 20.8944 8.16352Z" fill="#C8C9CB"/>
</svg>
