<svg width="20" height="20" viewBox="0 0 20 20" fill="none" xmlns="http://www.w3.org/2000/svg">
<path d="M19.7278 8.55L17.4978 6.525V0.833C17.4978 0.612421 17.4103 0.400846 17.2545 0.244686C17.0987 0.0885256 16.8874 0.000529602 16.6668 0H13.3338C13.2244 0 13.1161 0.0215462 13.015 0.0634084C12.914 0.105271 12.8221 0.166629 12.7448 0.24398C12.6674 0.321331 12.6061 0.413161 12.5642 0.514225C12.5223 0.615289 12.5008 0.723609 12.5008 0.833V1.98L10.6478 0.3L10.5608 0.217C10.5027 0.164067 10.4374 0.119626 10.3668 0.085H10.3578C10.2462 0.0321456 10.1243 0.00472873 10.0008 0.00472873C9.87732 0.00472873 9.75538 0.0321456 9.64379 0.085H9.63479C9.56422 0.119626 9.49891 0.164067 9.44079 0.217L9.35479 0.295L0.272791 8.55C0.191807 8.62359 0.126117 8.71242 0.0794717 8.8114C0.0328267 8.91039 0.00614173 9.0176 0.000941282 9.1269C-0.00425916 9.2362 0.0121268 9.34546 0.0491631 9.44842C0.0861994 9.55139 0.14316 9.64605 0.216791 9.727C0.290439 9.80858 0.379501 9.87477 0.478846 9.92177C0.578191 9.96877 0.685855 9.99565 0.795633 10.0009C0.905412 10.0061 1.01514 9.98949 1.11848 9.9521C1.22183 9.91471 1.31676 9.85724 1.39779 9.783L1.67079 9.535V19.166C1.67052 19.3861 1.75734 19.5973 1.91229 19.7536C2.06724 19.9098 2.27773 19.9984 2.49779 20H17.4978C17.7187 20 17.9306 19.9122 18.0868 19.756C18.243 19.5998 18.3308 19.3879 18.3308 19.167V9.535L18.6038 9.783C18.6848 9.8568 18.7795 9.91394 18.8825 9.95114C18.9855 9.98834 19.0949 10.0049 19.2043 9.99983C19.3138 9.99476 19.4211 9.9682 19.5203 9.92164C19.6195 9.87509 19.7085 9.80946 19.7823 9.7285C19.8561 9.64754 19.9132 9.55284 19.9504 9.4498C19.9876 9.34676 20.0042 9.2374 19.9991 9.12796C19.9941 9.01853 19.9675 8.91116 19.9209 8.812C19.8744 8.71283 19.8088 8.6238 19.7278 8.55ZM14.1668 1.667H15.8338V5.01L14.1668 3.5V1.667ZM8.33379 18.333V12.5C8.33379 12.3906 8.35534 12.2823 8.3972 12.1812C8.43906 12.0802 8.50042 11.9883 8.57777 11.911C8.65512 11.8336 8.74695 11.7723 8.84802 11.7304C8.94908 11.6885 9.0574 11.667 9.16679 11.667H10.8338C10.9432 11.667 11.0515 11.6885 11.1526 11.7304C11.2536 11.7723 11.3455 11.8336 11.4228 11.911C11.5002 11.9883 11.5615 12.0802 11.6034 12.1812C11.6452 12.2823 11.6668 12.3906 11.6668 12.5V18.333H8.33379ZM16.6668 18.333H13.3338V12.5C13.3338 11.837 13.0704 11.2011 12.6016 10.7322C12.1327 10.2634 11.4968 10 10.8338 10H9.16679C8.50375 10 7.86787 10.2634 7.39902 10.7322C6.93018 11.2011 6.66679 11.837 6.66679 12.5V18.333H3.33379V8.02L9.99779 1.96L12.7658 4.477L14.6828 6.219L16.6598 8.019V18.333H16.6668Z" fill="#0986E2"/>
</svg>
