<svg width="22" height="23" viewBox="0 0 22 23" fill="none" xmlns="http://www.w3.org/2000/svg">
<path d="M11 9.16873C11.5439 9.16873 12.0756 9.00744 12.5278 8.70527C12.9801 8.40309 13.3325 7.97361 13.5407 7.47111C13.7488 6.96861 13.8033 6.41568 13.6972 5.88223C13.5911 5.34878 13.3291 4.85878 12.9446 4.47419C12.56 4.08959 12.07 3.82768 11.5365 3.72157C11.0031 3.61546 10.4501 3.66992 9.94762 3.87806C9.44512 4.08621 9.01563 4.43868 8.71346 4.89091C8.41128 5.34315 8.25 5.87483 8.25 6.41873C8.25 7.14807 8.53974 7.84755 9.05546 8.36327C9.57119 8.879 10.2707 9.16873 11 9.16873ZM11 5.50243C11.1812 5.50243 11.3584 5.55617 11.5091 5.65685C11.6598 5.75754 11.7772 5.90065 11.8466 6.06808C11.9159 6.23551 11.9341 6.41975 11.8987 6.59749C11.8633 6.77524 11.7761 6.9385 11.6479 7.06665C11.5198 7.1948 11.3565 7.28206 11.1788 7.31742C11.001 7.35278 10.8168 7.33463 10.6494 7.26528C10.4819 7.19593 10.3388 7.07848 10.2381 6.9278C10.1374 6.77711 10.0837 6.59995 10.0837 6.41873C10.0837 6.17571 10.1802 5.94264 10.3521 5.7708C10.5239 5.59897 10.757 5.50243 11 5.50243Z" fill="#4A4D54" fill-opacity="0.3"/>
<path d="M9.80649 17.0821L10.1794 17.8279C10.2554 17.9803 10.3724 18.1086 10.5172 18.1982C10.6621 18.2879 10.8291 18.3354 10.9994 18.3354C11.1698 18.3354 11.3368 18.2879 11.4816 18.1982C11.6265 18.1086 11.7435 17.9803 11.8195 17.8279L12.6093 16.2461C13.5914 14.3453 14.678 12.5003 15.8642 10.7197L15.9082 10.6493L16.4252 9.83417C17.0709 8.80971 17.4134 7.6234 17.4131 6.41244C17.4127 5.20147 17.0696 4.01534 16.4234 2.99122C15.7772 1.9671 14.8542 1.14685 13.7613 0.625319C12.6684 0.103793 11.4502 -0.0976924 10.2476 0.0441661C9.13295 0.174885 8.07214 0.595874 7.17119 1.26506C6.27025 1.93424 5.56072 2.82817 5.11353 3.85751C4.66634 4.88684 4.49716 6.01552 4.62289 7.13074C4.74861 8.24595 5.16485 9.30863 5.82999 10.2126C7.35954 12.3781 8.69044 14.6772 9.80649 17.0821ZM6.46248 5.75867C6.62855 4.61167 7.22294 3.57016 8.12601 2.84377C9.02909 2.11739 10.1738 1.76006 11.3297 1.84371C12.4857 1.92736 13.567 2.44578 14.3561 3.29463C15.1452 4.14347 15.5834 5.25971 15.5826 6.41867C15.5841 7.28137 15.3395 8.12662 14.8775 8.85517L14.3627 9.66697L14.3187 9.73737C13.1099 11.5539 12.0013 13.4351 10.9978 15.3727C9.95167 13.1865 8.71604 11.0962 7.30508 9.12577C6.59162 8.15822 6.28882 6.94821 6.46248 5.75867Z" fill="#4A4D54" fill-opacity="0.3"/>
<path d="M16.7101 13.4531C16.5929 13.4253 16.4715 13.4208 16.3526 13.4399C16.2337 13.4591 16.1198 13.5014 16.0173 13.5646C15.9148 13.6278 15.8257 13.7106 15.7552 13.8082C15.6847 13.9058 15.6341 14.0163 15.6063 14.1334C15.5784 14.2506 15.574 14.3721 15.5931 14.4909C15.6123 14.6098 15.6546 14.7238 15.7178 14.8263C15.781 14.9288 15.8637 15.0178 15.9613 15.0883C16.0589 15.1589 16.1694 15.2095 16.2866 15.2373C18.7451 15.8203 20.1663 16.7531 20.1663 17.4186C20.1663 18.6847 16.0864 20.1686 11 20.1686C5.9136 20.1686 1.8337 18.6858 1.8337 17.4186C1.8337 16.752 3.2538 15.8203 5.7112 15.2373C5.9478 15.1811 6.1524 15.0333 6.27999 14.8263C6.40758 14.6193 6.44771 14.37 6.39155 14.1334C6.33539 13.8968 6.18754 13.6922 5.98053 13.5646C5.77352 13.437 5.5243 13.3969 5.2877 13.4531C2.0713 14.2165 0 15.5761 0 17.4186C0 20.2027 4.95 22.0023 11 22.0023C17.05 22.0023 22 20.2038 22 17.4186C22 15.5761 19.9276 14.2165 16.7101 13.4531Z" fill="#4A4D54" fill-opacity="0.3"/>
</svg>
