<svg width="20" height="20" viewBox="0 0 20 20" fill="none" xmlns="http://www.w3.org/2000/svg">
<path d="M19.324 8.3L18.224 8.087C17.986 8.04133 17.7634 7.93617 17.577 7.78132C17.3906 7.62647 17.2464 7.42695 17.1579 7.20137C17.0693 6.97578 17.0393 6.73145 17.0707 6.49114C17.102 6.25083 17.1936 6.02236 17.337 5.827L18.029 4.883C18.1466 4.72206 18.2026 4.52427 18.1868 4.32555C18.1711 4.12683 18.0845 3.94036 17.943 3.8L16.443 2.3C16.306 2.16298 16.1254 2.07803 15.9325 2.05978C15.7396 2.04153 15.5463 2.09111 15.386 2.2L14.456 2.83C14.2558 2.96467 14.0248 3.04675 13.7845 3.06866C13.5442 3.09056 13.3022 3.05159 13.0809 2.95534C12.8596 2.85909 12.6661 2.70866 12.5183 2.51793C12.3704 2.3272 12.273 2.10231 12.235 1.864L12.058 0.707C12.0279 0.510101 11.9282 0.330517 11.777 0.20081C11.6258 0.071103 11.4332 -0.000139568 11.234 2.05279e-07H9.118C8.92433 1.66899e-05 8.73672 0.067516 8.58743 0.19089C8.43814 0.314263 8.3365 0.4858 8.3 0.676L8.027 2.1C7.98203 2.33354 7.87979 2.55227 7.72947 2.73656C7.57914 2.92086 7.38542 3.06497 7.16568 3.15595C6.94594 3.24694 6.70706 3.28197 6.47045 3.25789C6.23384 3.23381 6.00691 3.15138 5.81 3.018L4.61 2.205C4.44969 2.09611 4.25643 2.04653 4.0635 2.06478C3.87057 2.08303 3.69005 2.16798 3.553 2.305L2.053 3.805C1.91354 3.94601 1.82897 4.13214 1.81449 4.32993C1.80001 4.52772 1.85657 4.72419 1.974 4.884L2.667 5.828C2.81017 6.02335 2.9016 6.25173 2.93279 6.49191C2.96398 6.73209 2.93392 6.97625 2.8454 7.20169C2.75688 7.42713 2.61278 7.62652 2.42651 7.7813C2.24023 7.93609 2.01783 8.04125 1.78 8.087L0.68 8.3C0.489065 8.33568 0.3166 8.43696 0.19243 8.58633C0.0682605 8.73569 0.00019352 8.92376 3.2736e-07 9.118V11.233C-0.00017605 11.432 0.0709256 11.6246 0.200431 11.7757C0.329936 11.9269 0.509284 12.0267 0.706 12.057L1.863 12.235C2.10253 12.2719 2.32884 12.3688 2.52086 12.5167C2.71289 12.6645 2.8644 12.8585 2.9613 13.0807C3.0582 13.3028 3.09735 13.5459 3.07509 13.7872C3.05283 14.0285 2.9699 14.2603 2.834 14.461L2.204 15.391C2.09511 15.5513 2.04553 15.7446 2.06378 15.9375C2.08203 16.1304 2.16698 16.311 2.304 16.448L3.804 17.948C3.94468 18.0888 4.13115 18.1746 4.32963 18.1899C4.52811 18.2051 4.72548 18.1487 4.886 18.031L5.83 17.339C6.02545 17.1956 6.25398 17.104 6.49434 17.0727C6.7347 17.0414 6.97908 17.0714 7.20472 17.16C7.43037 17.2485 7.62996 17.3927 7.78492 17.579C7.93988 17.7654 8.04517 17.988 8.091 18.226L8.303 19.326C8.33981 19.5153 8.44119 19.686 8.58982 19.8089C8.73845 19.9318 8.92513 19.9994 9.118 20H11.234C11.4332 20.0001 11.6258 19.9289 11.777 19.7992C11.9282 19.6695 12.0279 19.4899 12.058 19.293L12.183 18.479C12.2207 18.2351 12.3205 18.0051 12.473 17.811C12.6254 17.6169 12.8252 17.4653 13.0531 17.3709C13.2811 17.2765 13.5296 17.2423 13.7746 17.2717C14.0196 17.3012 14.2529 17.3932 14.452 17.539L15.116 18.026C15.2765 18.1437 15.4739 18.2001 15.6724 18.1849C15.8709 18.1696 16.0573 18.0838 16.198 17.943L17.698 16.443C17.835 16.306 17.92 16.1254 17.9382 15.9325C17.9565 15.7396 17.9069 15.5463 17.798 15.386L17.168 14.456C17.0318 14.2554 16.9487 14.0236 16.9263 13.7822C16.9039 13.5407 16.943 13.2976 17.0399 13.0753C17.1368 12.8531 17.2885 12.659 17.4807 12.5112C17.6728 12.3634 17.8993 12.2667 18.139 12.23L19.297 12.052C19.4923 12.0211 19.6703 11.9218 19.7991 11.7718C19.9279 11.6217 19.9991 11.4307 20 11.233V9.118C20 8.92433 19.9325 8.73672 19.8091 8.58743C19.6857 8.43814 19.5142 8.3365 19.324 8.3V8.3ZM18.333 10.519L17.882 10.588C17.3639 10.6664 16.8741 10.8748 16.4583 11.1939C16.0426 11.5129 15.7146 11.9321 15.5048 12.4123C15.2951 12.8925 15.2105 13.4181 15.259 13.9399C15.3074 14.4617 15.4874 14.9626 15.782 15.396L16.026 15.756L15.526 16.256L15.438 16.192C15.0082 15.8762 14.5042 15.6767 13.9748 15.6127C13.4453 15.5486 12.9083 15.6223 12.4156 15.8265C11.9229 16.0307 11.4913 16.3586 11.1623 16.7784C10.8334 17.1982 10.6184 17.6958 10.538 18.223L10.521 18.331H9.807L9.725 17.904C9.62664 17.3896 9.39955 16.9085 9.06493 16.5056C8.73032 16.1027 8.29908 15.7912 7.81148 15.6C7.32387 15.4089 6.79579 15.3444 6.27652 15.4126C5.75725 15.4808 5.26372 15.6795 4.842 15.99L4.474 16.26L3.974 15.76L4.218 15.4C4.51262 14.9666 4.69257 14.4657 4.74104 13.9439C4.78951 13.4221 4.70492 12.8965 4.49518 12.4163C4.28543 11.9361 3.95737 11.5169 3.54166 11.1979C3.12594 10.8788 2.63613 10.6704 2.118 10.592L1.667 10.519V9.806L2.095 9.724C2.60933 9.62569 3.09037 9.3987 3.49325 9.06421C3.89613 8.72972 4.20771 8.29862 4.39892 7.81114C4.59014 7.32367 4.65476 6.7957 4.58675 6.2765C4.51874 5.7573 4.32032 5.26378 4.01 4.842L3.74 4.474L4.24 3.974L4.871 4.401C5.29633 4.69089 5.78715 4.87031 6.29917 4.92307C6.81118 4.97583 7.32827 4.90026 7.80378 4.70319C8.27929 4.50612 8.69824 4.19375 9.02283 3.79427C9.34742 3.39479 9.56743 2.92078 9.663 2.415L9.807 1.667H10.519L10.588 2.117C10.6665 2.63497 10.8749 3.12461 11.1939 3.54019C11.5129 3.95578 11.9319 4.28374 12.412 4.49347C12.8921 4.70319 13.4175 4.78783 13.9391 4.73949C14.4608 4.69114 14.9617 4.51138 15.395 4.217L15.755 3.973L16.255 4.473L15.985 4.841C15.6747 5.26292 15.4763 5.75658 15.4084 6.27591C15.3405 6.79525 15.4053 7.32332 15.5967 7.81083C15.7882 8.29835 16.1 8.72942 16.5031 9.0638C16.9062 9.39818 17.3875 9.62497 17.902 9.723L18.329 9.805V10.517L18.333 10.519Z" fill="#C8C9CB"/>
<path d="M10 5.83301C9.17585 5.83301 8.3702 6.0774 7.68494 6.53528C6.99968 6.99315 6.46559 7.64395 6.1502 8.40536C5.83481 9.16678 5.75229 10.0046 5.91308 10.813C6.07386 11.6213 6.47072 12.3638 7.05349 12.9465C7.63626 13.5293 8.37875 13.9262 9.18707 14.0869C9.99538 14.2477 10.8332 14.1652 11.5946 13.8498C12.3561 13.5344 13.0069 13.0003 13.4647 12.3151C13.9226 11.6298 14.167 10.8242 14.167 10C14.167 8.89486 13.728 7.83496 12.9465 7.0535C12.1651 6.27203 11.1052 5.83301 10 5.83301ZM10 12.5C9.50555 12.5 9.0222 12.3534 8.61108 12.0787C8.19995 11.804 7.87953 11.4135 7.69032 10.9567C7.5011 10.4999 7.45158 9.99724 7.54804 9.51228C7.64451 9.02733 7.88262 8.58187 8.23225 8.23224C8.58188 7.88261 9.02732 7.64451 9.51228 7.54805C9.99723 7.45159 10.4999 7.50109 10.9567 7.69031C11.4135 7.87953 11.804 8.19996 12.0787 8.61108C12.3534 9.02221 12.5 9.50556 12.5 10C12.5 10.6631 12.2366 11.2989 11.7678 11.7678C11.2989 12.2366 10.663 12.5 10 12.5V12.5Z" fill="#C8C9CB"/>
</svg>
